<?xml version="1.0" standalone="no"?>
<!DOCTYPE svg PUBLIC "-//W3C//DTD SVG 20010904//EN"
 "http://www.w3.org/TR/2001/REC-SVG-20010904/DTD/svg10.dtd">
<svg version="1.0" xmlns="http://www.w3.org/2000/svg"
 width="768.000000pt" height="384.000000pt" viewBox="0 0 768.000000 384.000000"
 preserveAspectRatio="xMidYMid meet">

<g transform="translate(0.000000,384.000000) scale(0.100000,-0.100000)"
fill="#000000" stroke="none">
<path d="M5105 3729 c-136 -48 -313 -188 -364 -287 -24 -48 -29 -162 -7 -200
19 -35 67 -62 110 -62 l38 0 -6 -44 c-9 -56 11 -98 53 -116 60 -25 59 -34 -17
-107 -39 -37 -79 -87 -91 -109 -11 -23 -27 -44 -36 -47 -8 -4 -90 -2 -182 4
-259 15 -305 15 -340 0 -18 -7 -31 -17 -28 -21 3 -4 -22 -16 -55 -26 -33 -11
-60 -22 -60 -26 0 -5 -8 -8 -17 -8 -15 0 -16 2 -3 10 12 7 8 10 -15 10 -20 0
-25 -3 -17 -9 21 -13 -13 -34 -47 -29 -17 2 -28 1 -25 -4 3 -4 -4 -8 -15 -8
-11 0 -23 -4 -26 -10 -3 -5 -28 -12 -55 -16 -27 -4 -47 -10 -44 -15 3 -5 -1
-9 -10 -9 -8 0 -16 -6 -19 -12 -2 -7 -8 -9 -13 -5 -5 5 -1 15 10 23 11 8 15
14 9 14 -19 0 -45 -32 -39 -47 5 -11 0 -13 -17 -8 -19 5 -19 4 -5 -5 13 -8 25
-7 48 5 23 12 28 12 24 2 -5 -15 40 -27 103 -27 17 0 35 -5 38 -10 13 -20 81
-41 125 -39 30 2 61 -4 94 -19 27 -12 54 -22 60 -21 6 0 2 4 -9 9 -17 7 -18 9
-2 9 9 1 25 -4 35 -9 9 -6 52 -14 95 -18 97 -9 98 -28 2 -25 l-70 1 63 -10
c34 -6 62 -15 62 -20 0 -9 -243 -247 -352 -346 -61 -54 -72 -60 -105 -57 -172
15 -388 23 -401 16 -21 -12 58 -27 223 -42 71 -6 138 -14 148 -18 20 -8 -80
-97 -428 -386 -155 -128 -249 -212 -452 -402 -32 -30 -38 -31 -146 -38 -95 -6
-2215 0 -2287 7 -14 1 -163 1 -332 0 l-308 -2 0 -69 c0 -46 4 -71 13 -74 10
-4 10 -6 0 -6 -10 -1 -13 -37 -13 -147 0 -138 1 -145 19 -139 12 3 21 0 25
-10 3 -8 12 -15 21 -15 8 0 15 -4 15 -10 0 -10 -27 -15 -62 -12 -11 1 -18 -5
-18 -16 0 -14 10 -17 69 -18 39 0 76 -6 84 -12 7 -6 36 -16 63 -22 38 -8 58
-7 89 5 22 8 32 14 23 15 -21 0 -24 23 -5 38 24 19 57 24 57 8 0 -11 17 -15
73 -18 72 -4 113 7 69 18 -26 7 -29 20 -4 28 9 3 4 4 -13 2 -21 -3 -35 2 -51
19 l-21 23 61 4 c46 4 63 1 69 -9 7 -11 12 -12 23 -2 11 9 21 9 40 0 38 -17
42 -13 9 9 -21 14 -25 20 -12 20 9 0 17 -4 17 -9 0 -5 20 -9 45 -9 l45 0 -33
22 c-19 13 -40 26 -48 29 -27 10 84 7 147 -5 41 -7 64 -16 64 -25 0 -17 30
-16 53 1 13 10 15 15 5 19 -56 20 112 11 181 -9 19 -6 23 -4 19 7 -5 12 65 15
467 17 334 3 475 1 479 -7 8 -13 53 -15 60 -2 8 13 178 18 411 13 96 -2 117
-5 105 -15 -25 -19 -68 -80 -72 -102 -2 -11 -9 -21 -16 -21 -6 -1 -16 -2 -21
-3 -5 0 -21 -27 -36 -58 -14 -31 -40 -72 -56 -92 -16 -20 -29 -40 -29 -46 0
-8 -148 -12 -491 -14 -480 -2 -616 2 -588 20 10 6 6 9 -13 9 -14 0 -28 -5 -30
-12 -4 -11 -196 -18 -283 -9 -22 2 -57 0 -77 -4 -28 -6 -47 -3 -75 10 -41 20
-41 20 29 30 35 5 46 10 41 21 -3 9 2 14 15 14 12 0 24 4 27 10 9 15 -27 12
-68 -5 -20 -8 -50 -15 -66 -15 -16 0 -33 -4 -36 -10 -11 -18 -23 -11 -18 10 4
14 0 20 -11 20 -9 0 -13 6 -10 14 7 18 -11 29 -35 21 -13 -4 -17 -12 -14 -24
6 -23 -26 -44 -47 -31 -16 10 -63 -18 -57 -34 3 -8 -9 -10 -34 -8 -25 3 -39 9
-39 18 0 8 7 14 15 14 8 0 15 4 15 8 0 10 -226 10 -236 0 -4 -4 -1 -14 6 -23
10 -12 10 -15 -1 -15 -12 0 -12 -2 -1 -9 20 -12 -44 -20 -115 -14 -45 4 -63
10 -72 25 -10 16 -9 23 1 35 12 15 9 16 -21 10 -18 -4 -40 -7 -47 -7 -8 0 -13
-5 -11 -12 1 -6 -13 -16 -30 -21 l-33 -10 0 -133 c0 -118 2 -133 17 -137 17
-4 17 -5 1 -6 -24 -1 -24 -48 0 -54 16 -4 16 -5 0 -6 -15 -1 -18 -11 -18 -56
0 -47 3 -55 19 -55 10 0 24 7 31 15 10 12 7 16 -16 25 -20 8 -24 14 -16 22 8
8 15 8 24 1 7 -6 30 -14 51 -17 32 -6 38 -11 34 -27 -5 -18 1 -19 74 -19 46 0
79 4 79 10 0 6 -7 10 -15 10 -8 0 -15 5 -15 11 0 7 9 9 23 5 12 -3 44 -6 71
-6 40 0 46 -2 37 -14 -9 -11 8 -14 106 -14 l117 -1 -30 20 -29 21 75 -7 c41
-3 91 -6 110 -6 23 1 30 -2 22 -8 -10 -6 -8 -10 10 -14 42 -12 75 -7 101 13
l25 20 -5 -20 c-5 -20 -3 -21 431 -19 441 2 457 4 424 37 -14 14 -62 16 -53 2
3 -5 -3 -10 -13 -10 -22 0 -37 26 -21 35 5 4 7 11 4 16 -4 5 -1 9 6 9 10 0 10
3 1 12 -9 9 -15 9 -24 0 -16 -16 -38 -15 -38 2 0 17 68 23 175 17 48 -2 64 -6
50 -12 -18 -7 -18 -8 5 -8 14 -1 65 -12 115 -26 100 -28 105 -29 105 -16 0 5
-16 12 -35 15 -32 6 -65 39 -48 49 5 2 48 4 96 3 49 -1 91 2 94 6 5 10 -18 11
-450 10 -196 -1 -361 -3 -366 -6 -4 -3 -59 -1 -122 4 -73 6 -117 6 -123 0 -18
-18 -28 -10 -22 16 6 23 5 24 -14 14 -11 -6 -20 -17 -20 -25 0 -9 -10 -15 -25
-15 -16 0 -23 4 -19 14 3 8 -3 16 -16 19 -28 7 -50 -1 -50 -19 0 -8 -7 -14
-16 -14 -13 0 -14 3 -5 14 10 12 9 20 -4 40 -19 28 -18 28 38 40 18 4 41 -1
69 -15 26 -13 59 -21 87 -21 25 1 50 -3 57 -9 8 -6 16 -2 28 16 11 17 25 25
46 25 17 0 29 -5 27 -11 -4 -22 63 -31 130 -19 34 7 73 10 85 7 13 -4 30 -2
38 3 12 8 12 12 -3 28 -16 17 -16 21 -2 32 19 15 47 -3 38 -26 -7 -20 7 -18
24 3 8 10 12 13 9 6 -7 -13 25 -26 69 -27 23 -1 29 -5 27 -20 -2 -11 1 -15 8
-11 6 4 32 10 57 13 63 9 70 32 10 32 l-45 0 3 35 c2 19 -1 35 -6 35 -5 0 -9
7 -9 16 0 9 7 14 18 12 9 -2 17 -10 17 -18 0 -8 6 -22 14 -30 13 -13 12 -15
-2 -18 -29 -6 -18 -22 14 -22 28 0 30 2 18 16 -12 14 -11 16 6 12 11 -2 19
-10 18 -16 -2 -7 9 -12 26 -12 16 0 31 -6 33 -12 5 -15 88 -21 165 -12 56 6
74 25 47 51 -15 15 -14 18 8 34 29 23 37 23 54 2 18 -24 17 -33 -1 -33 -8 0
-15 -5 -15 -11 0 -11 16 -9 52 6 11 4 18 0 23 -14 3 -12 10 -19 15 -16 5 3 20
1 34 -5 15 -5 46 -7 70 -4 l44 6 -26 23 -26 22 21 12 c15 7 30 8 46 2 14 -6
27 -7 31 -4 3 3 13 3 22 -1 14 -5 14 -9 3 -22 -12 -15 -10 -16 20 -9 22 5 31
4 27 -3 -9 -15 18 -22 58 -15 22 3 36 2 36 -5 0 -5 11 -12 25 -14 15 -3 25 -1
24 6 -3 16 19 66 28 66 5 0 15 -5 23 -10 12 -7 12 -12 2 -22 -27 -27 0 -39 38
-16 15 10 22 9 38 -5 10 -9 33 -17 52 -17 18 0 50 -5 72 -12 29 -9 41 -9 50 0
9 9 4 12 -21 12 -18 0 -30 4 -26 9 3 6 -3 15 -12 20 -17 10 -16 13 7 32 l25
21 3 -22 c3 -20 8 -21 46 -16 35 6 49 2 80 -19 27 -18 50 -25 86 -25 68 0 81
6 70 35 -11 29 1 39 36 31 18 -5 24 -12 20 -23 -4 -11 -2 -14 9 -9 8 3 33 -4
55 -15 22 -12 47 -19 55 -15 8 3 18 -2 23 -10 5 -9 15 -12 25 -8 9 3 14 10 11
15 -3 5 0 9 5 9 6 0 11 -4 11 -10 0 -5 5 -10 10 -10 19 0 10 21 -12 29 -21 8
-21 8 3 14 20 6 21 9 9 17 -12 7 -12 12 -3 21 14 14 43 -4 43 -27 0 -19 27
-18 34 2 5 13 9 14 21 4 8 -7 27 -10 42 -7 17 3 31 0 38 -8 7 -10 20 -12 45
-7 26 6 31 10 18 15 -10 3 -25 4 -33 1 -8 -4 -15 -1 -15 5 0 7 20 11 51 11 45
0 50 2 39 15 -11 13 -9 15 13 15 19 0 29 -9 42 -36 16 -35 17 -35 31 -15 20
28 42 27 50 -3 5 -21 13 -24 72 -29 71 -7 139 0 148 14 3 5 -6 9 -20 9 -14 0
-41 9 -60 21 -32 19 -34 22 -20 36 12 12 12 18 2 30 -10 13 -8 14 12 11 14 -2
24 -9 23 -16 -4 -16 56 -16 63 1 3 10 27 12 88 10 46 -1 130 1 186 5 70 5 116
4 148 -4 39 -10 52 -10 76 2 56 27 127 10 113 -28 -2 -7 2 -26 10 -41 12 -25
18 -27 50 -21 25 5 38 3 44 -7 5 -9 23 -12 50 -10 28 2 39 -1 35 -8 -4 -6 -2
-11 3 -11 6 0 11 9 11 20 0 15 -7 20 -25 20 -14 0 -25 5 -25 10 0 6 8 10 18
10 10 0 22 4 28 9 5 5 27 6 49 1 22 -4 30 -8 18 -9 -37 -2 -26 -21 12 -21 19
0 35 -5 35 -10 0 -21 29 -21 51 1 21 21 22 21 32 3 14 -26 27 -34 56 -34 24 0
24 0 5 15 -16 12 -17 16 -4 24 18 12 98 3 125 -14 32 -20 123 -35 215 -35 68
0 93 -8 86 -26 -4 -11 4 -14 34 -14 26 0 48 -7 66 -23 24 -21 32 -23 78 -15
28 5 88 6 132 3 64 -4 83 -2 87 9 4 9 22 14 56 14 28 0 59 6 68 13 9 8 14 9
10 3 -4 -8 19 -11 80 -10 86 1 119 15 71 31 -22 7 -22 7 7 13 17 4 103 7 191
7 134 0 161 2 156 14 -4 10 1 13 19 8 13 -3 69 -11 124 -18 70 -8 106 -18 121
-31 21 -19 80 -26 69 -8 -4 6 -10 8 -15 5 -17 -10 -38 6 -33 26 4 15 -1 20
-27 26 l-33 6 28 15 c23 11 32 12 51 1 13 -7 24 -16 24 -21 0 -13 17 -9 35 9
16 16 18 16 27 0 5 -9 17 -17 26 -17 14 0 15 2 2 10 -8 5 -12 10 -10 12 41 26
123 37 135 18 4 -6 -5 -10 -23 -10 -31 0 -58 -22 -47 -40 8 -13 105 -13 105 0
0 6 -7 13 -15 16 -20 8 -9 24 16 24 10 0 19 -7 19 -15 0 -9 9 -15 24 -15 14 0
28 -4 31 -10 3 -5 33 -10 66 -10 33 0 58 -4 55 -9 -3 -4 28 -11 68 -14 40 -4
81 -10 91 -13 13 -5 16 -3 13 7 -2 8 -20 16 -39 19 -69 10 3 21 93 14 84 -6
88 -6 88 14 0 16 -7 21 -32 24 -18 2 -33 8 -33 13 0 6 15 11 33 13 l32 3 0 70
0 69 -52 0 c-29 0 -77 3 -105 6 -45 6 -53 10 -53 28 0 12 9 32 19 46 17 22 18
25 3 36 -14 10 -14 17 -4 51 7 22 12 57 12 78 0 29 4 38 21 42 21 6 21 7 4 19
-29 21 -7 34 60 34 72 0 95 6 95 26 0 11 -20 14 -90 14 -97 0 -97 0 -102 55
l-3 30 98 -1 c74 0 97 3 97 13 0 10 -24 13 -99 13 l-99 0 -6 30 c-3 17 -9 45
-13 63 -4 17 -6 36 -5 41 2 4 -3 14 -9 22 -7 8 -9 17 -6 20 3 3 54 2 114 -2
101 -7 106 -8 77 -20 -23 -10 -41 -10 -68 -3 -29 8 -39 7 -51 -5 -8 -8 -15
-17 -15 -20 0 -3 41 -5 90 -5 l90 0 0 40 0 39 -133 0 c-73 0 -137 4 -142 9 -6
5 -50 19 -100 31 -49 13 -94 27 -99 31 -10 9 72 46 122 54 20 4 52 11 70 17
30 9 32 13 30 46 l-3 37 128 3 c107 2 127 5 127 18 0 12 -7 14 -27 10 -16 -3
-70 -8 -120 -11 l-93 -5 0 24 c0 13 9 75 19 138 29 172 36 339 17 377 -9 16
-16 43 -16 59 0 16 -7 35 -15 42 -11 9 -172 39 -217 40 -5 0 -8 4 -8 10 0 10
104 80 120 80 26 0 33 53 38 266 l5 221 -34 6 c-19 2 -38 1 -43 -4 -13 -12
-29 -12 -22 0 6 9 -50 13 -434 31 -118 6 -296 15 -395 20 -99 6 -227 12 -285
15 -239 12 -290 17 -290 31 0 7 13 32 29 56 40 60 51 177 21 226 -19 32 -59
55 -111 66 -25 5 -26 8 -21 54 4 46 2 50 -28 73 -84 62 -240 245 -240 282 -1
46 -54 87 -114 87 l-35 0 5 48 c5 39 2 53 -18 82 -42 62 -163 85 -263 49z m62
-196 c-20 -18 -42 -33 -48 -33 -14 0 26 55 54 75 38 27 33 -5 -6 -42z m123
-15 c0 -27 -67 -98 -92 -98 -29 0 -12 46 31 86 42 39 61 43 61 12z m-285 -84
c-34 -26 -75 -45 -75 -34 0 10 67 49 85 49 6 0 1 -7 -10 -15z m47 -65 c-51
-47 -95 -69 -109 -55 -4 4 2 16 14 27 25 25 136 88 143 82 3 -3 -19 -27 -48
-54z m269 14 c-10 -20 -47 -53 -58 -53 -4 0 8 16 27 35 38 39 45 43 31 18z
m119 -51 c0 -26 -74 -95 -96 -90 -16 3 -11 12 30 56 52 55 66 63 66 34z m40
-68 c0 -9 24 -41 54 -72 29 -31 59 -67 65 -79 16 -31 33 -29 25 2 -8 34 2 32
21 -5 14 -27 14 -29 -2 -23 -13 5 -15 2 -10 -11 4 -10 7 -21 7 -26 0 -5 8 -10
17 -12 14 -3 10 -11 -22 -47 l-39 -43 -46 49 c-25 28 -62 70 -82 94 -20 24
-50 59 -67 78 l-31 34 45 44 c43 43 65 48 65 17z m75 -54 c3 -5 1 -10 -4 -10
-6 0 -11 5 -11 10 0 6 2 10 4 10 3 0 8 -4 11 -10z m-315 -15 c-19 -22 -102
-75 -119 -75 -21 0 -2 18 62 57 57 35 76 41 57 18z m473 -195 c-5 -19 -81 -90
-97 -90 -16 0 -3 24 35 65 45 48 71 59 62 25z m-683 -99 c5 -11 6 -22 2 -25
-11 -6 -52 21 -52 35 0 17 39 9 50 -10z m680 5 c0 -2 -8 -10 -17 -17 -16 -13
-17 -12 -4 4 13 16 21 21 21 13z m-586 -28 c32 -46 5 -67 -34 -28 -11 11 -20
27 -20 35 0 23 37 18 54 -7z m395 -14 c-33 -40 -139 -96 -139 -73 0 7 136 88
149 89 2 0 -2 -7 -10 -16z m221 -19 c-7 -8 -17 -15 -22 -15 -6 0 -5 7 2 15 7
8 17 15 22 15 6 0 5 -7 -2 -15z m105 -32 c-21 -34 -65 -72 -82 -73 -24 0 -13
25 33 74 33 35 48 46 56 38 8 -8 6 -19 -7 -39z m-890 5 c0 -9 -30 -49 -67 -88
-69 -72 -80 -90 -53 -90 8 0 15 5 15 10 0 6 7 10 15 10 23 0 18 -17 -17 -63
-55 -71 -121 -137 -139 -137 -9 0 -24 11 -33 25 -20 30 -7 59 37 78 29 13 34
22 15 30 -8 3 -6 6 5 6 9 1 17 7 17 14 0 7 13 28 28 47 16 19 35 46 42 59 7
14 28 47 48 73 28 40 39 49 61 46 16 -2 26 -9 26 -20z m87 -5 c25 -22 24 -53
-2 -53 -21 0 -45 43 -34 61 8 13 15 11 36 -8z m-499 -83 c6 -25 -9 -36 -26
-18 -19 21 -19 38 2 38 10 0 21 -9 24 -20z m-96 -11 c-19 -11 -55 0 -37 11 7
4 21 5 32 2 17 -4 18 -6 5 -13z m287 -9 c-15 -30 -37 -39 -49 -20 -4 6 -11 8
-16 4 -5 -3 -26 -8 -46 -10 -32 -4 -34 -3 -23 11 7 9 19 14 26 11 8 -3 17 2
22 10 7 13 13 13 37 2 24 -11 29 -10 39 5 18 29 25 19 10 -13z m900 -21 c-36
-36 -112 -74 -123 -63 -8 8 26 36 85 70 78 44 87 43 38 -7z m-474 16 c11 -13
10 -14 -5 -8 -15 5 -17 3 -12 -11 5 -12 3 -16 -5 -13 -7 2 -22 -3 -33 -12
l-20 -16 20 25 c11 13 25 30 30 37 13 15 10 16 25 -2z m33 -47 c4 -10 7 -10
18 0 7 6 26 12 41 12 26 0 28 -2 18 -20 -6 -11 -15 -20 -21 -20 -6 0 -7 5 -3
11 4 8 -1 9 -17 4 -31 -9 -31 -9 -51 -1 -10 5 -18 12 -18 17 0 14 28 11 33 -3z
m964 -24 c-3 -3 -12 -4 -19 -1 -8 3 -5 6 6 6 11 1 17 -2 13 -5z m1020 -87 c60
-2 59 -14 -5 -44 -118 -56 -265 -142 -309 -179 -32 -28 -50 -38 -55 -30 -6 8
-8 8 -8 -1 0 -22 23 -26 39 -7 27 32 142 102 252 152 57 26 131 62 163 80 33
17 64 32 69 32 11 0 4 -366 -7 -390 -7 -14 -72 -63 -303 -225 -51 -36 -106
-68 -122 -71 -21 -5 -27 -11 -24 -24 7 -25 -32 -32 -114 -21 -37 5 -149 12
-248 16 -471 17 -1318 71 -1645 105 -107 12 -282 24 -387 27 -125 4 -193 10
-193 16 0 13 225 236 290 288 34 27 57 38 94 42 39 4 54 11 69 31 16 22 24 25
55 21 20 -3 78 -1 127 3 62 7 76 10 45 11 -25 1 -54 6 -65 11 -29 12 212 12
310 0 44 -5 152 -12 240 -15 88 -3 221 -8 295 -11 74 -3 130 -2 124 3 -6 4
-11 23 -11 41 0 45 32 65 106 67 31 2 85 6 121 10 36 5 115 10 175 11 113 2
224 10 285 19 102 15 350 23 368 11 6 -3 31 1 56 9 26 9 50 14 55 11 4 -3 21
-1 37 3 16 5 38 7 49 4 12 -2 44 -5 72 -6z m-2589 -69 c17 -17 15 -28 -6 -28
-19 0 -42 18 -42 32 0 12 35 9 48 -4z m99 -63 c-6 -15 -9 -15 -31 2 -31 23
-41 44 -24 54 18 12 63 -34 55 -56z m-97 -61 c0 -8 -4 -14 -9 -14 -5 0 -64
-55 -133 -122 -68 -68 -180 -177 -249 -244 -68 -66 -129 -127 -135 -135 -6 -8
-39 -39 -74 -69 -34 -30 -122 -113 -194 -185 -143 -140 -193 -187 -182 -167 4
7 2 12 -5 12 -6 0 25 37 70 81 45 45 85 87 89 94 4 7 35 44 70 82 91 99 97
105 116 136 12 19 23 27 33 22 12 -4 53 32 142 122 141 143 357 343 369 343
15 0 37 52 34 78 l-4 25 31 -22 c17 -12 31 -29 31 -37z m-472 -354 c-7 -11
-19 -22 -28 -25 -8 -4 -4 5 9 19 29 31 36 33 19 6z m3281 -67 c7 -275 -10
-499 -46 -605 -16 -46 -18 -47 -92 -74 -42 -15 -98 -33 -126 -40 -27 -7 -111
-33 -185 -57 -74 -25 -198 -64 -275 -87 -77 -24 -144 -47 -149 -51 -6 -5 -18
-9 -28 -9 -10 0 -18 -4 -18 -8 0 -27 -228 -63 -350 -56 -47 3 -132 14 -190 24
-58 10 -168 26 -245 35 -177 20 -263 32 -345 49 -36 8 -101 19 -145 26 -84 12
-166 27 -355 66 -106 21 -321 59 -770 134 -281 48 -265 34 30 -25 96 -19 193
-42 215 -50 22 -8 110 -34 195 -59 85 -25 193 -56 240 -70 47 -13 180 -50 295
-80 356 -95 495 -136 545 -161 45 -23 51 -24 88 -11 82 29 317 67 1167 186
154 22 327 47 385 55 95 15 105 15 116 0 20 -28 37 -205 36 -380 -1 -207 -5
-223 -57 -241 -35 -12 -294 -59 -465 -85 -30 -4 -86 -13 -125 -19 -38 -6 -81
-12 -95 -14 -14 -2 -68 -11 -120 -21 -52 -9 -106 -18 -120 -20 -14 -3 -61 -10
-105 -16 -44 -6 -111 -17 -150 -24 -107 -21 -159 -26 -293 -27 -81 -1 -127 3
-134 10 -7 7 -30 12 -52 12 -23 0 -70 7 -106 16 -67 15 -77 18 -340 103 -85
27 -211 66 -280 86 -69 20 -181 53 -250 75 -69 21 -159 48 -200 60 -271 79
-738 240 -780 270 -26 19 -28 24 -19 42 16 30 39 191 38 268 0 56 -2 61 -11
37 -5 -16 -20 -39 -33 -53 -22 -24 -28 -25 -125 -22 l-101 3 105 108 c59 60
111 107 117 105 7 -2 19 -23 29 -47 11 -30 19 -39 23 -28 12 30 -16 87 -42 87
-18 0 -13 13 16 45 114 125 433 465 456 485 25 23 36 26 115 26 48 0 67 -2 42
-4 -77 -8 256 -57 645 -96 l50 -5 -50 9 c-27 6 -80 15 -117 21 -38 6 -68 14
-68 18 0 12 462 4 790 -13 422 -23 759 -49 855 -67 127 -24 219 -20 360 17 71
19 185 46 253 60 68 14 131 29 140 34 9 5 56 21 104 35 48 15 89 33 92 41 9
24 14 16 15 -23z m-3346 -8 c-28 -34 -43 -44 -43 -26 0 9 57 61 66 61 3 0 -8
-16 -23 -35z m-643 -580 c-7 -9 -15 -13 -18 -10 -3 2 1 11 8 20 7 9 15 13 18
10 3 -2 -1 -11 -8 -20z m-46 -50 c-15 -23 -34 -33 -34 -18 0 10 32 43 42 43 5
0 1 -11 -8 -25z m-44 -39 c0 -8 -4 -16 -9 -18 -12 -4 -346 -324 -513 -491
-128 -128 -149 -141 -165 -101 -4 11 6 28 33 53 75 69 239 218 274 247 19 16
67 60 107 98 40 38 84 77 96 85 26 17 27 19 107 91 58 53 70 59 70 36z m4060
-156 c0 -5 -7 -10 -15 -10 -8 0 -15 5 -15 10 0 6 7 10 15 10 8 0 15 -4 15 -10z
m-6630 -45 c19 -17 40 -20 40 -5 0 6 7 10 15 10 8 0 15 5 15 10 0 17 106 12
120 -5 7 -8 9 -15 5 -15 -4 0 -2 -6 4 -14 9 -11 9 -16 0 -21 -8 -6 -7 -10 2
-16 22 -14 69 -10 86 6 17 18 11 45 -11 45 -12 0 -31 29 -24 35 2 1 49 0 106
-4 57 -3 111 -3 120 0 22 8 751 11 775 3 9 -3 15 -10 12 -15 -4 -5 5 -9 19 -9
16 0 26 6 26 15 0 12 65 14 460 15 267 0 460 -3 460 -9 0 -5 -19 -26 -42 -46
-24 -21 -90 -84 -148 -140 l-105 -102 -275 3 c-151 2 -527 6 -835 10 -308 3
-595 5 -637 4 -65 -1 -78 1 -78 14 0 11 -11 16 -37 18 -59 2 -75 -1 -117 -23
-35 -18 -44 -19 -83 -8 -24 6 -62 9 -85 6 -25 -3 -70 2 -117 14 -85 21 -148
24 -153 8 -2 -6 -14 -5 -33 5 -17 9 -38 16 -48 16 -10 0 -33 15 -52 34 l-34
35 27 4 c80 15 198 0 135 -16 -11 -3 -7 -5 10 -6 17 -1 26 3 22 9 -3 6 5 10
18 10 14 0 28 -7 31 -16 3 -8 10 -13 15 -9 5 3 29 1 52 -4 37 -8 50 -6 90 13
28 13 71 23 104 25 32 1 67 7 79 12 13 5 -91 8 -274 8 -379 -1 -342 -3 -339
24 2 12 0 27 -4 34 -4 7 5 15 24 22 37 13 53 6 46 -20 -3 -11 -1 -20 4 -20 5
-1 13 -2 18 -3 5 0 13 -4 17 -8 11 -12 52 -10 76 3 20 11 20 12 -7 35 -20 17
-24 25 -14 28 48 15 70 15 98 -2 31 -17 40 -32 20 -32 -5 0 -7 -4 -4 -10 3 -5
24 -10 47 -10 34 0 38 2 29 14 -17 20 -3 25 58 18 39 -3 55 -9 58 -22 3 -12
14 -16 41 -14 20 1 49 2 65 3 35 1 35 20 -1 33 -15 6 -32 21 -38 32 -10 22
-10 22 60 14 39 -5 78 -15 86 -23z m2920 18 c31 -6 42 -23 15 -23 -8 0 -15 -4
-15 -10 0 -5 7 -10 16 -10 8 0 13 -4 9 -9 -3 -5 -1 -12 5 -16 5 -3 10 -12 10
-19 0 -10 -20 -15 -65 -18 -50 -3 -68 -9 -79 -23 -8 -11 -10 -21 -5 -23 13 -5
11 -30 -3 -35 -7 -2 1 -8 17 -12 38 -10 65 -33 65 -56 0 -16 -16 -18 -196 -21
-108 -2 -219 -1 -246 1 l-50 3 24 25 c36 39 67 50 160 58 55 5 92 13 99 21 14
18 0 18 -35 2 -21 -9 -29 -8 -45 6 -10 9 -21 13 -22 8 -5 -13 -59 -25 -59 -13
0 5 37 49 83 96 l82 87 103 -7 c57 -3 116 -8 132 -12z m-3170 -2 c35 -10 10
-22 -29 -15 -17 4 -31 10 -31 15 0 10 24 10 60 0z m6500 -17 c-36 -7 -76 -13
-90 -13 -46 -1 7 21 69 29 82 9 96 -2 21 -16z m-1792 -29 c79 -13 483 -72 707
-104 62 -9 48 -16 -80 -36 -117 -19 -204 -19 -260 -1 -22 8 -76 23 -120 35
-215 56 -381 106 -394 117 -9 8 55 3 147 -11z m-5088 -159 c0 -14 -41 -26 -87
-26 -39 0 -21 24 23 31 62 10 64 10 64 -5z m675 -46 c-3 -5 -15 -10 -25 -10
-10 0 -22 5 -25 10 -4 6 7 10 25 10 18 0 29 -4 25 -10z m-612 -57 c-7 -2 -21
-2 -30 0 -10 3 -4 5 12 5 17 0 24 -2 18 -5z m3592 -17 c22 -11 49 -20 60 -22
29 -4 184 -64 190 -74 3 -5 -8 -11 -25 -15 -16 -4 -30 -10 -30 -14 0 -9 83
-21 143 -21 30 0 40 -4 44 -20 3 -11 10 -20 17 -20 6 0 -9 -9 -33 -20 -31 -15
-47 -17 -56 -10 -9 8 -15 8 -20 0 -3 -5 0 -12 7 -14 40 -13 43 -14 23 -15 -17
-1 -17 -3 -5 -11 20 -13 77 -13 85 0 3 5 -1 10 -9 10 -8 0 -17 4 -20 9 -8 13
212 7 225 -6 6 -6 9 -18 7 -28 -3 -14 -20 -17 -131 -19 -100 -2 -132 0 -143
11 -12 13 -15 12 -20 -1 -4 -11 -19 -16 -51 -16 -27 0 -42 -4 -38 -10 10 -16
-132 -16 -149 0 -5 5 -18 4 -30 -2 -15 -8 -179 -13 -555 -16 -497 -4 -533 -3
-527 13 3 9 6 21 6 26 0 5 13 9 28 9 21 0 44 16 93 65 36 35 108 103 160 150
l94 85 310 -3 c279 -2 314 -4 350 -21z m-3430 -33 c-15 -33 -115 -61 -115 -33
0 6 10 10 21 10 17 0 19 3 10 14 -16 19 5 31 56 31 37 0 38 -1 28 -22z m93
-54 c-2 -6 -8 -10 -13 -10 -5 0 -11 4 -13 10 -2 6 4 11 13 11 9 0 15 -5 13
-11z m-133 -9 c3 -5 -1 -10 -10 -10 -9 0 -13 5 -10 10 3 6 8 10 10 10 2 0 7
-4 10 -10z m2293 -87 c6 -19 -28 -29 -39 -12 -5 8 -9 18 -9 22 0 13 43 3 48
-10z m-48 -48 c0 -16 -27 -57 -47 -70 -22 -15 -23 -14 -23 6 0 23 38 69 58 69
6 0 12 -2 12 -5z m-1845 -55 c18 -8 17 -9 -7 -9 -15 -1 -30 4 -33 9 -7 12 12
12 40 0z m-300 -30 c3 -6 -4 -10 -17 -10 -18 0 -20 2 -8 10 19 12 18 12 25 0z
m3965 0 c0 -5 -4 -10 -10 -10 -5 0 -10 5 -10 10 0 6 5 10 10 10 6 0 10 -4 10
-10z m-3106 -88 c3 -5 -8 -22 -24 -37 -39 -38 -61 -21 -24 18 26 28 39 33 48
19z m80 2 c9 -3 16 -10 16 -14 0 -8 -72 -40 -90 -40 -21 0 -9 30 18 43 33 18
36 19 56 11z m3417 -26 c6 -25 5 -28 -18 -28 -36 0 -52 20 -44 56 0 3 13 4 28
2 19 -2 29 -10 34 -30z m-3364 7 c7 -20 -2 -29 -21 -22 -9 4 -13 13 -10 22 8
19 23 19 31 0z m1960 9 c-3 -3 -12 -4 -19 -1 -8 3 -5 6 6 6 11 1 17 -2 13 -5z
m320 -23 c2 -18 0 -22 -13 -17 -8 3 -19 6 -24 6 -5 0 -8 9 -7 20 2 30 39 22
44 -9z m241 17 c-5 -15 -78 -24 -78 -10 0 16 13 22 48 22 22 0 32 -4 30 -12z
m902 -4 c0 -2 -7 -4 -15 -4 -8 0 -15 4 -15 10 0 5 7 7 15 4 8 -4 15 -8 15 -10z
m-3346 -18 c-3 -9 -13 -16 -22 -16 -13 0 -12 3 3 20 20 23 29 21 19 -4z m816
14 c0 -13 -28 -25 -38 -16 -3 4 0 11 8 16 20 13 30 12 30 0z m1300 2 c0 -15
-11 -21 -27 -15 -12 5 -12 7 -1 14 17 11 28 11 28 1z m-1558 -14 c-17 -8 -26
-8 -34 0 -9 9 -4 12 23 11 32 0 33 -1 11 -11z m168 2 c0 -5 -5 -10 -11 -10 -5
0 -7 5 -4 10 3 6 8 10 11 10 2 0 4 -4 4 -10z m143 3 c-7 -2 -19 -2 -25 0 -7 3
-2 5 12 5 14 0 19 -2 13 -5z m-1677 -14 c3 -6 -1 -18 -9 -27 -14 -13 -20 -14
-44 -2 -25 12 -26 14 -8 18 11 2 24 8 30 13 12 12 22 11 31 -2z m254 -20 c0
-16 -7 -19 -40 -19 -48 0 -51 11 -7 32 37 18 47 15 47 -13z m240 21 c0 -5 -4
-10 -10 -10 -5 0 -10 5 -10 10 0 6 5 10 10 10 6 0 10 -4 10 -10z m655 -7 c18
-14 18 -15 2 -9 -10 3 -25 6 -33 6 -9 0 -12 5 -9 10 8 14 16 12 40 -7z m3005
-3 c0 -5 -7 -10 -15 -10 -8 0 -15 5 -15 10 0 6 7 10 15 10 8 0 15 -4 15 -10z
m-3700 -20 c0 -22 -7 -25 -29 -11 -16 10 -6 31 15 31 8 0 14 -9 14 -20z m900
10 c0 -5 -7 -10 -16 -10 -8 0 -12 5 -9 10 3 6 10 10 16 10 5 0 9 -4 9 -10z
m1102 -12 c-7 -7 -12 -8 -12 -2 0 14 12 26 19 19 2 -3 -1 -11 -7 -17z m-2654
-6 c2 -7 -3 -12 -11 -12 -9 0 -18 -6 -21 -12 -5 -10 -7 -10 -12 0 -3 6 -14 12
-24 12 -25 0 -35 17 -13 23 30 8 76 2 81 -11z m528 9 c-10 -16 -46 -20 -46 -5
0 8 10 14 26 14 14 0 23 -4 20 -9z m206 -8 c4 -2 2 -15 -4 -28 -12 -27 -55
-37 -45 -11 3 8 -1 17 -10 20 -14 6 -14 8 3 20 16 12 32 12 56 -1z m148 7 c0
-5 -5 -10 -11 -10 -5 0 -7 5 -4 10 3 6 8 10 11 10 2 0 4 -4 4 -10z m-1210 -10
c0 -5 -5 -10 -11 -10 -5 0 -7 5 -4 10 3 6 8 10 11 10 2 0 4 -4 4 -10z m571 -5
c-2 -12 -47 -26 -55 -17 -7 6 35 31 47 28 5 -1 8 -6 8 -11z m739 1 c-6 -8 -18
-12 -26 -9 -19 7 -7 23 18 23 17 0 18 -3 8 -14z m-1260 -26 c0 -5 -6 -10 -14
-10 -8 0 -18 5 -21 10 -3 6 3 10 14 10 12 0 21 -4 21 -10z m-20 -30 c0 -5 -5
-10 -11 -10 -5 0 -7 5 -4 10 3 6 8 10 11 10 2 0 4 -4 4 -10z m586 -15 c-25
-39 -12 -48 55 -41 l59 6 0 -28 c0 -19 -3 -23 -9 -13 -6 8 -32 14 -76 15 -60
2 -69 5 -76 24 -5 12 -14 22 -20 22 -7 0 -5 8 6 20 10 11 31 20 48 20 29 0 29
0 13 -25z m5454 5 c0 -5 -4 -10 -9 -10 -6 0 -13 5 -16 10 -3 6 1 10 9 10 9 0
16 -4 16 -10z m-5385 -13 c11 -12 7 -13 -23 -11 -21 2 -39 3 -42 4 -10 1 25
20 38 20 7 0 19 -6 27 -13z m-605 -13 c0 -8 -5 -12 -10 -9 -6 4 -8 11 -5 16 9
14 15 11 15 -7z m405 9 c-11 -3 -25 -9 -32 -15 -7 -5 -13 -5 -17 0 -9 15 5 22
38 21 21 -1 25 -3 11 -6z m-135 -18 c-10 -12 -7 -15 17 -20 15 -4 35 -9 43
-13 24 -9 -27 -15 -66 -7 -39 7 -44 27 -11 43 30 14 31 14 17 -3z m-220 -46
c0 -18 5 -21 30 -17 17 3 30 1 30 -4 0 -4 0 -11 0 -15 0 -4 -26 -7 -57 -7 -57
1 -82 17 -44 29 12 3 21 13 21 21 0 8 5 14 10 14 6 0 10 -10 10 -21z m75 11
c3 -6 -4 -10 -17 -10 -18 0 -20 2 -8 10 19 12 18 12 25 0z m-170 -10 c3 -5 1
-10 -4 -10 -6 0 -11 5 -11 10 0 6 2 10 4 10 3 0 8 -4 11 -10z m894 4 c21 -5
31 -12 31 -25 0 -11 6 -19 13 -20 6 -1 1 -4 -13 -9 -17 -5 -29 -3 -36 7 -10
12 -45 22 -92 25 -17 2 -2 15 23 21 31 7 40 7 74 1z m357 -2 c6 -4 16 -16 22
-28 10 -18 8 -23 -14 -33 -29 -13 -46 -7 -37 14 3 10 -2 15 -16 15 -12 0 -21
-4 -21 -10 0 -5 -18 -10 -41 -10 -24 0 -38 4 -34 10 3 6 19 10 36 10 43 0 35
20 -8 21 -31 0 -34 2 -18 9 25 11 116 12 131 2z m91 -8 c13 -4 20 -11 17 -19
-8 -20 34 -39 52 -24 16 13 30 6 20 -9 -9 -16 -58 -21 -78 -8 -14 8 -20 8 -27
-2 -6 -10 -10 -9 -14 7 -2 11 0 22 7 24 8 3 7 9 -3 20 -14 18 -9 20 26 11z
m-897 -14 c0 -5 -12 -10 -26 -10 -14 0 -23 4 -19 10 3 6 15 10 26 10 10 0 19
-4 19 -10z m210 -9 c19 -5 27 -9 17 -10 -10 0 -15 -5 -12 -11 3 -6 -3 -10 -14
-10 -12 0 -21 5 -21 11 0 6 -6 9 -14 6 -8 -3 -31 -9 -51 -13 l-36 -6 23 26
c18 20 29 25 48 21 14 -3 41 -10 60 -14z m-460 -11 c8 -16 8 -20 -3 -20 -8 0
-17 9 -20 20 -3 11 -1 20 4 20 4 0 13 -9 19 -20z m184 11 c4 -5 -3 -7 -14 -4
-23 6 -26 13 -6 13 8 0 17 -4 20 -9z m701 -11 c3 -5 -1 -10 -10 -10 -9 0 -13
5 -10 10 3 6 8 10 10 10 2 0 7 -4 10 -10z m-67 -7 c-10 -2 -26 -2 -35 0 -10 3
-2 5 17 5 19 0 27 -2 18 -5z m-1041 -9 c-3 -3 -12 -4 -19 -1 -8 3 -5 6 6 6 11
1 17 -2 13 -5z m86 -21 c-7 -2 -19 -2 -25 0 -7 3 -2 5 12 5 14 0 19 -2 13 -5z
m192 -3 c3 -5 1 -10 -4 -10 -6 0 -11 5 -11 10 0 6 2 10 4 10 3 0 8 -4 11 -10z"/>
<path d="M5268 2353 c12 -2 30 -2 40 0 9 3 -1 5 -23 4 -22 0 -30 -2 -17 -4z"/>
<path d="M5461 2346 c10 -8 129 -13 129 -5 0 5 -30 9 -67 9 -36 0 -64 -2 -62
-4z"/>
<path d="M5718 2333 c12 -2 32 -2 45 0 12 2 2 4 -23 4 -25 0 -35 -2 -22 -4z"/>
<path d="M5920 2324 c59 -8 138 -8 133 -1 -2 4 -39 6 -81 6 -42 -1 -66 -3 -52
-5z"/>
<path d="M6108 2313 c7 -3 16 -2 19 1 4 3 -2 6 -13 5 -11 0 -14 -3 -6 -6z"/>
<path d="M6218 2313 c7 -3 16 -2 19 1 4 3 -2 6 -13 5 -11 0 -14 -3 -6 -6z"/>
<path d="M6388 2303 c6 -2 18 -2 25 0 6 3 1 5 -13 5 -14 0 -19 -2 -12 -5z"/>
<path d="M6523 2293 c9 -2 23 -2 30 0 6 3 -1 5 -18 5 -16 0 -22 -2 -12 -5z"/>
<path d="M6665 2279 c57 -11 127 -11 120 1 -3 6 -41 9 -83 9 -68 -1 -72 -2
-37 -10z"/>
<path d="M5478 1743 c6 -2 18 -2 25 0 6 3 1 5 -13 5 -14 0 -19 -2 -12 -5z"/>
<path d="M5619 1727 c5 -5 21 -7 37 -5 27 3 26 4 -8 9 -22 3 -34 1 -29 -4z"/>
<path d="M5728 1713 c7 -3 16 -2 19 1 4 3 -2 6 -13 5 -11 0 -14 -3 -6 -6z"/>
<path d="M6180 1663 c0 -1 14 -10 31 -19 32 -16 79 -12 79 7 0 6 -7 8 -16 5
-8 -3 -13 -2 -10 2 2 4 -16 7 -40 7 -24 0 -44 -1 -44 -2z"/>
<path d="M3848 1313 c7 -3 16 -2 19 1 4 3 -2 6 -13 5 -11 0 -14 -3 -6 -6z"/>
<path d="M6205 990 c-3 -5 1 -10 9 -10 8 0 18 5 21 10 3 6 -1 10 -9 10 -8 0
-18 -4 -21 -10z"/>
<path d="M2260 1050 c0 -5 -9 -12 -20 -15 -40 -13 -18 -24 45 -22 36 1 65 5
65 9 0 5 -9 8 -19 8 -11 0 -22 4 -25 9 -8 12 -46 21 -46 11z"/>
<path d="M2040 1028 c-22 -10 -18 -12 45 -19 71 -8 86 -6 69 10 -16 15 -88 21
-114 9z"/>
<path d="M2473 1026 c-10 -11 -9 -15 3 -20 21 -8 34 1 27 19 -6 18 -14 18 -30
1z"/>
<path d="M771 1020 c-11 -6 -9 -10 7 -19 26 -14 55 -14 47 -1 -11 18 -41 29
-54 20z"/>
<path d="M780 951 c0 -16 40 -23 68 -12 15 5 36 12 47 14 11 3 -10 5 -47 6
-38 0 -68 -3 -68 -8z"/>
<path d="M708 923 c6 -2 18 -2 25 0 6 3 1 5 -13 5 -14 0 -19 -2 -12 -5z"/>
<path d="M1130 879 c0 -11 193 -20 204 -9 12 12 18 11 -107 13 -53 1 -97 -1
-97 -4z"/>
<path d="M3528 953 c7 -3 16 -2 19 1 4 3 -2 6 -13 5 -11 0 -14 -3 -6 -6z"/>
<path d="M4320 500 c0 -5 7 -10 16 -10 8 0 12 5 9 10 -3 6 -10 10 -16 10 -5 0
-9 -4 -9 -10z"/>
<path d="M1173 3243 c-29 -21 -82 -116 -88 -161 -7 -50 -57 -180 -87 -224 -10
-14 -18 -33 -18 -42 0 -9 -4 -16 -9 -16 -5 0 -16 -15 -25 -34 -9 -19 -27 -44
-41 -57 -13 -13 -25 -29 -25 -34 0 -6 -18 -30 -40 -54 -22 -23 -40 -51 -40
-61 0 -28 -22 -73 -42 -88 -10 -7 -18 -20 -18 -29 0 -9 -6 -24 -14 -32 -22
-24 -37 -99 -22 -114 6 -7 19 -24 28 -39 17 -26 30 -35 117 -79 51 -26 146
-30 226 -9 57 15 127 67 162 122 22 36 23 45 18 136 -6 96 -8 110 -39 207 -9
28 -16 58 -16 68 0 9 -4 25 -10 35 -19 34 -27 136 -13 170 7 18 18 32 23 32 6
0 10 5 10 12 0 7 11 24 25 38 85 85 93 101 86 180 -3 39 -42 72 -92 77 -24 2
-49 0 -56 -4z"/>
<path d="M3544 2434 c-18 -15 -18 -15 11 -9 17 3 46 10 65 14 l35 9 -46 1
c-28 1 -53 -5 -65 -15z"/>
<path d="M3688 2443 c6 -2 18 -2 25 0 6 3 1 5 -13 5 -14 0 -19 -2 -12 -5z"/>
<path d="M4273 2413 c9 -2 23 -2 30 0 6 3 -1 5 -18 5 -16 0 -22 -2 -12 -5z"/>
<path d="M3515 2060 c3 -5 8 -10 11 -10 2 0 4 5 4 10 0 6 -5 10 -11 10 -5 0
-7 -4 -4 -10z"/>
<path d="M3431 2051 c-8 -5 -15 -19 -16 -30 -1 -16 4 -20 22 -19 18 2 23 8 23
30 0 30 -6 33 -29 19z"/>
<path d="M0 1343 c0 -19 6 -22 43 -25 37 -3 42 -6 42 -28 0 -38 36 -38 57 0
16 28 21 30 54 24 20 -4 45 -15 55 -25 25 -25 52 -25 44 0 -5 16 1 20 34 26
49 8 78 0 91 -26 12 -22 45 -27 37 -5 -3 8 0 22 7 32 11 14 21 16 57 10 59 -9
100 -28 94 -43 -2 -7 3 -13 11 -13 10 0 14 6 10 15 -3 9 1 15 11 15 13 0 13 3
3 15 -11 13 5 15 131 15 79 0 151 -4 159 -10 9 -6 17 -5 22 3 3 6 24 10 45 10
47 -2 127 7 120 13 -3 4 -451 12 -994 18 -131 1 -133 1 -133 -21z"/>
<path d="M1376 1350 c9 -9 88 -12 308 -13 163 0 299 3 303 6 3 4 -56 7 -133 7
-76 0 -218 3 -314 6 -138 5 -173 4 -164 -6z"/>
<path d="M2233 1353 c9 -2 23 -2 30 0 6 3 -1 5 -18 5 -16 0 -22 -2 -12 -5z"/>
<path d="M1213 1343 c9 -2 23 -2 30 0 6 3 -1 5 -18 5 -16 0 -22 -2 -12 -5z"/>
<path d="M1288 1343 c7 -3 16 -2 19 1 4 3 -2 6 -13 5 -11 0 -14 -3 -6 -6z"/>
<path d="M815 1280 c-3 -5 1 -10 9 -10 9 0 16 5 16 10 0 6 -4 10 -9 10 -6 0
-13 -4 -16 -10z"/>
<path d="M7591 1016 c11 -10 89 -15 89 -6 0 5 -21 10 -47 10 -25 0 -44 -2 -42
-4z"/>
<path d="M915 721 c-9 -16 13 -23 35 -11 11 6 20 13 20 15 0 9 -49 5 -55 -4z"/>
<path d="M2415 720 c-3 -5 -2 -10 4 -10 5 0 13 5 16 10 3 6 2 10 -4 10 -5 0
-13 -4 -16 -10z"/>
<path d="M1440 711 c0 -17 30 -20 57 -6 l28 15 -42 0 c-24 0 -43 -4 -43 -9z"/>
<path d="M2088 713 c7 -3 16 -2 19 1 4 3 -2 6 -13 5 -11 0 -14 -3 -6 -6z"/>
<path d="M960 660 c-6 -11 -18 -20 -26 -20 -9 0 -14 -6 -12 -12 7 -19 98 -21
98 -3 0 8 -9 15 -19 15 -11 0 -23 5 -26 10 -3 6 1 10 9 10 8 0 18 5 21 10 3 6
-3 10 -14 10 -11 0 -25 -9 -31 -20z"/>
<path d="M1553 654 c-28 -32 -28 -34 -2 -34 12 0 19 5 16 13 -2 6 0 20 5 30
12 23 7 21 -19 -9z"/>
<path d="M665 630 c-16 -7 -14 -9 15 -10 19 0 55 -5 79 -11 55 -12 65 -4 18
16 -40 16 -81 18 -112 5z"/>
<path d="M855 620 c3 -5 10 -10 16 -10 5 0 9 5 9 10 0 6 -7 10 -16 10 -8 0
-12 -4 -9 -10z"/>
<path d="M2460 620 c20 -13 33 -13 25 0 -3 6 -14 10 -23 10 -15 0 -15 -2 -2
-10z"/>
<path d="M448 593 c6 -2 18 -2 25 0 6 3 1 5 -13 5 -14 0 -19 -2 -12 -5z"/>
<path d="M88 573 c7 -3 16 -2 19 1 4 3 -2 6 -13 5 -11 0 -14 -3 -6 -6z"/>
<path d="M650 539 c0 -5 5 -7 10 -4 6 3 10 8 10 11 0 2 -4 4 -10 4 -5 0 -10
-5 -10 -11z"/>
<path d="M828 543 c6 -2 18 -2 25 0 6 3 1 5 -13 5 -14 0 -19 -2 -12 -5z"/>
<path d="M380 520 c0 -5 9 -10 20 -10 11 0 20 5 20 10 0 6 -9 10 -20 10 -11 0
-20 -4 -20 -10z"/>
<path d="M483 523 c9 -2 25 -2 35 0 9 3 1 5 -18 5 -19 0 -27 -2 -17 -5z"/>
<path d="M668 513 c7 -3 16 -2 19 1 4 3 -2 6 -13 5 -11 0 -14 -3 -6 -6z"/>
<path d="M0 488 c0 -14 5 -18 16 -14 9 3 20 6 25 6 20 0 7 18 -16 22 -20 4
-25 1 -25 -14z"/>
<path d="M1055 480 c-3 -5 1 -10 10 -10 9 0 13 5 10 10 -3 6 -8 10 -10 10 -2
0 -7 -4 -10 -10z"/>
<path d="M1335 480 c-3 -5 -2 -10 4 -10 5 0 13 5 16 10 3 6 2 10 -4 10 -5 0
-13 -4 -16 -10z"/>
<path d="M4600 310 c13 -24 35 -27 26 -4 -3 9 -6 18 -6 20 0 2 -7 4 -15 4 -13
0 -14 -4 -5 -20z"/>
<path d="M4420 310 c0 -5 9 -10 21 -10 11 0 17 5 14 10 -3 6 -13 10 -21 10 -8
0 -14 -4 -14 -10z"/>
<path d="M4505 310 c-9 -14 40 -34 62 -26 17 7 17 8 -1 22 -23 16 -52 18 -61
4z"/>
<path d="M4104 288 c3 -13 6 -26 6 -30 0 -5 11 -8 24 -8 31 0 44 30 16 37 -11
3 -20 9 -20 14 0 5 -7 9 -16 9 -12 0 -15 -6 -10 -22z"/>
<path d="M4360 266 c0 -9 7 -16 16 -16 17 0 14 22 -4 28 -7 2 -12 -3 -12 -12z"/>
<path d="M4427 266 c-13 -32 42 -48 76 -21 18 13 18 14 -2 24 -28 15 -68 14
-74 -3z"/>
<path d="M4212 261 c4 -13 18 -16 19 -4 0 4 -5 9 -11 12 -7 2 -11 -2 -8 -8z"/>
<path d="M4538 248 c6 -6 18 -8 28 -6 14 3 12 5 -9 10 -19 3 -25 2 -19 -4z"/>
<path d="M2365 230 c3 -5 8 -10 11 -10 2 0 4 5 4 10 0 6 -5 10 -11 10 -5 0 -7
-4 -4 -10z"/>
<path d="M3210 230 c0 -5 7 -10 15 -10 8 0 15 5 15 10 0 6 -7 10 -15 10 -8 0
-15 -4 -15 -10z"/>
<path d="M930 206 c0 -2 7 -7 16 -10 8 -3 12 -2 9 4 -6 10 -25 14 -25 6z"/>
<path d="M1460 175 c0 -8 7 -15 15 -15 9 0 12 6 9 15 -4 8 -10 15 -15 15 -5 0
-9 -7 -9 -15z"/>
<path d="M2628 183 c0 -5 -1 -15 -2 -23 -1 -12 -26 -15 -161 -15 -147 0 -160
-1 -157 -17 2 -12 -4 -18 -17 -18 -11 0 -23 -5 -27 -11 -3 -6 -15 -9 -25 -6
-10 3 -21 1 -24 -3 -9 -14 31 -21 59 -10 15 5 39 10 53 10 18 0 24 4 19 15 -7
18 20 25 89 24 28 -1 97 0 155 1 86 1 100 3 76 12 -19 7 -24 13 -16 18 7 4 9
13 6 19 -8 13 -25 15 -28 4z"/>
<path d="M4015 180 c4 -6 11 -8 16 -5 14 9 11 15 -7 15 -8 0 -12 -5 -9 -10z"/>
<path d="M3187 158 c-8 -29 -5 -31 35 -23 26 6 29 9 15 14 -10 4 -18 11 -17
16 3 21 -28 15 -33 -7z"/>
<path d="M5068 173 c7 -3 16 -2 19 1 4 3 -2 6 -13 5 -11 0 -14 -3 -6 -6z"/>
<path d="M6288 173 c6 -2 18 -2 25 0 6 3 1 5 -13 5 -14 0 -19 -2 -12 -5z"/>
<path d="M6378 173 c7 -3 16 -2 19 1 4 3 -2 6 -13 5 -11 0 -14 -3 -6 -6z"/>
<path d="M6423 173 c9 -2 23 -2 30 0 6 3 -1 5 -18 5 -16 0 -22 -2 -12 -5z"/>
<path d="M4030 150 c0 -5 5 -10 11 -10 5 0 7 5 4 10 -3 6 -8 10 -11 10 -2 0
-4 -4 -4 -10z"/>
<path d="M4125 150 c3 -5 13 -10 21 -10 8 0 14 5 14 10 0 6 -9 10 -21 10 -11
0 -17 -4 -14 -10z"/>
<path d="M5435 150 c3 -5 8 -10 11 -10 2 0 4 5 4 10 0 6 -5 10 -11 10 -5 0 -7
-4 -4 -10z"/>
<path d="M6890 149 c-63 -4 -127 -7 -142 -8 -25 -1 -27 -3 -18 -25 8 -21 6
-26 -11 -31 -11 -4 -37 -4 -58 0 -30 5 -40 3 -44 -9 -5 -11 -20 -16 -53 -16
-55 0 -114 -19 -114 -36 0 -7 25 -14 61 -18 63 -7 85 -2 59 14 -12 8 -10 10 8
10 12 0 22 -4 22 -10 0 -14 27 -13 32 2 2 6 23 12 45 13 22 2 46 6 52 9 6 4
32 4 59 0 43 -6 46 -6 33 9 -7 10 -10 18 -5 18 5 1 32 3 61 4 28 2 62 9 74 16
29 15 156 22 164 9 3 -6 16 -9 28 -9 17 1 18 2 5 6 -10 2 -18 9 -18 14 0 5
108 9 263 9 152 0 268 4 277 10 19 12 30 12 -195 11 -298 -2 -357 -1 -366 4
-14 9 -99 10 -219 4z m28 -34 c2 -2 0 -5 -5 -8 -5 -3 -19 1 -33 9 l-25 14 30
-6 c17 -4 31 -8 33 -9z"/>
<path d="M2705 137 c-3 -7 0 -27 6 -43 7 -16 11 -35 10 -43 -2 -10 5 -12 26
-7 15 4 43 7 61 6 17 0 32 4 32 10 0 5 -9 10 -19 10 -10 0 -21 7 -25 15 -3 8
-14 15 -25 15 -13 0 -21 8 -23 22 -3 26 -35 37 -43 15z"/>
<path d="M2955 140 c-3 -5 1 -10 9 -10 9 0 16 5 16 10 0 6 -4 10 -9 10 -6 0
-13 -4 -16 -10z"/>
<path d="M3025 143 c-11 -3 -25 -13 -31 -21 -10 -14 -7 -19 18 -31 28 -14 32
-13 46 5 12 16 14 16 9 2 -4 -10 -2 -18 3 -18 17 0 11 -18 -7 -23 -10 -3 9 -5
42 -6 46 -1 56 2 47 11 -24 24 -11 31 51 25 39 -4 54 -3 41 3 -12 5 -25 13
-28 18 -3 6 -25 8 -49 6 -48 -4 -80 3 -72 17 4 5 1 9 -4 9 -6 0 -11 -5 -11
-11 0 -6 -7 -3 -16 5 -8 9 -16 15 -17 15 -1 -1 -11 -4 -22 -6z"/>
<path d="M6561 146 c7 -7 129 -10 136 -3 3 4 -27 7 -67 7 -40 0 -71 -2 -69 -4z"/>
<path d="M6413 133 c15 -2 37 -2 50 0 12 2 0 4 -28 4 -27 0 -38 -2 -22 -4z"/>
<path d="M4459 128 c-4 -13 -3 -58 1 -58 3 0 14 10 24 21 15 18 15 23 5 30
-14 8 -28 12 -30 7z"/>
<path d="M2365 110 c3 -5 8 -10 11 -10 2 0 4 5 4 10 0 6 -5 10 -11 10 -5 0 -7
-4 -4 -10z"/>
<path d="M2868 108 c-21 -6 -38 -14 -38 -20 0 -5 9 -7 19 -3 11 3 22 1 26 -5
5 -8 11 -8 21 1 8 6 17 9 21 5 3 -3 1 -6 -5 -6 -7 0 -12 -6 -12 -14 0 -18 77
-33 93 -17 8 8 2 12 -20 17 -19 4 -35 15 -42 30 -12 26 -10 26 -63 12z"/>
<path d="M5700 110 c0 -13 38 -32 58 -28 12 3 7 8 -17 21 -40 20 -41 20 -41 7z"/>
<path d="M1696 102 c-3 -3 -6 -9 -6 -14 0 -11 37 -10 44 1 6 10 -30 22 -38 13z"/>
<path d="M2475 90 c-29 -10 -2 -21 63 -27 51 -4 95 8 81 21 -8 8 -124 13 -144
6z"/>
<path d="M2957 89 c7 -7 15 -10 18 -7 3 3 -2 9 -12 12 -14 6 -15 5 -6 -5z"/>
<path d="M3386 91 c-19 -7 -18 -8 4 -14 26 -7 43 0 35 14 -7 10 -13 10 -39 0z"/>
<path d="M3765 90 c3 -5 20 -10 36 -10 18 0 28 4 24 10 -3 6 -20 10 -36 10
-18 0 -28 -4 -24 -10z"/>
<path d="M4961 96 c2 -2 22 -6 44 -10 29 -5 36 -4 25 3 -13 10 -79 16 -69 7z"/>
<path d="M2168 83 c7 -3 16 -2 19 1 4 3 -2 6 -13 5 -11 0 -14 -3 -6 -6z"/>
<path d="M2643 79 c14 -8 22 -8 30 0 8 8 3 11 -18 11 -26 -1 -28 -2 -12 -11z"/>
<path d="M6302 73 c2 -15 -5 -18 -37 -19 -29 0 -41 -5 -43 -17 -2 -9 -8 -17
-13 -17 -6 0 -7 -4 -4 -10 10 -16 124 -12 141 5 12 12 12 15 2 16 -7 0 -2 5
12 11 23 10 23 11 5 16 -11 2 -24 10 -28 18 -12 20 -38 17 -35 -3z m-42 -53
c0 -5 -4 -10 -9 -10 -6 0 -13 5 -16 10 -3 6 1 10 9 10 9 0 16 -4 16 -10z"/>
<path d="M6395 81 c-3 -5 4 -13 16 -16 28 -9 36 1 10 14 -12 7 -22 7 -26 2z"/>
<path d="M7066 82 c-7 -11 16 -22 46 -22 11 0 18 5 16 13 -5 15 -54 22 -62 9z"/>
<path d="M2373 67 c-9 -15 3 -17 43 -8 40 9 39 11 -9 15 -16 1 -31 -2 -34 -7z"/>
<path d="M7240 70 c0 -5 5 -10 10 -10 6 0 10 5 10 10 0 6 -4 10 -10 10 -5 0
-10 -4 -10 -10z"/>
<path d="M7358 65 c42 -13 82 -10 82 6 0 4 -28 8 -62 7 l-63 0 43 -13z"/>
<path d="M7450 70 c0 -5 14 -10 31 -10 17 0 28 4 24 10 -3 6 -17 10 -31 10
-13 0 -24 -4 -24 -10z"/>
<path d="M3628 53 c7 -3 16 -2 19 1 4 3 -2 6 -13 5 -11 0 -14 -3 -6 -6z"/>
<path d="M3698 53 c7 -3 16 -2 19 1 4 3 -2 6 -13 5 -11 0 -14 -3 -6 -6z"/>
<path d="M7141 46 l-24 -13 31 -11 c34 -11 42 -8 42 20 0 21 -16 23 -49 4z"/>
<path d="M7040 40 c8 -5 24 -10 35 -10 17 0 17 2 5 10 -8 5 -24 10 -35 10 -17
0 -17 -2 -5 -10z"/>
<path d="M7245 40 c-18 -8 -17 -9 8 -9 16 -1 26 3 22 9 -3 6 -7 10 -8 9 -1 0
-11 -4 -22 -9z"/>
<path d="M3176 31 c-10 -15 22 -20 34 -5 10 11 9 14 -8 14 -12 0 -23 -4 -26
-9z"/>
<path d="M7665 30 c-3 -5 -1 -10 4 -10 6 0 11 5 11 10 0 6 -2 10 -4 10 -3 0
-8 -4 -11 -10z"/>
<path d="M1977 24 c-15 -15 8 -24 61 -24 57 0 57 0 28 15 -29 15 -78 20 -89 9z"/>
<path d="M2590 20 c-12 -8 -12 -10 3 -16 20 -7 47 1 47 16 0 12 -30 13 -50 0z"/>
<path d="M2930 14 c0 -9 7 -14 17 -12 25 5 28 28 4 28 -12 0 -21 -6 -21 -16z"/>
<path d="M3465 20 c3 -5 8 -10 11 -10 2 0 4 5 4 10 0 6 -5 10 -11 10 -5 0 -7
-4 -4 -10z"/>
<path d="M5880 15 c0 -12 18 -15 108 -14 88 1 99 3 60 9 -26 5 -52 11 -58 15
-6 4 -25 1 -41 -5 -23 -10 -33 -10 -42 -1 -15 15 -27 14 -27 -4z"/>
<path d="M7285 10 c-3 -5 1 -10 10 -10 9 0 13 5 10 10 -3 6 -8 10 -10 10 -2 0
-7 -4 -10 -10z"/>
<path d="M668 3 c6 -2 18 -2 25 0 6 3 1 5 -13 5 -14 0 -19 -2 -12 -5z"/>
<path d="M1808 3 c18 -2 45 -2 60 0 15 2 0 4 -33 4 -33 0 -45 -2 -27 -4z"/>
</g>
</svg>
