<?xml version="1.0" standalone="no"?>
<!DOCTYPE svg PUBLIC "-//W3C//DTD SVG 20010904//EN"
 "http://www.w3.org/TR/2001/REC-SVG-20010904/DTD/svg10.dtd">
<svg version="1.0" xmlns="http://www.w3.org/2000/svg"
 width="768.000000pt" height="384.000000pt" viewBox="0 0 768.000000 384.000000"
 preserveAspectRatio="xMidYMid meet">

<g transform="translate(0.000000,384.000000) scale(0.100000,-0.100000)"
fill="#000000" stroke="none">
<path d="M0 3065 c0 -426 3 -775 7 -775 3 0 14 6 22 13 15 13 100 47 216 87
28 10 74 21 103 25 28 4 54 11 57 15 3 5 24 11 48 15 23 4 56 12 74 18 25 8
49 7 113 -7 45 -10 84 -15 87 -12 3 2 -44 94 -104 203 -61 109 -116 216 -123
238 -7 22 -17 46 -22 52 -12 14 -4 43 11 43 6 0 18 -14 26 -31 15 -27 20 -30
48 -23 18 3 34 8 36 10 9 9 -15 59 -28 59 -23 0 -24 23 -2 30 28 9 55 -8 80
-50 28 -48 27 -53 -11 -70 -18 -8 -27 -14 -20 -15 6 0 12 -7 12 -16 0 -8 16
-40 36 -70 19 -29 33 -58 30 -63 -3 -5 1 -12 10 -15 10 -4 13 -13 9 -27 -5
-15 -4 -19 4 -15 7 4 11 -1 11 -12 0 -11 9 -31 20 -45 11 -14 20 -32 20 -40 0
-9 9 -19 20 -22 14 -5 20 -15 20 -38 0 -29 1 -30 17 -15 15 16 14 19 -9 50
-52 69 -77 195 -31 157 14 -12 16 -12 11 1 -2 8 -19 16 -36 18 -32 3 -72 44
-72 74 0 7 -7 26 -15 42 -9 16 -14 30 -12 32 2 2 18 5 37 6 30 3 38 -2 69 -44
20 -26 83 -131 141 -232 58 -102 111 -186 118 -186 22 0 109 -88 149 -151 30
-46 44 -59 63 -59 97 -1 262 -22 319 -41 89 -30 168 -108 194 -190 21 -68 22
-177 3 -224 -12 -27 -13 -42 -4 -66 27 -77 -40 -302 -124 -420 -9 -13 -6 -26
10 -61 12 -24 22 -52 22 -61 0 -41 24 -67 74 -82 74 -22 112 -48 127 -89 l13
-36 443 0 c414 0 444 1 450 18 3 9 25 42 48 72 41 55 270 403 295 449 18 36
42 160 36 187 -5 18 3 33 30 64 40 44 51 47 93 25 28 -14 32 -13 112 35 139
83 336 177 474 226 118 41 152 48 360 75 307 39 598 79 600 82 177 277 414
498 672 626 68 34 126 61 129 61 3 0 82 37 174 81 l169 82 -27 51 c-37 71
-130 158 -216 200 -63 31 -192 80 -283 107 -18 6 -33 14 -33 19 0 4 -15 11
-32 15 -47 9 -88 26 -88 36 0 5 -7 9 -16 9 -8 0 -12 5 -9 10 3 6 -3 10 -14 10
-11 0 -23 5 -26 10 -4 6 -12 7 -18 4 -9 -5 -9 -4 -1 5 11 12 74 4 74 -10 0 -5
7 -6 15 -3 9 4 46 -1 83 -9 37 -9 99 -23 137 -32 39 -9 77 -18 85 -19 8 -2 28
-8 43 -15 35 -14 67 -14 67 -1 0 6 -13 10 -29 10 -17 0 -33 4 -36 10 -3 5 -17
10 -30 10 -19 0 -23 4 -18 17 5 13 2 15 -15 10 -13 -3 -28 1 -36 9 -8 8 -22
14 -30 14 -9 0 -16 5 -16 11 0 7 -10 9 -25 5 -19 -5 -28 -1 -41 18 -8 14 -26
28 -37 32 -12 4 -30 16 -39 26 -9 11 -22 17 -28 13 -5 -3 -13 1 -16 9 -3 8
-14 18 -24 21 -12 4 -17 12 -13 21 3 10 -5 18 -26 25 -21 8 -30 16 -27 25 3 8
9 21 12 29 3 8 1 15 -5 15 -6 0 -8 6 -5 14 3 8 -11 27 -33 45 l-38 31 -487 0
c-339 0 -488 -3 -488 -11 0 -15 19 -50 40 -74 10 -11 39 -63 65 -115 27 -52
56 -104 66 -115 31 -36 87 -149 98 -200 6 -27 9 -79 7 -115 -2 -38 2 -79 10
-98 7 -18 20 -68 28 -111 14 -70 32 -127 46 -141 55 -55 62 -69 47 -90 -11
-16 -16 -18 -20 -7 -3 9 -18 14 -39 13 -18 -1 -49 2 -68 7 -19 5 -45 8 -57 8
-14 -1 -23 5 -23 14 0 20 -38 57 -50 50 -6 -4 -10 -2 -10 4 0 5 10 12 23 14
17 3 16 5 -8 6 -34 1 -91 49 -106 88 -5 13 -13 22 -19 18 -18 -11 -59 7 -63
28 -2 12 -5 -8 -6 -45 0 -38 3 -68 8 -68 10 0 35 -52 45 -91 4 -20 -1 -33 -18
-52 -28 -30 -49 -115 -48 -193 0 -65 -12 -87 -33 -59 -9 11 -23 29 -32 39 -16
20 -16 20 -23 0 -12 -34 0 -93 21 -99 10 -4 23 -4 28 -1 16 10 36 -25 33 -58
-5 -51 -12 -66 -33 -66 -22 0 -48 50 -56 109 -4 33 -12 60 -32 116 -4 11 -26
59 -49 106 -23 48 -42 94 -42 103 0 40 -89 166 -117 166 -8 0 -16 7 -19 15 -4
8 -10 15 -16 15 -17 0 -35 25 -43 58 -3 18 -13 32 -20 32 -8 0 -12 6 -9 13 2
7 -9 25 -25 40 -27 24 -29 29 -20 59 5 18 18 45 28 59 10 14 51 90 91 169 39
80 82 163 95 185 13 22 36 71 50 108 14 38 34 86 45 107 11 22 20 44 20 50 0
7 -616 10 -1980 10 l-1980 0 0 -775z m5190 466 c0 -6 -4 -13 -10 -16 -5 -3
-10 1 -10 9 0 9 5 16 10 16 6 0 10 -4 10 -9z m-4702 -511 c-7 -10 -14 -17 -17
-15 -4 4 18 35 25 35 2 0 -1 -9 -8 -20z m3858 -217 c-7 -7 -26 7 -26 19 0 6 6
6 15 -2 9 -7 13 -15 11 -17z m-532 -184 c38 -30 35 -50 -6 -38 -40 11 -50 21
-42 42 8 22 16 21 48 -4z"/>
<path d="M5710 3400 c0 -5 5 -10 11 -10 5 0 7 5 4 10 -3 6 -8 10 -11 10 -2 0
-4 -4 -4 -10z"/>
<path d="M5756 3393 c-6 -14 -5 -15 5 -6 7 7 10 15 7 18 -3 3 -9 -2 -12 -12z"/>
<path d="M909 2515 c18 -33 38 -64 44 -70 5 -5 -5 17 -23 50 -18 33 -38 65
-43 70 -6 6 4 -17 22 -50z"/>
<path d="M829 2498 c0 -7 -2 -21 -4 -30 -2 -14 4 -18 25 -18 28 0 28 0 14 30
-16 31 -33 40 -35 18z"/>
<path d="M272 2353 c-60 -21 -75 -30 -88 -56 -9 -18 -33 -50 -53 -72 -20 -21
-27 -33 -16 -25 11 8 22 18 25 22 9 11 237 138 249 138 6 0 11 5 11 10 0 16
-49 9 -128 -17z"/>
<path d="M950 2320 c0 -5 -15 -9 -33 -8 -19 1 -40 -3 -47 -7 -9 -5 -11 -4 -6
3 19 31 -30 6 -91 -46 -63 -54 -98 -77 -114 -74 -4 1 -15 -8 -24 -18 -10 -11
-25 -20 -33 -20 -8 0 -30 -11 -48 -25 -18 -14 -42 -25 -53 -25 -11 0 -23 -5
-26 -11 -5 -7 -13 -5 -25 6 -17 15 -19 14 -40 -19 -12 -20 -28 -36 -37 -36 -8
0 -17 -9 -20 -19 -3 -11 -13 -21 -24 -24 -10 -3 -22 -13 -26 -24 -8 -22 -23
-33 -43 -32 -10 0 -8 3 5 9 15 7 16 9 4 9 -9 1 -22 -6 -29 -14 -12 -14 -7 -19
13 -16 5 1 6 -3 2 -9 -4 -7 -12 -7 -26 0 -10 6 -19 7 -19 2 0 -5 -21 -19 -46
-32 -25 -13 -59 -40 -77 -59 -17 -20 -35 -35 -39 -33 -5 1 -18 -2 -28 -8 -20
-10 -20 -25 -20 -629 l0 -619 123 -5 c67 -3 147 -10 177 -16 159 -31 461 -33
918 -5 72 5 112 3 112 -3 0 -5 29 0 64 11 54 18 61 23 47 33 -14 11 -14 12 -1
13 8 0 41 24 73 53 41 38 56 59 51 70 -3 10 -2 17 4 17 5 0 26 14 47 30 42 34
53 36 61 15 3 -8 22 -31 41 -51 19 -21 59 -68 89 -106 55 -69 92 -90 79 -45
-21 73 -185 430 -212 459 -11 13 -20 15 -34 8 -10 -6 -20 -10 -23 -10 -3 0 -3
33 0 74 6 66 5 75 -15 95 -27 27 -61 28 -61 2 0 -10 -8 -25 -17 -32 -10 -9
-14 -9 -10 -2 5 8 -12 32 -42 64 -47 48 -71 56 -71 23 0 -8 -5 -12 -11 -8 -6
3 -8 17 -5 30 9 35 -66 133 -103 134 -23 0 -128 61 -156 90 -39 41 -25 53 36
30 80 -32 124 -57 171 -97 24 -21 68 -49 97 -63 57 -26 71 -21 71 27 0 12 5
25 11 29 7 4 -3 20 -26 44 l-36 37 31 7 c18 3 42 3 54 0 20 -5 27 5 66 95 23
55 44 115 45 133 3 41 24 168 30 186 18 49 -57 171 -122 198 -52 22 -149 16
-196 -11 -16 -10 -16 -13 0 -54 15 -38 15 -54 4 -144 -11 -93 -29 -147 -49
-147 -4 0 -7 57 -6 127 l2 127 -38 40 c-21 23 -53 61 -71 86 -41 58 -178 192
-189 185 -5 -3 -20 -1 -34 5 -16 6 -26 6 -26 0z m-526 -453 c21 -3 47 -15 58
-27 10 -11 23 -20 28 -20 6 0 10 -6 10 -12 0 -13 -105 -69 -128 -68 -8 0 -27
-9 -42 -20 -16 -11 -31 -17 -33 -13 -3 5 -3 36 -2 70 2 50 7 68 26 87 13 14
28 21 34 17 5 -5 27 -11 49 -14z"/>
<path d="M77 2269 c-36 -19 -67 -62 -54 -75 13 -13 49 10 73 48 14 22 24 41
22 43 -2 2 -20 -6 -41 -16z"/>
<path d="M456 2255 c-3 -8 -1 -15 4 -15 6 0 10 7 10 15 0 8 -2 15 -4 15 -2 0
-6 -7 -10 -15z"/>
<path d="M6584 2224 c4 -27 1 -48 -10 -69 -68 -123 -112 -214 -146 -302 -22
-57 -43 -105 -48 -108 -5 -3 -20 -1 -35 5 -20 8 -27 7 -31 -5 -4 -8 -17 -15
-30 -15 -21 0 -24 5 -24 38 0 20 6 60 14 89 15 56 13 65 -12 55 -14 -5 -15 -4
-2 10 11 11 17 12 22 4 8 -12 9 -9 11 43 2 26 -2 35 -15 37 -20 3 -37 -20 -33
-45 1 -9 0 -10 -2 -3 -5 14 -23 16 -23 2 0 -5 -7 -10 -15 -10 -23 0 -18 15 11
30 l25 14 -22 8 c-12 5 -24 6 -27 3 -3 -3 1 -5 9 -5 8 0 6 -5 -7 -15 -19 -13
-25 -12 -60 5 -21 11 -42 24 -48 30 -6 6 -16 4 -29 -8 -19 -16 -20 -16 -15 6
4 12 3 22 -2 22 -4 0 -11 -10 -14 -22 l-7 -23 -10 24 c-9 23 -10 23 -37 6 -15
-10 -34 -24 -42 -31 -8 -7 -30 -26 -47 -41 -18 -15 -50 -62 -71 -103 -42 -82
-112 -207 -176 -313 -23 -37 -45 -76 -51 -85 -5 -10 -20 -31 -31 -47 -12 -17
-39 -61 -60 -100 -92 -169 -125 -233 -145 -277 l-22 -46 -121 4 c-67 2 -127 4
-133 4 -7 0 -13 11 -13 24 0 29 -21 35 -117 38 -55 1 -65 -1 -86 -24 -22 -23
-31 -26 -113 -27 -49 -1 -90 -5 -92 -10 -1 -4 -28 -4 -59 0 -122 17 -297 13
-316 -5 -8 -8 -23 -15 -33 -14 -11 0 -118 -3 -239 -7 l-221 -8 -12 -25 c-9
-19 -9 -28 -1 -33 25 -15 571 -39 1039 -45 l385 -5 80 -31 c58 -22 94 -43 130
-77 35 -33 63 -50 90 -55 21 -4 63 -25 94 -47 63 -45 94 -48 251 -24 111 17
335 39 572 56 l168 11 37 -28 c20 -15 62 -38 92 -50 88 -36 80 -70 -22 -106
-53 -18 -135 -69 -195 -120 -30 -25 -40 -28 -110 -28 -42 0 -114 4 -160 10
-46 5 -161 14 -255 20 -95 6 -187 16 -206 22 -19 6 -52 30 -75 54 -58 62 -88
63 -411 19 -60 -9 -240 -20 -400 -25 -159 -5 -334 -11 -387 -14 l-97 -4 -8 41
c-12 59 -38 57 -39 -3 0 -25 -1 -48 -2 -53 -3 -12 -42 32 -42 47 0 8 -4 18
-10 21 -5 3 -10 12 -10 18 0 7 7 4 14 -5 17 -24 26 -23 26 3 0 15 -6 20 -22
18 -13 -1 -30 1 -38 4 -8 3 -235 11 -505 17 l-490 12 -168 55 -168 55 -107 -4
c-98 -4 -120 -9 -260 -57 -126 -43 -172 -54 -255 -61 -114 -10 -567 -29 -754
-33 -87 -1 -124 -6 -127 -15 -3 -6 -13 -12 -22 -12 -10 0 -15 -3 -11 -6 3 -4
154 -7 334 -7 l328 0 -235 -7 c-129 -4 -279 -8 -333 -9 -91 -1 -99 -3 -104
-21 -8 -30 -29 -18 -25 13 2 15 1 31 -3 36 -9 16 -35 1 -35 -20 0 -38 -48 -49
-217 -49 -231 0 -510 12 -488 21 11 4 40 8 64 8 86 2 34 10 -94 16 -72 3 -152
10 -180 15 -79 15 -382 43 -374 35 7 -6 237 -43 339 -54 59 -6 71 -9 39 -10
-25 0 -117 8 -205 19 -217 27 -204 28 -204 -21 0 -40 0 -40 30 -34 17 4 30 4
30 0 0 -3 -13 -11 -30 -16 l-30 -11 0 -119 0 -119 33 -1 c86 -3 268 -2 524 5
225 5 283 4 283 -6 0 -9 3 -8 10 2 7 11 14 12 27 4 17 -10 72 -10 118 -1 11 3
25 2 30 -2 6 -3 30 -7 55 -7 184 -5 228 -9 253 -21 15 -7 27 -11 27 -7 0 4 6
1 13 -5 11 -8 19 -6 37 9 28 24 42 17 34 -16 -3 -13 -2 -24 4 -24 5 0 12 9 15
20 3 12 11 18 19 15 8 -3 33 -2 56 4 38 8 42 7 42 -11 0 -15 4 -18 18 -13 9 4
26 8 38 9 11 2 26 6 32 10 9 6 50 11 164 20 28 2 35 0 31 -11 -5 -13 -3 -13
16 -2 11 8 21 18 21 23 0 6 6 2 13 -7 14 -19 45 -17 57 3 7 11 11 11 23 1 10
-8 17 -8 21 -2 10 15 38 1 32 -16 -5 -11 -2 -11 17 -2 27 15 89 21 81 8 -3 -5
0 -9 5 -9 6 0 11 8 11 18 0 9 4 13 8 7 10 -14 28 -16 56 -5 17 6 26 5 30 -3 3
-9 7 -9 13 -1 12 16 49 11 73 -11 19 -17 20 -17 20 0 0 13 5 16 24 11 14 -3
28 -2 31 4 10 16 25 12 19 -5 -5 -13 -1 -13 35 0 38 13 41 13 41 -3 0 -11 3
-13 8 -6 4 6 36 12 72 13 36 1 92 3 125 4 33 1 66 6 73 11 8 5 18 4 23 -1 7
-7 24 -6 50 1 33 8 42 8 49 -4 6 -8 10 -10 10 -4 0 7 46 10 141 9 77 -1 142 2
145 7 3 4 15 3 27 -1 13 -5 30 -5 38 -1 17 10 38 8 56 -3 6 -4 14 -4 17 1 3 4
74 9 158 9 228 2 658 14 682 19 52 11 355 23 616 24 157 1 312 3 344 5 82 5
93 -2 63 -46 -30 -44 -87 -145 -87 -153 0 -3 20 -6 45 -6 39 0 45 3 45 21 0
70 90 128 266 174 129 33 260 33 482 0 183 -28 236 -41 254 -62 20 -25 -11
-40 -125 -62 -60 -12 -113 -24 -118 -27 -6 -3 -34 -14 -62 -25 -51 -18 -43
-18 861 -19 l912 0 0 234 0 234 -64 7 c-78 8 -162 29 -182 45 -22 19 -17 49
12 60 14 6 72 10 130 10 l104 0 0 328 0 329 -67 -3 c-38 -1 -129 -4 -203 -6
-74 -2 -138 -7 -141 -12 -14 -18 -39 43 -55 134 -17 100 -15 224 4 273 l12 27
137 1 c257 1 292 1 303 -6 7 -4 10 58 10 190 l0 196 -57 -5 c-32 -4 -116 -8
-188 -10 -107 -4 -132 -8 -142 -22 -11 -15 -13 -15 -23 10 -10 27 -5 131 10
177 12 38 1 48 -44 40 -35 -5 -40 -10 -51 -49 -7 -23 -18 -48 -23 -55 -6 -7
-24 -46 -40 -87 -16 -41 -35 -75 -41 -74 -6 1 -20 2 -31 3 -17 1 -19 6 -14 49
3 26 10 60 16 75 6 15 9 30 6 32 -3 3 -29 -2 -58 -12 -47 -15 -55 -15 -79 -2
-47 27 -35 68 32 109 l29 18 -38 12 c-26 9 -60 10 -118 4 -98 -10 -181 -10
-220 1 -28 8 -28 8 -22 -31z m-317 -266 c-3 -8 -6 -5 -6 6 -1 11 2 17 5 13 3
-3 4 -12 1 -19z m115 -340 c41 -33 21 -101 -23 -78 -20 11 -23 29 -13 68 7 25
14 27 36 10z m-70 -737 c13 -6 40 -12 61 -16 20 -3 37 -11 37 -17 0 -14 -209
-5 -236 10 -16 9 -16 12 -4 16 50 17 110 20 142 7z m835 -153 c-3 -11 0 -18
10 -18 8 0 38 -22 66 -49 29 -27 75 -60 102 -73 53 -25 69 -54 41 -77 -27 -23
-167 -91 -187 -91 -10 0 -52 18 -94 40 -52 27 -89 40 -116 40 -31 0 -47 7 -70
29 -16 16 -29 34 -29 40 0 5 26 25 58 45 74 45 100 72 84 88 -22 22 -12 37 26
43 20 4 48 10 62 14 30 10 53 -5 47 -31z m-4175 -127 c21 -7 42 -10 48 -6 5 3
10 2 10 -4 0 -6 16 -13 35 -17 19 -3 38 -10 41 -15 3 -5 14 -9 26 -9 11 0 34
-6 51 -14 18 -8 56 -20 85 -26 29 -7 52 -13 50 -15 -2 -1 -221 -5 -488 -8
-268 -3 -469 -2 -450 3 89 21 110 29 125 43 9 9 23 13 32 10 9 -4 21 0 27 9
12 16 81 42 93 35 5 -3 27 3 50 12 50 19 209 21 265 2z m1298 -102 c0 -5 -93
-8 -207 -8 -123 1 -196 5 -178 9 41 11 385 9 385 -1z m1350 -54 c0 -29 -15
-32 -56 -10 -30 15 -18 24 49 34 4 0 7 -10 7 -24z m-5077 -12 c-13 -2 -35 -2
-50 0 -16 2 -5 4 22 4 28 0 40 -2 28 -4z m4917 -98 c0 -8 -7 -15 -15 -15 -16
0 -20 12 -8 23 11 12 23 8 23 -8z m424 -8 c74 -20 111 -46 93 -63 -4 -4 -45
-7 -91 -6 -110 1 -188 36 -172 77 8 21 75 18 170 -8z m-991 -64 c-51 -2 -136
-2 -190 0 -54 1 -12 3 92 3 105 0 149 -2 98 -3z m-2958 -133 c3 -5 1 -10 -4
-10 -6 0 -11 5 -11 10 0 6 2 10 4 10 3 0 8 -4 11 -10z"/>
<path d="M0 2149 c0 -11 4 -17 10 -14 5 3 10 13 10 21 0 8 -4 14 -10 14 -5 0
-10 -9 -10 -21z"/>
<path d="M121 2009 c-79 -59 -126 -107 -117 -117 7 -6 99 29 120 47 22 19 89
121 83 127 -2 3 -41 -23 -86 -57z"/>
<path d="M3774 1781 c-39 -18 -84 -66 -84 -90 0 -6 19 -11 45 -11 33 0 50 6
66 23 25 27 42 66 35 84 -7 17 -13 16 -62 -6z"/>
<path d="M5235 1709 c-9 -14 -3 -19 31 -23 45 -5 117 8 122 22 5 16 -144 17
-153 1z"/>
<path d="M5061 1679 c-40 -16 -11 -27 57 -22 44 4 62 9 62 19 0 17 -81 18
-119 3z"/>
<path d="M4740 1623 c-51 -6 -62 -23 -14 -23 48 0 84 9 84 21 0 9 -6 9 -70 2z"/>
<path d="M3393 1610 c-23 -10 -46 -43 -36 -54 17 -17 88 2 105 28 22 33 -16
47 -69 26z"/>
<path d="M1602 1468 c-29 -55 -50 -103 -48 -105 7 -8 64 54 71 78 4 13 18 31
31 41 16 13 22 26 19 46 -2 15 -4 30 -4 35 -2 23 -22 -4 -69 -95z"/>
<path d="M5149 1549 c-38 -38 -22 -54 58 -57 68 -3 73 -1 89 22 27 43 13 56
-61 56 -52 0 -69 -4 -86 -21z"/>
<path d="M4938 1486 c-10 -7 -18 -21 -18 -31 0 -15 8 -17 64 -12 71 6 106 20
106 42 0 20 -127 20 -152 1z"/>
<path d="M4748 1439 c-24 -9 -47 -54 -33 -67 6 -7 102 -4 128 4 15 5 47 51 47
69 0 9 -113 4 -142 -6z"/>
<path d="M4584 1373 c-25 -2 -49 -12 -60 -24 -16 -17 -16 -21 -3 -35 12 -11
28 -13 73 -8 60 7 89 25 84 53 -3 17 -26 21 -94 14z"/>
<path d="M4352 1310 c-12 -5 -27 -21 -34 -35 -16 -36 2 -47 72 -39 62 7 90 26
90 61 0 21 -4 23 -52 22 -29 0 -63 -4 -76 -9z"/>
<path d="M4151 1241 c-8 -5 -11 -16 -8 -25 5 -12 20 -16 60 -16 52 0 77 12 77
37 0 15 -106 18 -129 4z"/>
<path d="M3975 1200 c-12 -19 7 -30 51 -30 49 0 88 15 79 31 -8 12 -122 12
-130 -1z"/>
<path d="M3835 1170 c-4 -6 12 -10 39 -10 25 0 46 5 46 10 0 6 -18 10 -39 10
-22 0 -43 -4 -46 -10z"/>
<path d="M4757 1152 c-40 -9 -8 -27 53 -30 54 -3 94 8 79 21 -7 7 -113 14
-132 9z"/>
<path d="M4940 1140 c0 -5 21 -10 48 -10 26 0 57 -3 70 -6 16 -5 22 -2 22 10
0 13 -12 16 -70 16 -40 0 -70 -4 -70 -10z"/>
<path d="M4595 1130 c-3 -5 3 -10 15 -10 12 0 18 5 15 10 -3 6 -10 10 -15 10
-5 0 -12 -4 -15 -10z"/>
<path d="M4100 1111 c-22 -4 -35 -12 -35 -21 0 -19 95 -26 127 -9 21 11 21 12
3 25 -20 15 -37 15 -95 5z"/>
<path d="M1754 985 c-3 -8 6 -40 20 -71 29 -63 48 -63 48 -1 0 59 -52 114 -68
72z"/>
<path d="M4320 540 c0 -5 4 -10 9 -10 6 0 13 5 16 10 3 6 -1 10 -9 10 -9 0
-16 -4 -16 -10z"/>
<path d="M798 433 c12 -2 30 -2 40 0 9 3 -1 5 -23 4 -22 0 -30 -2 -17 -4z"/>
</g>
</svg>
