<?xml version="1.0" standalone="no"?>
<!DOCTYPE svg PUBLIC "-//W3C//DTD SVG 20010904//EN"
 "http://www.w3.org/TR/2001/REC-SVG-20010904/DTD/svg10.dtd">
<svg version="1.0" xmlns="http://www.w3.org/2000/svg"
 width="768.000000pt" height="384.000000pt" viewBox="0 0 768.000000 384.000000"
 preserveAspectRatio="xMidYMid meet">

<g transform="translate(0.000000,384.000000) scale(0.100000,-0.100000)"
fill="#000000" stroke="none">
<path d="M2 3298 l3 -542 165 -68 c91 -38 244 -102 340 -144 96 -41 193 -83
215 -92 36 -15 123 -66 368 -216 68 -42 84 -47 120 -44 31 4 55 -2 89 -19 26
-12 56 -23 67 -23 19 0 35 30 31 63 -1 9 3 17 8 17 5 0 17 17 28 38 28 55 104
162 115 162 6 0 7 5 4 10 -3 6 -2 10 4 10 23 0 204 193 285 304 40 56 47 64
78 93 15 14 25 30 22 34 -3 5 3 9 13 9 15 0 16 2 3 10 -11 7 -11 10 -2 10 7 0
11 4 7 9 -3 5 -1 12 5 16 36 22 -14 47 -113 57 -23 3 -28 25 -16 73 6 22 11
46 11 53 1 6 5 12 10 12 4 0 8 5 8 12 0 6 6 19 14 27 8 9 34 54 57 101 23 47
49 96 59 110 35 49 220 420 220 440 l0 20 -1110 0 -1110 0 2 -542z"/>
<path d="M2904 3821 c9 -10 15 -29 14 -42 -2 -18 5 -28 32 -41 38 -19 62 -10
41 16 -10 12 -8 16 9 21 22 7 50 -9 50 -29 0 -6 9 -19 20 -29 11 -9 20 -24 20
-32 0 -8 8 -15 17 -15 15 0 14 -2 -3 -15 -10 -8 -16 -15 -11 -16 4 -1 12 -3
17 -4 6 -1 15 -3 20 -4 6 0 10 -12 10 -26 0 -38 24 -44 145 -33 112 11 134 20
109 45 -8 8 -14 19 -14 26 0 6 7 2 15 -9 14 -18 14 -18 15 4 0 13 4 21 9 18 4
-3 17 4 27 16 37 41 67 45 335 47 l256 1 39 -26 c21 -15 62 -45 89 -69 81 -68
126 -92 197 -106 61 -11 76 -11 162 9 165 38 192 29 190 -65 -1 -29 1 -53 5
-53 3 0 26 12 50 26 54 30 241 94 278 94 43 0 106 -36 178 -103 78 -71 125
-155 125 -224 0 -23 8 -64 19 -90 46 -119 37 -166 -39 -206 -30 -15 -60 -32
-66 -38 -14 -12 -66 -8 -76 5 -3 5 -19 4 -38 -4 -23 -9 -28 -15 -18 -21 7 -5
10 -9 5 -9 -4 0 -16 5 -27 12 -14 9 -29 10 -58 2 -55 -15 -81 -3 -74 33 6 29
74 104 106 116 15 6 16 10 6 22 -10 12 -10 15 0 15 10 0 10 3 0 15 -18 21 -21
20 -71 -26 -24 -22 -54 -47 -66 -56 -13 -8 -23 -21 -23 -29 0 -7 -14 -21 -30
-31 -17 -9 -33 -25 -36 -35 -3 -10 -14 -18 -25 -18 -16 0 -18 -5 -13 -24 5
-20 0 -27 -22 -39 -17 -9 -23 -17 -15 -21 17 -11 13 -36 -6 -37 -15 0 -14 -2
4 -11 24 -12 38 -41 28 -58 -4 -6 -10 -8 -15 -5 -8 5 -44 -8 -58 -21 -8 -6 81
-164 88 -159 5 3 11 -5 13 -17 4 -20 4 -20 6 4 0 15 6 30 12 34 8 4 9 -1 4
-17 -3 -13 -3 -19 2 -13 4 6 29 10 55 8 34 -2 55 -10 78 -31 33 -29 48 -33 93
-21 15 4 27 2 27 -3 0 -5 8 -9 18 -9 11 0 27 -9 37 -20 10 -11 29 -20 42 -20
13 0 26 -7 29 -15 4 -8 12 -15 20 -15 8 0 14 -6 14 -12 1 -8 7 -5 15 6 16 21
45 15 45 -9 0 -8 9 -15 20 -15 13 0 17 -5 14 -14 -5 -13 44 -59 67 -62 5 -1
21 -3 37 -4 l27 -2 -30 -7 c-16 -4 58 -5 166 -3 168 4 200 2 219 -11 22 -15
20 -16 -35 -10 -44 5 -56 3 -51 -6 5 -7 14 -10 21 -7 28 10 85 -14 91 -39 6
-22 34 -44 34 -26 0 5 -6 12 -12 14 -10 4 -10 6 0 6 7 1 10 7 7 14 -4 6 3 1
14 -13 11 -14 21 -28 21 -32 0 -17 32 -6 55 18 21 22 27 25 40 14 10 -9 15 -9
15 -1 0 7 27 11 79 11 59 0 84 4 95 16 15 14 17 14 22 0 10 -26 28 -18 48 19
14 26 23 32 35 26 20 -11 71 6 53 18 -17 10 3 28 38 33 13 1 29 12 35 23 8 16
16 19 35 14 40 -11 60 -10 60 4 0 8 15 11 51 8 37 -2 55 1 69 14 10 9 23 14
29 11 5 -3 11 -1 13 5 2 5 11 7 21 3 10 -3 16 -13 13 -20 -4 -11 6 -14 44 -14
34 0 50 4 50 13 0 7 9 18 20 25 11 7 20 19 20 27 0 26 27 16 34 -11 8 -31 23
-22 30 16 2 14 5 27 6 30 5 11 7 26 9 50 1 18 4 21 10 11 5 -8 11 -9 15 -3 3
6 2 13 -4 17 -5 3 -10 16 -10 28 1 20 2 20 16 -5 12 -23 12 -31 2 -48 -7 -11
-16 -20 -20 -20 -5 0 -8 -5 -8 -11 0 -5 5 -7 10 -4 6 3 10 0 10 -9 0 -8 -6
-17 -12 -20 -7 -3 -4 -4 7 -3 11 1 23 7 27 12 4 6 8 0 8 -12 0 -13 5 -23 10
-23 6 0 10 -5 10 -11 0 -18 28 -41 35 -28 5 7 13 4 26 -7 21 -19 24 -13 8 17
-7 15 -7 28 2 49 l13 28 16 -26 c15 -25 15 -29 -3 -62 -11 -19 -28 -44 -36
-54 -12 -14 -13 -20 -3 -23 6 -3 12 -10 12 -17 0 -6 11 -28 25 -48 15 -22 22
-44 19 -55 -4 -13 -3 -14 4 -5 7 10 14 5 31 -23 11 -20 21 -42 21 -48 0 -7 18
-41 40 -77 21 -36 58 -103 81 -150 23 -47 60 -110 82 -140 36 -50 42 -49 22 5
-4 11 2 7 13 -10 16 -25 17 -32 6 -45 -11 -13 -7 -27 27 -89 22 -41 49 -85 60
-99 17 -22 19 -22 20 -6 0 17 2 16 11 -3 12 -26 33 -32 24 -7 -16 42 -17 64
-3 84 14 21 15 21 37 -15 l22 -35 -29 -34 c-15 -19 -34 -33 -41 -30 -10 3 -11
-2 -6 -19 10 -34 82 -175 93 -181 15 -10 11 176 -5 201 -19 29 -18 52 1 27 13
-18 14 -16 15 23 0 32 -3 41 -14 37 -16 -6 -41 48 -33 71 4 8 -1 19 -11 24 -9
5 -16 12 -14 15 6 15 1 26 -10 20 -7 -4 -8 -3 -4 4 9 14 -37 95 -48 85 -4 -4
-4 1 0 12 6 14 4 17 -7 13 -20 -8 -42 27 -44 73 -1 20 -11 45 -22 56 -11 11
-28 41 -39 66 -10 26 -24 45 -30 43 -13 -5 -34 35 -34 62 0 20 -31 73 -59 101
-12 12 -18 27 -15 36 4 8 1 15 -5 15 -7 0 -15 -8 -18 -17 -11 -28 -41 -56 -52
-48 -16 9 -13 61 3 74 11 10 16 8 24 -6 6 -10 14 -14 18 -10 4 4 2 13 -4 19
-7 7 -12 25 -12 41 0 36 -17 68 -33 62 -13 -5 -37 38 -37 66 0 10 -9 21 -20
24 -15 5 -20 15 -20 40 0 18 -14 59 -30 91 -51 99 3 24 70 -98 34 -62 71 -125
81 -140 24 -34 52 -85 96 -170 19 -38 38 -68 43 -68 4 0 15 -17 24 -37 25 -58
92 -180 115 -210 12 -14 21 -30 21 -35 0 -4 18 -38 40 -74 22 -36 40 -72 40
-78 0 -7 9 -21 20 -31 20 -18 20 -17 20 26 0 28 -3 39 -9 31 -6 -10 -20 8 -50
62 -45 82 -48 91 -27 83 10 -4 12 0 9 14 -4 15 -9 17 -19 9 -17 -15 -37 22
-40 73 -2 43 -19 68 -39 60 -18 -6 -59 57 -45 71 18 18 12 38 -10 31 -15 -5
-21 0 -27 22 -4 15 -6 34 -5 40 4 17 -16 53 -29 53 -6 0 -7 -5 -3 -12 4 -7 3
-8 -4 -4 -6 4 -8 14 -5 23 4 11 2 14 -5 9 -14 -9 -44 47 -36 68 4 11 2 15 -8
11 -17 -7 -44 47 -33 65 8 13 -22 63 -34 55 -13 -7 -41 40 -41 70 0 14 -5 24
-11 22 -6 -1 -19 23 -29 53 -9 30 -21 64 -25 75 -13 34 92 -129 124 -192 17
-34 38 -66 46 -73 8 -7 15 -17 15 -22 0 -5 19 -42 43 -81 24 -40 47 -79 51
-87 4 -8 18 -33 31 -55 13 -22 38 -67 56 -100 17 -33 37 -67 45 -76 13 -14 24
-33 86 -144 14 -26 23 -34 25 -24 2 8 -17 53 -42 99 -27 48 -44 91 -42 102 6
20 -24 89 -30 71 -3 -7 1 -22 7 -33 6 -12 10 -24 7 -26 -2 -3 -21 23 -41 57
-25 41 -34 68 -30 81 4 13 2 18 -4 14 -13 -8 -42 32 -42 56 0 10 -5 17 -10 15
-6 -1 -27 29 -48 68 -20 38 -43 75 -49 83 -7 7 -16 24 -19 38 -3 13 -10 24
-15 24 -5 0 -9 5 -9 10 0 6 -11 28 -25 50 -14 22 -25 49 -25 60 0 12 -4 19 -9
16 -9 -6 -31 36 -31 60 0 9 -5 12 -12 8 -8 -5 -9 0 -6 14 4 14 2 20 -5 15 -6
-4 -8 0 -4 10 4 12 2 14 -10 10 -12 -5 -15 -2 -10 9 3 10 0 19 -9 22 -7 3 -13
15 -11 28 1 14 -3 23 -13 23 -8 0 -19 14 -25 30 -5 17 -14 33 -20 37 -5 4 -6
8 -2 8 4 0 3 9 -3 20 -6 11 -15 18 -20 15 -6 -4 -7 1 -3 11 5 13 3 15 -7 9 -9
-5 -11 -4 -6 4 10 16 -3 53 -16 45 -13 -8 -28 14 -28 44 0 13 -4 20 -10 17 -5
-3 -11 -1 -11 4 -3 20 -5 26 -17 49 -7 12 -9 22 -4 22 12 0 60 -70 105 -152
21 -37 42 -70 47 -73 5 -3 27 -41 49 -85 22 -43 51 -92 65 -107 15 -15 29 -37
32 -48 4 -11 10 -22 13 -25 10 -8 37 -52 77 -127 20 -37 40 -70 44 -73 14 -10
60 -90 60 -104 0 -8 11 -28 25 -44 13 -16 29 -40 35 -53 6 -13 24 -42 40 -64
16 -22 29 -47 30 -55 0 -8 14 -31 30 -50 17 -19 33 -45 36 -57 4 -13 10 -23
15 -23 13 0 12 3 -21 64 -26 47 -29 58 -18 75 15 24 4 39 -15 22 -17 -13 -20
-9 -59 59 -67 117 -68 121 -61 148 6 24 4 25 -10 14 -13 -11 -18 -10 -30 10
-7 13 -31 52 -52 88 -21 36 -43 68 -48 71 -5 4 -5 9 2 13 15 10 14 26 -2 21
-11 -5 -77 91 -77 113 0 5 -9 20 -19 34 -12 15 -18 33 -14 46 3 12 -6 40 -24
71 -26 48 -43 64 -43 41 0 -5 -4 -10 -8 -10 -13 0 -42 68 -36 84 7 18 -51 122
-60 107 -4 -6 -11 -11 -15 -11 -13 0 -34 57 -35 95 -1 31 0 32 16 18 9 -8 30
-43 47 -77 17 -34 49 -83 71 -110 22 -26 40 -55 40 -62 0 -8 30 -60 68 -115
37 -56 77 -121 90 -146 12 -24 34 -56 47 -71 14 -15 25 -32 25 -38 0 -6 10
-19 21 -30 19 -16 18 -12 -7 36 -16 30 -33 58 -38 61 -4 4 -3 16 3 27 14 26 4
52 -20 52 -22 0 -50 29 -75 78 -11 20 -23 40 -27 43 -4 3 -4 16 1 29 7 19 2
34 -21 72 -32 51 -37 54 -54 37 -7 -7 -14 -1 -23 20 -7 17 -16 31 -21 31 -5 0
-4 11 2 24 10 20 8 30 -10 58 -42 67 -40 65 -51 48 -8 -13 -11 -12 -25 5 -22
30 -29 63 -15 80 17 21 27 12 60 -59 17 -35 41 -75 55 -90 14 -15 39 -53 56
-84 27 -48 96 -151 127 -188 5 -6 19 -33 31 -60 12 -27 33 -60 45 -74 36 -39
106 -146 106 -162 0 -8 16 -35 35 -59 19 -24 35 -50 35 -56 0 -7 4 -13 10 -13
5 0 17 -15 26 -32 10 -18 19 -28 21 -21 2 6 -19 47 -47 90 -43 63 -50 81 -41
95 17 27 14 43 -5 28 -19 -17 -27 -9 -87 89 -35 56 -45 80 -40 101 6 35 -23
85 -42 70 -8 -7 -18 -2 -33 15 -12 14 -22 29 -22 34 0 4 -9 20 -21 34 -16 21
-18 31 -9 47 8 15 7 25 -3 42 -48 80 -48 80 -63 67 -8 -6 -16 -10 -17 -8 -28
39 -38 65 -33 85 6 21 -13 61 -52 114 -2 2 -7 -2 -13 -10 -8 -13 -12 -12 -24
5 -19 24 -16 49 7 53 11 2 22 -9 32 -30 9 -18 35 -57 57 -87 23 -30 53 -75 67
-100 22 -42 78 -123 132 -193 11 -14 20 -32 20 -38 0 -7 13 -29 29 -49 48 -61
119 -169 126 -191 4 -12 19 -36 34 -53 15 -18 33 -41 39 -52 10 -18 11 -18 12
-2 0 18 -27 66 -43 78 -5 4 -4 16 3 29 16 30 6 57 -16 40 -18 -16 -17 -17 -81
81 -41 62 -48 79 -40 97 11 23 -7 57 -25 46 -12 -8 -50 34 -84 92 -21 35 -25
50 -17 63 8 12 2 28 -25 68 -30 46 -36 51 -47 37 -10 -15 -14 -12 -34 19 -15
25 -20 44 -15 62 4 18 -1 37 -20 68 -20 32 -21 35 -4 13 13 -16 38 -47 56 -68
17 -22 32 -45 32 -51 1 -12 39 -67 117 -169 23 -31 48 -70 56 -89 8 -19 28
-50 46 -69 17 -19 31 -38 31 -41 0 -3 14 -24 31 -45 17 -22 40 -58 50 -81 10
-24 21 -43 24 -43 3 0 5 16 5 36 0 19 -3 33 -8 30 -4 -2 -30 30 -57 71 -28 42
-56 82 -64 90 -11 12 -11 19 -1 38 10 19 9 28 -6 54 -17 28 -19 29 -36 15 -16
-15 -18 -15 -29 10 -7 14 -16 26 -21 26 -4 0 -8 5 -8 11 0 6 -9 24 -20 40 -17
22 -19 33 -10 48 8 16 4 29 -22 68 -17 26 -33 50 -35 52 -2 3 -9 -4 -16 -14
-13 -16 -15 -15 -35 17 -16 26 -20 44 -16 67 5 21 2 37 -8 49 -23 26 -30 42
-19 42 8 0 92 -119 102 -145 5 -13 58 -86 117 -160 23 -29 42 -59 42 -65 0
-10 42 -68 83 -114 9 -11 17 -25 17 -31 0 -6 11 -22 25 -35 40 -37 29 -5 -21
65 -37 53 -43 68 -35 84 15 28 3 53 -21 45 -19 -6 -34 7 -68 56 -8 12 -23 33
-33 47 -14 17 -17 31 -11 51 4 15 6 33 5 40 -1 6 0 12 2 12 9 0 137 -169 137
-182 1 -14 24 -44 53 -67 25 -20 23 9 -3 37 -11 12 -20 24 -20 28 0 3 -20 32
-44 64 -25 32 -52 72 -61 89 -8 17 -20 31 -25 31 -6 0 -10 5 -10 11 0 6 -16
34 -36 61 -25 33 -33 53 -27 59 7 7 21 -4 43 -35 19 -25 34 -46 36 -46 1 0 0
9 -3 20 -3 11 -9 20 -14 20 -5 0 -15 16 -23 35 -16 37 -30 45 -40 20 -8 -21
-23 -19 -31 4 -3 10 -14 29 -25 41 -24 27 -25 40 -6 40 8 0 16 5 18 12 7 19
27 0 66 -61 33 -52 89 -126 148 -195 14 -17 34 -47 45 -68 11 -21 22 -38 24
-38 3 0 5 16 5 36 0 19 -4 33 -8 30 -4 -2 -19 12 -32 32 -14 20 -27 39 -30 42
-3 3 -17 21 -32 41 -24 32 -25 38 -13 62 9 18 10 28 2 36 -6 6 -8 13 -5 16 4
5 34 -26 91 -94 7 -8 15 -22 19 -30 5 -13 7 -12 7 4 1 32 -10 65 -20 59 -5 -3
-9 -1 -9 3 0 5 -12 21 -26 36 l-26 28 21 40 c12 22 18 45 15 51 -4 6 -3 8 3 5
5 -3 17 3 26 14 15 17 17 46 17 219 l0 200 -2396 0 c-2324 0 -2396 -1 -2380
-19z m222 -68 c-10 -10 -19 5 -10 18 6 11 8 11 12 0 2 -7 1 -15 -2 -18z m257
-160 c-7 -2 -21 -2 -30 0 -10 3 -4 5 12 5 17 0 24 -2 18 -5z m4160 -123 c-3
-10 -11 -24 -18 -30 -22 -18 -29 8 -9 31 22 24 34 24 27 -1z m-24 -91 c36 -58
41 -74 9 -33 -12 16 -23 31 -25 33 -2 3 -11 -6 -20 -18 l-16 -24 -13 24 c-23
42 -16 65 22 68 6 1 25 -22 43 -50z m-86 -182 c35 -57 35 -73 0 -24 -26 36
-26 37 -41 16 -14 -20 -15 -20 -39 16 -22 33 -24 40 -12 67 l13 31 25 -31 c14
-16 38 -50 54 -75z m-240 14 c-9 -11 -20 -18 -25 -15 -12 8 11 34 28 34 11 0
10 -4 -3 -19z m-321 -259 c-7 -9 -17 -29 -23 -44 -11 -29 -23 -35 -34 -18 -11
18 5 49 21 43 11 -4 15 0 13 13 -5 28 10 49 24 35 9 -9 8 -16 -1 -29z m138
-89 c0 -14 -29 -18 -31 -5 -1 4 -2 22 -4 41 l-3 33 19 -28 c10 -16 19 -35 19
-41z m-19 -91 c24 -42 49 -86 56 -97 34 -55 37 -66 23 -75 -20 -12 -31 1 -35
43 -5 57 -74 171 -75 125 0 -7 -5 -5 -11 6 -12 20 -18 87 -8 80 4 -2 27 -39
50 -82z m-52 -44 c-15 -29 -28 -30 -35 -3 -4 15 -1 32 6 40 11 13 14 13 25 -2
9 -12 10 -24 4 -35z m185 -52 c20 -48 20 -57 0 -28 -8 12 -19 20 -24 17 -10
-6 -21 21 -26 63 l-3 34 18 -24 c10 -13 26 -41 35 -62z m-220 -7 c-8 -14 -24
8 -24 36 0 18 1 18 16 -3 8 -12 12 -27 8 -33z m134 -128 c-9 -15 -15 -17 -25
-9 -16 13 -17 33 -2 60 11 21 12 21 26 -5 11 -21 11 -30 1 -46z m-111 -53 c-3
-8 -6 -5 -6 6 -1 11 2 17 5 13 3 -3 4 -12 1 -19z m267 -210 c-4 -13 -7 -26 -6
-30 1 -5 -5 -8 -13 -8 -18 0 -18 -5 -4 -33 l11 -22 -19 21 c-22 22 -43 58 -43
71 0 4 7 -1 15 -11 8 -11 18 -16 22 -13 4 4 1 13 -5 19 -15 15 -15 43 -1 70
11 20 12 20 31 -10 14 -22 17 -38 12 -54z m36 -39 c0 -6 -4 -7 -10 -4 -5 3
-10 11 -10 16 0 6 5 7 10 4 6 -3 10 -11 10 -16z m-11 -134 c0 -5 -6 -1 -14 9
-8 11 -15 27 -15 35 1 17 29 -26 29 -44z m71 17 c0 -15 -2 -15 -10 -2 -13 20
-13 33 0 25 6 -3 10 -14 10 -23z m81 -184 c-11 -13 -18 -14 -28 -6 -16 13 -17
33 -1 58 12 18 13 18 28 -8 14 -23 14 -28 1 -44z m-54 -20 c-3 -8 -6 -5 -6 6
-1 11 2 17 5 13 3 -3 4 -12 1 -19z m93 -10 c0 -5 9 -23 21 -40 21 -29 22 -50
1 -25 -17 21 -44 90 -33 82 6 -3 11 -11 11 -17z m-70 -18 c0 -5 -2 -10 -4 -10
-3 0 -8 5 -11 10 -3 6 -1 10 4 10 6 0 11 -4 11 -10z m170 -166 c0 -3 -9 -14
-19 -25 l-19 -21 -15 29 c-14 25 -13 31 1 55 l16 27 18 -30 c10 -16 18 -32 18
-35z m-96 30 c3 -8 2 -12 -4 -9 -6 3 -10 10 -10 16 0 14 7 11 14 -7z m165
-152 c17 -33 18 -41 7 -45 -15 -6 -30 19 -21 33 3 5 0 12 -6 16 -8 5 -9 3 -4
-6 6 -10 4 -12 -9 -7 -10 4 -20 7 -24 7 -3 0 2 6 12 13 17 12 17 15 2 29 -9 9
-16 27 -16 40 0 21 2 20 20 -9 10 -17 28 -50 39 -71z m66 -282 c14 -27 23 -50
20 -50 -2 0 -16 23 -30 50 -14 28 -23 50 -20 50 2 0 16 -22 30 -50z"/>
<path d="M3692 3502 c-12 -36 -46 -72 -98 -105 -22 -14 -67 -48 -98 -75 -47
-41 -73 -55 -147 -78 -49 -15 -89 -31 -89 -36 0 -14 21 -50 47 -82 15 -18 21
-35 18 -47 -9 -26 11 -24 42 6 24 21 124 59 190 71 38 7 68 21 82 38 7 9 20
16 27 16 8 0 14 7 14 15 0 8 5 15 10 15 6 0 10 10 10 23 0 34 20 54 67 66 73
20 127 -8 338 -169 120 -93 181 -128 138 -81 -10 10 -33 35 -51 55 -18 20 -38
36 -45 36 -22 0 -20 78 3 110 24 33 25 44 5 36 -9 -3 -15 1 -15 11 0 13 -2 14
-17 2 -11 -10 -17 -11 -20 -3 -2 7 -13 10 -23 7 -24 -6 -25 11 -5 47 20 34 19
40 -9 40 -12 0 -35 11 -50 25 -14 13 -30 24 -34 23 -4 -2 -16 12 -27 29 -24
38 -29 39 -56 12 -19 -19 -22 -19 -38 -5 -19 17 -57 21 -65 7 -8 -12 -62 -7
-80 8 -11 9 -16 6 -24 -17z"/>
<path d="M2432 3388 c-5 -7 -26 -51 -47 -98 -20 -47 -40 -89 -45 -95 -4 -5
-24 -41 -44 -80 -46 -88 -56 -103 -84 -134 -12 -15 -25 -34 -28 -43 -3 -10
-12 -18 -19 -18 -8 0 -12 -6 -9 -14 3 -7 -5 -22 -18 -33 -13 -10 -24 -25 -26
-33 -2 -8 -10 -19 -18 -23 -8 -5 -12 -12 -10 -16 3 -4 -3 -17 -14 -28 -10 -12
-27 -36 -37 -55 -18 -33 -56 -89 -81 -118 -7 -8 -24 -28 -39 -45 -14 -16 -44
-55 -67 -85 -22 -30 -51 -66 -64 -80 -13 -14 -31 -37 -40 -52 -9 -16 -22 -28
-28 -28 -7 0 -16 -9 -19 -20 -3 -11 -11 -20 -17 -20 -5 0 -23 -9 -38 -20 -21
-15 -27 -26 -23 -43 3 -13 1 -18 -4 -11 -5 6 -22 -4 -47 -30 -22 -22 -32 -37
-23 -33 15 6 16 4 6 -14 -6 -13 -16 -18 -26 -15 -13 5 -14 4 -3 -9 8 -10 9
-15 1 -15 -6 0 -18 -12 -27 -26 -15 -22 -15 -27 -3 -35 8 -5 17 -8 20 -6 11 4
187 216 221 265 106 155 277 372 293 372 58 0 264 -80 375 -146 100 -59 106
-65 90 -104 -36 -88 49 -145 179 -120 84 16 89 11 87 -69 -1 -78 14 -108 74
-149 28 -18 46 -22 115 -22 82 0 83 0 95 -30 19 -45 92 -108 134 -114 20 -3
51 -8 70 -11 27 -4 36 -12 48 -44 24 -60 80 -85 183 -84 48 0 94 6 114 15 32
14 37 14 68 -5 22 -12 60 -22 102 -25 77 -5 130 15 191 74 33 31 38 33 70 24
19 -6 57 -10 83 -10 44 0 53 4 102 51 34 32 56 62 61 82 9 46 11 47 49 31 45
-18 118 -18 155 1 55 28 128 154 114 197 -5 18 -3 20 17 14 67 -20 96 -18 136
7 52 33 73 68 80 131 6 57 -5 85 -56 146 l-29 34 -43 -19 c-24 -10 -53 -30
-65 -44 -15 -17 -23 -21 -28 -12 -4 6 -16 9 -26 6 -30 -10 -53 6 -183 121 -21
19 -44 34 -53 34 -8 0 -19 10 -25 23 -11 23 -61 61 -119 88 -19 9 -45 27 -58
39 -34 32 -38 18 -12 -45 25 -63 58 -111 140 -205 57 -67 74 -95 84 -143 5
-19 2 -29 -9 -33 -17 -7 -145 54 -145 69 0 11 -47 57 -59 57 -5 0 -20 -9 -35
-21 -25 -20 -28 -20 -51 -5 -14 9 -25 24 -25 32 0 13 7 15 35 10 19 -4 35 -4
35 -1 0 37 -204 145 -287 153 -64 6 -96 -12 -113 -63 -11 -34 -24 -41 -70 -36
-9 1 -5 -6 10 -18 14 -11 25 -25 25 -31 0 -6 7 -15 15 -20 13 -9 13 -10 0 -11
-8 0 -4 -4 9 -8 14 -4 27 -13 29 -20 3 -9 0 -12 -10 -9 -11 5 -14 -1 -13 -23
1 -23 -2 -28 -14 -25 -27 9 -105 24 -121 24 -47 0 -95 13 -114 31 -26 24 -76
31 -54 7 7 -8 16 -12 19 -10 3 2 17 -8 29 -21 13 -14 19 -25 13 -25 -13 0 -23
-46 -13 -57 4 -4 11 -18 15 -30 5 -17 2 -23 -10 -23 -30 0 -163 78 -173 103
-2 4 -10 7 -18 7 -8 0 -14 6 -12 14 4 18 -46 64 -77 72 -14 3 -25 10 -25 14 0
5 -3 16 -7 26 -4 11 -2 15 4 11 18 -12 133 58 133 81 0 5 14 15 30 22 33 14
38 25 14 34 -32 12 -100 5 -144 -16 -30 -14 -67 -21 -109 -22 l-65 -1 0 -30
c0 -32 29 -55 71 -55 28 0 53 -10 53 -21 0 -5 -13 -6 -30 -3 -44 9 -87 -12
-87 -42 0 -34 -10 -40 -31 -21 -10 10 -24 17 -30 17 -7 0 -12 4 -12 9 0 5 -11
12 -25 15 -14 4 -25 14 -25 22 0 10 -6 14 -15 10 -9 -3 -15 0 -15 9 0 8 5 14
12 12 6 -1 14 6 16 16 3 15 -1 17 -24 11 -19 -5 -25 -4 -20 5 4 6 14 11 23 11
12 0 15 8 10 40 -5 36 -3 40 16 40 37 0 67 -12 67 -25 0 -8 9 -10 26 -7 24 4
25 5 6 22 -19 18 -110 42 -124 34 -4 -3 -8 -18 -8 -35 0 -16 -4 -29 -10 -29
-5 0 -10 9 -10 19 0 11 -4 23 -10 26 -5 3 -10 0 -10 -8 0 -8 -17 2 -41 24 -26
24 -47 35 -57 32 -10 -4 -13 -2 -8 5 5 8 0 12 -13 12 -12 0 -21 5 -21 11 0 6
-7 9 -15 6 -17 -7 -55 37 -55 64 0 12 -7 19 -19 19 -34 0 -52 27 -45 69 4 24
2 41 -5 45 -17 11 -13 26 7 26 12 0 10 4 -8 13 -14 7 -24 20 -23 28 2 8 -17
27 -41 44 -40 27 -44 34 -49 80 -3 27 -2 70 4 95 5 25 13 71 18 102 5 32 12
62 16 68 9 14 0 13 -13 -2z m1738 -992 c0 -14 -29 -30 -38 -21 -3 3 0 5 6 5 7
0 12 7 12 15 0 8 5 15 10 15 6 0 10 -6 10 -14z m-1205 -36 c38 -23 68 -76 64
-110 -5 -34 -45 -38 -118 -10 -32 12 -64 20 -72 18 -19 -4 -21 69 -2 100 18
29 82 30 128 2z m248 -64 c49 -20 89 -72 85 -110 -3 -29 -5 -31 -43 -30 -22 1
-56 5 -76 9 -30 6 -40 3 -58 -16 -13 -14 -19 -30 -15 -41 6 -21 -11 -25 -19
-3 -11 28 20 155 44 181 26 28 37 29 82 10z m807 -110 c0 -3 -4 -8 -10 -11 -5
-3 -10 -1 -10 4 0 6 5 11 10 11 6 0 10 -2 10 -4z m-561 -112 c22 -18 31 -35
31 -55 0 -26 -3 -29 -33 -29 -21 0 -45 10 -67 29 -32 26 -33 30 -22 55 15 34
51 34 91 0z"/>
<path d="M4195 3261 c-34 -31 -42 -71 -13 -71 10 0 18 4 18 9 0 5 7 12 16 15
8 3 13 2 9 -3 -3 -5 -2 -16 1 -25 5 -13 9 -14 20 -5 16 13 19 69 4 69 -6 0
-14 9 -18 19 -7 18 -9 18 -37 -8z"/>
<path d="M4290 3170 c0 -5 5 -10 11 -10 5 0 7 5 4 10 -3 6 -8 10 -11 10 -2 0
-4 -4 -4 -10z"/>
<path d="M4534 3002 c-11 -11 -40 -35 -66 -55 -27 -20 -44 -39 -38 -42 11 -7
19 -1 88 62 26 23 44 44 40 48 -3 3 -14 -2 -24 -13z"/>
<path d="M7646 2997 c3 -10 9 -15 12 -12 3 3 0 11 -7 18 -10 9 -11 8 -5 -6z"/>
<path d="M2870 2620 c0 -5 5 -10 10 -10 6 0 10 5 10 10 0 6 -4 10 -10 10 -5 0
-10 -4 -10 -10z"/>
<path d="M2870 2584 c0 -8 5 -12 10 -9 6 4 8 11 5 16 -9 14 -15 11 -15 -7z"/>
<path d="M3339 2539 c-11 -7 -11 -9 3 -9 9 0 18 -5 20 -11 2 -6 17 -9 32 -7
l29 3 -35 17 c-22 10 -40 13 -49 7z"/>
<path d="M4940 2451 c0 -5 7 -11 15 -15 9 -3 15 0 15 9 0 8 -7 15 -15 15 -8 0
-15 -4 -15 -9z"/>
<path d="M7487 2380 c10 -19 18 -40 18 -46 0 -13 65 -92 65 -79 0 6 -9 25 -20
43 -16 26 -18 37 -9 53 13 25 5 36 -15 20 -11 -9 -18 -6 -35 16 l-22 28 18
-35z"/>
<path d="M6970 2379 c0 -5 5 -7 10 -4 6 3 10 8 10 11 0 2 -4 4 -10 4 -5 0 -10
-5 -10 -11z"/>
<path d="M6477 2251 c-3 -14 -1 -18 9 -14 8 3 14 11 14 19 0 21 -17 17 -23 -5z"/>
<path d="M7570 2235 c0 -3 14 -24 30 -47 17 -22 30 -48 30 -55 0 -17 31 -73
41 -73 7 0 10 89 3 113 -5 17 -7 17 -24 2 -18 -16 -20 -15 -40 24 -11 23 -25
41 -30 41 -6 0 -10 -2 -10 -5z"/>
<path d="M5370 2192 c0 -8 191 -5 199 4 2 2 -41 4 -97 4 -56 0 -102 -4 -102
-8z"/>
<path d="M5623 2193 c20 -2 54 -2 75 0 20 2 3 4 -38 4 -41 0 -58 -2 -37 -4z"/>
<path d="M6325 2150 c3 -5 10 -10 16 -10 5 0 9 5 9 10 0 6 -7 10 -16 10 -8 0
-12 -4 -9 -10z"/>
<path d="M5687 2004 c-1 -1 -114 -4 -252 -8 -309 -8 -506 -16 -523 -22 -7 -2
-10 -8 -7 -14 4 -6 53 -10 116 -10 90 0 109 -3 109 -15 0 -12 -17 -15 -87 -16
-49 -1 -98 -4 -111 -7 -50 -14 -12 -27 88 -31 191 -7 634 0 675 11 22 6 89 11
148 13 59 1 110 5 113 7 2 3 -3 11 -12 19 -13 11 -45 13 -134 11 -101 -3 -118
-1 -124 13 -5 14 7 16 116 14 89 -1 123 2 126 11 8 24 -24 30 -131 28 -60 -1
-109 -3 -110 -4z"/>
<path d="M7630 1880 c0 -5 5 -10 10 -10 6 0 10 5 10 10 0 6 -4 10 -10 10 -5 0
-10 -4 -10 -10z"/>
<path d="M5717 1874 c-2 -1 -165 -7 -582 -20 -110 -4 -202 -8 -204 -10 -2 -2
-1 -10 3 -19 5 -15 21 -16 124 -11 64 3 198 8 297 11 324 9 550 17 569 21 11
2 25 -1 32 -7 18 -14 29 8 13 27 -10 12 -35 14 -131 12 -65 -1 -120 -3 -121
-4z"/>
<path d="M2628 1812 c-44 -4 -51 -19 -10 -24 21 -2 27 -8 27 -28 0 -21 -6 -26
-35 -31 l-35 -6 35 -5 c35 -5 35 -5 -7 -6 -35 -2 -43 2 -49 21 -5 12 -7 25 -6
30 1 4 -3 7 -8 7 -13 0 -32 -49 -26 -67 5 -11 -25 -19 -56 -14 -5 0 -8 -4 -8
-9 0 -5 7 -10 16 -10 8 0 13 -4 9 -10 -3 -5 -12 -7 -20 -3 -9 3 -15 -1 -15
-11 0 -11 10 -16 33 -17 l32 -2 -35 -6 c-29 -5 -36 -11 -38 -33 -2 -17 2 -28
8 -28 7 0 10 -7 6 -15 -3 -10 1 -15 11 -15 9 0 13 -3 9 -7 -7 -8 -11 -9 -37
-12 -20 -2 3 -21 27 -21 20 0 24 -5 24 -29 0 -28 20 -47 48 -42 6 1 12 -3 12
-9 0 -5 -9 -10 -20 -10 -11 0 -20 -4 -20 -8 0 -4 16 -6 37 -4 l36 5 -7 -34
c-4 -19 -9 -46 -10 -61 -1 -16 -3 -37 -4 -49 -2 -18 -7 -20 -37 -16 -19 3 -35
1 -35 -4 0 -5 14 -9 31 -9 l32 0 -8 -57 c-4 -32 -7 -71 -7 -88 0 -16 -4 -47
-9 -67 -5 -21 -10 -53 -11 -73 -1 -27 -5 -35 -20 -35 -10 0 -18 -4 -18 -10 0
-5 7 -10 15 -10 8 0 15 -5 15 -11 0 -6 -6 -9 -13 -6 -6 2 -18 -2 -25 -9 -11
-12 -9 -14 8 -14 20 0 21 -4 18 -57 -3 -34 -9 -58 -15 -58 -6 0 -15 -4 -20 -8
-4 -5 -1 -7 7 -5 17 3 18 -9 5 -90 -4 -30 -11 -48 -15 -42 -5 8 -9 7 -13 -4
-4 -10 -1 -16 8 -16 24 0 17 -20 -7 -21 -17 -1 -19 -2 -5 -6 23 -6 22 -33 -1
-33 -24 0 -24 -31 -1 -37 11 -3 15 -11 12 -20 -3 -8 -9 -10 -12 -5 -3 5 -20 7
-37 5 -24 -4 -32 -10 -32 -26 0 -12 -3 -39 -7 -61 -7 -36 -7 -38 13 -32 25 8
32 -2 22 -29 -7 -18 -8 -19 -15 -2 -4 9 -13 17 -20 17 -15 0 -32 -118 -21
-145 3 -8 1 -15 -4 -15 -9 0 -15 -23 -25 -100 l-5 -45 135 -4 c94 -2 135 0
135 8 0 8 6 7 20 -1 17 -11 22 -10 30 2 6 10 10 11 10 3 0 -20 40 -16 40 5 0
9 5 60 11 112 6 52 13 124 15 160 3 36 6 83 8 105 2 22 6 75 11 118 5 53 4 77
-3 77 -13 0 -17 -23 -38 -215 -8 -82 -13 -166 -9 -185 4 -26 3 -31 -4 -20 -8
11 -11 4 -12 -30 -1 -25 -5 -58 -9 -75 l-8 -30 -1 30 c-1 29 12 162 44 453 15
131 18 219 8 194 -2 -6 -9 -10 -14 -6 -5 3 -9 -11 -9 -31 0 -20 4 -34 8 -31 5
3 6 -9 4 -27 -4 -26 -6 -28 -12 -12 -4 12 -9 -9 -14 -55 -15 -169 -16 -186 -7
-160 8 23 9 23 10 4 1 -12 -6 -28 -15 -35 -12 -10 -15 -25 -11 -62 3 -36 2
-45 -5 -32 -6 9 -8 49 -5 88 8 110 26 277 30 285 3 4 7 52 11 107 4 55 16 168
26 250 11 83 22 175 25 205 5 57 23 129 24 98 1 -26 21 -22 23 5 4 55 6 63 13
80 4 9 5 26 2 36 -2 10 2 51 9 91 12 59 12 75 2 82 -10 6 -10 8 1 8 12 0 12 3
3 12 -7 7 -12 20 -12 31 0 15 -5 17 -30 12 -23 -5 -30 -3 -30 9 0 9 -4 16 -10
16 -5 0 -10 10 -10 23 0 12 -6 42 -13 67 -12 44 -13 45 -49 42z m12 -128 c0
-8 -5 -12 -10 -9 -6 4 -8 11 -5 16 9 14 15 11 15 -7z m27 -6 c-3 -8 -6 -5 -6
6 -1 11 2 17 5 13 3 -3 4 -12 1 -19z m-182 -128 c-3 -5 -10 -10 -16 -10 -5 0
-9 5 -9 10 0 6 7 10 16 10 8 0 12 -4 9 -10z m240 -40 c-3 -5 -10 -10 -16 -10
-5 0 -9 5 -9 10 0 6 7 10 16 10 8 0 12 -4 9 -10z m-155 -100 c0 -5 -4 -10 -10
-10 -5 0 -10 5 -10 10 0 6 5 10 10 10 6 0 10 -4 10 -10z m134 -54 c-6 -16 -8
-17 -16 -2 -11 19 0 42 13 29 6 -6 7 -18 3 -27z m-24 -6 c0 -5 -4 -10 -10 -10
-5 0 -10 5 -10 10 0 6 5 10 10 10 6 0 10 -4 10 -10z m20 -41 c0 -19 -4 -21
-37 -14 -21 4 -40 8 -42 10 -9 10 11 20 43 22 31 3 36 0 36 -18z m-10 -41 c0
-4 -9 -8 -21 -8 -11 0 -18 4 -15 8 3 5 12 9 21 9 8 0 15 -4 15 -9z m0 -43 c0
-9 -6 -12 -15 -9 -10 4 -15 0 -15 -15 0 -15 -6 -21 -22 -20 -17 0 -19 2 -8 7
19 9 23 42 4 35 -8 -3 -14 0 -14 6 0 6 16 11 35 11 24 0 35 -5 35 -15z m-10
-85 c0 -16 -7 -20 -32 -22 l-33 -1 31 -4 c29 -4 30 -5 25 -46 -6 -41 -7 -42
-46 -44 -22 -1 -32 1 -22 4 9 2 17 8 17 13 0 5 -7 7 -16 3 -12 -4 -15 -1 -12
13 2 10 9 20 16 20 6 1 19 2 27 3 8 0 15 6 15 12 0 5 -4 8 -9 5 -18 -12 -36 5
-38 34 -2 29 0 30 37 30 33 0 40 -3 40 -20z m-20 -175 c-1 -28 -1 -29 -15 -11
-15 19 -15 19 -16 -5 l0 -24 -11 25 c-10 24 -10 24 -18 5 -8 -18 -9 -17 -9 7
-1 27 12 36 52 34 12 0 17 -8 17 -31z m-10 -70 c0 -11 -5 -27 -10 -35 -8 -13
-10 -12 -10 3 0 16 -16 22 -47 18 -19 -3 -4 27 15 32 35 8 52 3 52 -18z m-10
-77 c0 -4 -5 -8 -12 -8 -9 0 -9 -3 -1 -11 6 -6 9 -18 6 -25 -6 -16 -63 -19
-63 -4 0 6 7 10 15 10 8 0 15 7 15 16 0 14 -3 14 -15 4 -12 -10 -15 -10 -15 3
0 15 17 22 53 23 9 0 17 -4 17 -8z m-17 -103 c-3 -9 -8 -14 -10 -11 -3 3 -2 9
2 15 9 16 15 13 8 -4z m-3 -35 c0 -5 -5 -10 -11 -10 -5 0 -7 5 -4 10 3 6 8 10
11 10 2 0 4 -4 4 -10z m-10 -139 c0 -5 -9 -11 -20 -14 -11 -3 -20 -1 -20 3 0
5 8 11 18 13 9 3 18 5 20 6 1 0 2 -3 2 -8z m-12 -82 c-2 -6 -7 -10 -12 -9 -5
1 -13 -4 -18 -12 -8 -10 -11 -11 -15 0 -4 10 -8 10 -19 1 -11 -9 -14 -8 -14 8
0 16 7 20 41 21 25 1 39 -2 37 -9z m-175 -46 c-7 -2 -19 -2 -25 0 -7 3 -2 5
12 5 14 0 19 -2 13 -5z m-13 -21 c0 -4 -9 -8 -20 -9 -11 -1 -20 2 -20 8 0 5 9
9 20 9 11 0 20 -4 20 -8z m20 -36 c0 -2 -11 -6 -25 -8 -14 -3 -25 -1 -25 3 0
5 11 9 25 9 14 0 25 -2 25 -4z m-20 -96 c0 -5 -15 -9 -32 -9 l-33 1 30 8 c17
4 31 8 33 9 1 0 2 -3 2 -9z m190 -123 c-7 -56 -15 -96 -18 -88 -3 8 1 59 8
115 8 55 16 94 18 87 2 -7 -2 -58 -8 -114z m-193 71 c-3 -8 -6 -5 -6 6 -1 11
2 17 5 13 3 -3 4 -12 1 -19z m-29 -165 c-10 -2 -26 -2 -35 0 -10 3 -2 5 17 5
19 0 27 -2 18 -5z"/>
<path d="M5920 1817 c-3 -3 -102 -7 -220 -11 -681 -21 -748 -24 -767 -34 -29
-17 5 -24 100 -23 100 1 445 11 597 16 52 2 155 5 228 6 73 1 135 6 137 10 9
14 -61 48 -75 36z"/>
<path d="M5715 1739 c-679 -24 -768 -28 -779 -39 -6 -6 -4 -11 5 -14 24 -9
357 -12 352 -3 -3 4 13 7 34 6 53 -2 505 11 577 17 39 3 62 1 66 -7 10 -15 50
-2 50 16 0 31 -32 33 -305 24z"/>
<path d="M2453 1715 c0 -8 9 -15 20 -15 10 0 17 5 15 13 -7 18 -35 20 -35 2z"/>
<path d="M2360 1716 c0 -2 11 -6 25 -8 14 -3 25 -1 25 3 0 5 -11 9 -25 9 -14
0 -25 -2 -25 -4z"/>
<path d="M7660 1680 c0 -5 5 -10 11 -10 5 0 7 5 4 10 -3 6 -8 10 -11 10 -2 0
-4 -4 -4 -10z"/>
<path d="M5948 1675 c-2 -2 -113 -5 -248 -9 -267 -7 -481 -15 -575 -21 -33 -2
-82 -4 -108 -5 -40 0 -48 -3 -45 -17 3 -16 20 -17 208 -14 112 1 212 5 223 6
10 2 150 7 312 11 231 5 298 4 310 -6 13 -11 15 -9 15 13 0 14 -6 29 -12 33
-12 8 -74 14 -80 9z"/>
<path d="M2370 1640 c0 -5 5 -10 11 -10 5 0 7 5 4 10 -3 6 -8 10 -11 10 -2 0
-4 -4 -4 -10z"/>
<path d="M2240 1588 c0 -28 13 -37 25 -18 4 6 11 8 16 5 5 -4 9 -1 9 4 0 6 -5
11 -11 11 -5 0 -7 5 -4 10 3 6 1 10 -4 10 -6 0 -11 -6 -11 -12 0 -9 -4 -8 -10
2 -8 12 -10 9 -10 -12z"/>
<path d="M2340 1585 c0 -21 5 -25 30 -25 25 0 30 4 30 25 0 21 -5 25 -30 25
-25 0 -30 -4 -30 -25z"/>
<path d="M5958 1606 c-1 -2 -109 -6 -238 -10 -129 -4 -266 -9 -305 -11 -38 -2
-153 -7 -255 -11 -102 -3 -189 -10 -195 -15 -21 -21 23 -27 154 -23 75 2 224
6 331 9 359 9 545 16 558 20 6 3 12 -1 12 -8 0 -8 3 -8 9 2 7 11 9 11 13 0 5
-16 28 -3 28 16 0 18 -96 45 -112 31z"/>
<path d="M5997 1534 c-2 -1 -189 -8 -572 -20 -104 -3 -199 -8 -210 -9 -11 -2
-64 -4 -117 -4 -91 -1 -98 -2 -98 -21 0 -19 6 -20 88 -19 48 1 158 4 245 7 88
4 161 4 164 -1 6 -10 36 -5 46 8 4 6 11 4 17 -5 6 -10 10 -11 10 -3 0 7 10 12
23 12 12 0 119 2 237 6 185 5 218 4 235 -9 19 -15 19 -15 -15 -16 -133 -2
-789 -27 -948 -36 -89 -5 -103 -8 -100 -22 3 -14 16 -17 68 -17 107 1 599 15
680 20 227 14 248 15 253 2 4 -9 6 -9 6 1 1 8 17 12 49 11 35 0 42 -3 27 -9
-19 -8 -19 -9 1 -9 29 -1 36 21 17 48 -8 12 -13 31 -10 42 7 25 -29 50 -67 47
-15 -1 -28 -3 -29 -4z"/>
<path d="M2331 1504 c0 -11 3 -14 6 -6 3 7 2 16 -1 19 -3 4 -6 -2 -5 -13z"/>
<path d="M2792 1480 c1 -25 -2 -70 -6 -100 -3 -30 -8 -80 -11 -110 -2 -30 -7
-73 -10 -95 -17 -137 -17 -146 1 -172 15 -24 16 -37 5 -142 -7 -64 -14 -126
-17 -138 -2 -13 0 -23 5 -23 5 0 12 29 16 65 3 36 10 65 15 65 5 0 5 12 1 26
-6 23 11 213 23 254 2 8 4 -24 3 -72 0 -49 -4 -88 -8 -88 -4 0 -7 -28 -6 -62
1 -35 -2 -101 -6 -148 -5 -62 -5 -80 3 -67 6 9 10 25 9 35 -2 9 0 26 4 37 4
11 9 72 12 135 9 185 14 261 23 332 5 37 5 73 1 79 -4 6 -11 -22 -17 -62 -7
-53 -10 -63 -11 -34 0 22 3 66 8 97 6 32 6 69 1 85 -8 29 -10 27 -16 -17 -2
-14 -8 -47 -12 -75 -14 -76 -14 -6 -1 92 7 54 7 91 1 114 l-10 34 0 -45z m-3
-389 c-7 -52 -14 -79 -18 -67 -7 19 3 144 16 186 l7 25 4 -29 c2 -16 -2 -68
-9 -115z"/>
<path d="M2348 1453 c7 -3 16 -2 19 1 4 3 -2 6 -13 5 -11 0 -14 -3 -6 -6z"/>
<path d="M2414 1391 c7 -10 31 -9 42 2 4 4 -5 7 -20 7 -15 0 -25 -4 -22 -9z"/>
<path d="M2307 1383 c-4 -3 -7 -11 -7 -17 0 -6 5 -5 12 2 6 6 9 14 7 17 -3 3
-9 2 -12 -2z"/>
<path d="M2351 1378 c0 -9 -8 -18 -16 -20 -10 -2 -12 -7 -5 -18 13 -21 33 1
27 31 -2 13 -5 16 -6 7z"/>
<path d="M6007 1385 c-1 -2 -96 -6 -212 -9 -115 -4 -234 -9 -262 -11 -29 -2
-144 -6 -255 -10 -235 -6 -268 -10 -268 -30 0 -13 12 -18 40 -17 3 0 113 3
245 7 132 4 310 8 395 10 85 2 213 7 284 11 94 5 127 3 122 -5 -5 -7 1 -10 16
-8 25 4 36 33 20 49 -9 9 -116 19 -125 13z"/>
<path d="M2397 1349 c-6 -23 20 -26 49 -4 15 11 16 15 4 15 -8 1 -22 3 -32 5
-9 2 -18 -5 -21 -16z"/>
<path d="M2500 1356 c0 -11 8 -16 28 -15 15 0 21 3 12 6 -8 3 -21 10 -27 16
-9 7 -13 5 -13 -7z"/>
<path d="M2021 1334 c0 -11 3 -14 6 -6 3 7 2 16 -1 19 -3 4 -6 -2 -5 -13z"/>
<path d="M2210 1339 c0 -5 5 -7 10 -4 6 3 10 8 10 11 0 2 -4 4 -10 4 -5 0 -10
-5 -10 -11z"/>
<path d="M2331 1294 c0 -11 3 -14 6 -6 3 7 2 16 -1 19 -3 4 -6 -2 -5 -13z"/>
<path d="M5928 1305 c-2 -1 -88 -6 -193 -9 -104 -4 -226 -9 -270 -11 -44 -2
-152 -7 -240 -10 -190 -6 -216 -10 -208 -32 6 -14 25 -15 162 -9 86 4 266 9
401 12 135 3 251 7 258 9 6 3 12 0 12 -5 0 -6 15 -10 33 -9 30 1 31 1 7 9 -18
6 -5 8 45 9 39 1 102 4 140 7 50 3 66 2 55 -5 -12 -9 -11 -11 7 -11 28 0 37
14 23 40 -10 19 -19 21 -120 19 -60 -1 -110 -2 -112 -4z"/>
<path d="M2732 1243 c-14 -27 -24 -170 -13 -177 6 -4 8 8 6 31 -4 32 -3 34 5
13 7 -20 9 -12 8 35 -1 33 2 72 7 88 8 30 0 36 -13 10z"/>
<path d="M6055 1229 c-60 -4 -204 -10 -320 -13 -115 -4 -237 -9 -270 -11 -33
-2 -136 -7 -230 -10 -175 -6 -205 -10 -205 -25 0 -20 63 -22 388 -9 185 8 415
14 511 14 95 0 163 3 150 6 -19 6 -16 7 14 8 21 1 45 -5 53 -13 18 -18 5 -27
-38 -25 -18 0 -73 -2 -123 -5 -99 -6 -266 -13 -510 -21 -246 -8 -399 -16 -404
-20 -2 -3 1 -19 6 -37 6 -18 11 -26 12 -18 1 16 6 17 219 23 52 2 82 -1 82 -7
0 -6 4 -5 9 2 5 8 26 12 57 11 27 -1 109 2 182 6 109 6 132 5 132 -6 0 -11 2
-11 10 1 8 12 11 13 19 1 6 -9 10 -10 12 -2 6 18 179 27 190 9 7 -10 9 -10 9
2 0 12 16 15 79 16 69 1 80 -1 84 -18 5 -16 -2 -18 -61 -19 -37 0 -98 -2 -137
-4 -190 -12 -258 -15 -480 -21 -132 -4 -247 -8 -255 -10 -8 -1 -45 -3 -82 -3
-60 -1 -68 -3 -68 -20 0 -26 12 -27 190 -21 98 3 158 1 163 -5 4 -6 11 -4 17
5 8 12 11 13 19 1 5 -8 10 -9 12 -3 4 12 140 19 157 8 5 -3 13 0 15 6 4 10 8
10 15 -1 8 -11 10 -11 15 0 4 12 7 11 16 -1 8 -11 13 -12 19 -4 8 13 222 25
222 12 0 -4 14 -8 30 -8 17 0 30 5 30 11 0 8 4 8 14 0 11 -9 15 -9 18 1 4 10
9 10 23 -2 14 -11 17 -11 11 -2 -7 11 -4 12 10 5 26 -12 77 -8 82 6 2 6 13 11
25 11 18 0 19 -2 7 -10 -8 -5 -13 -10 -10 -11 56 -9 60 -8 56 18 -3 13 -9 30
-15 37 -5 6 -11 23 -13 36 -2 14 -7 31 -12 38 -4 7 -10 28 -13 45 -7 50 -17
54 -138 46z"/>
<path d="M2475 1180 c3 -5 8 -10 11 -10 2 0 4 5 4 10 0 6 -5 10 -11 10 -5 0
-7 -4 -4 -10z"/>
<path d="M2380 1140 c0 -6 6 -10 13 -10 8 0 7 -3 -3 -10 -12 -7 -12 -12 -2
-22 9 -9 12 -9 12 3 0 12 2 12 11 -1 9 -12 10 -12 5 3 -3 10 -6 22 -6 27 0 4
-7 10 -15 14 -8 3 -15 1 -15 -4z"/>
<path d="M2470 1140 c0 -5 5 -10 11 -10 5 0 7 -4 4 -10 -3 -5 0 -10 8 -10 8 0
17 9 20 20 4 16 0 20 -19 20 -13 0 -24 -4 -24 -10z"/>
<path d="M2700 994 c0 -8 5 -12 10 -9 6 3 10 10 10 16 0 5 -4 9 -10 9 -5 0
-10 -7 -10 -16z"/>
<path d="M2740 976 c0 -19 5 -38 10 -41 6 -4 10 8 10 29 0 19 -4 38 -10 41 -6
4 -10 -8 -10 -29z"/>
<path d="M3727 982 c-14 -14 -22 -14 -48 -5 -35 13 -63 7 -55 -13 3 -9 0 -11
-11 -7 -10 4 -14 2 -10 -4 8 -13 117 -15 117 -2 0 6 5 7 11 3 21 -12 98 -10
103 3 3 7 15 13 26 13 12 0 19 4 15 9 -3 6 -13 9 -23 9 -9 0 -38 2 -63 5 -35
5 -49 2 -62 -11z"/>
<path d="M2445 980 c3 -5 10 -10 16 -10 5 0 9 5 9 10 0 6 -7 10 -16 10 -8 0
-12 -4 -9 -10z"/>
<path d="M6067 984 c-1 -1 -92 -5 -202 -9 -110 -4 -220 -8 -245 -10 -25 -1
-124 -5 -220 -9 -259 -11 -302 -14 -313 -25 -27 -27 54 -39 188 -29 50 3 190
9 313 13 180 6 222 5 222 -6 0 -8 5 -6 13 6 11 14 16 15 22 5 5 -7 10 -8 14
-2 9 14 189 22 196 8 3 -8 7 -7 11 2 3 7 24 12 50 12 28 0 43 -4 39 -10 -3 -5
-1 -10 4 -10 6 0 11 5 11 10 0 6 11 10 25 10 14 0 25 -4 25 -10 0 -5 13 -10
29 -10 25 0 29 4 26 21 -9 45 -23 50 -118 47 -49 -2 -89 -4 -90 -4z"/>
<path d="M5238 973 c7 -3 16 -2 19 1 4 3 -2 6 -13 5 -11 0 -14 -3 -6 -6z"/>
<path d="M5338 973 c7 -3 16 -2 19 1 4 3 -2 6 -13 5 -11 0 -14 -3 -6 -6z"/>
<path d="M2690 925 c0 -19 4 -35 8 -35 4 0 6 16 4 35 -2 19 -6 35 -8 35 -2 0
-4 -16 -4 -35z"/>
<path d="M3848 953 c6 -2 18 -2 25 0 6 3 1 5 -13 5 -14 0 -19 -2 -12 -5z"/>
<path d="M6093 923 c9 -2 25 -2 35 0 9 3 1 5 -18 5 -19 0 -27 -2 -17 -5z"/>
<path d="M6188 923 c7 -3 16 -2 19 1 4 3 -2 6 -13 5 -11 0 -14 -3 -6 -6z"/>
<path d="M2730 905 c0 -8 5 -15 10 -15 6 0 10 7 10 15 0 8 -4 15 -10 15 -5 0
-10 -7 -10 -15z"/>
<path d="M4931 883 c-6 -21 -13 -56 -16 -78 -3 -23 3 -9 15 34 11 41 18 76 16
79 -3 2 -9 -13 -15 -35z"/>
<path d="M5878 913 c7 -3 16 -2 19 1 4 3 -2 6 -13 5 -11 0 -14 -3 -6 -6z"/>
<path d="M4946 806 c-16 -57 -27 -109 -24 -116 2 -6 16 38 32 100 16 61 27
113 24 115 -2 2 -17 -42 -32 -99z"/>
<path d="M6158 905 c-4 -3 -228 -14 -413 -20 -77 -3 -178 -7 -225 -10 -47 -2
-156 -7 -243 -11 -87 -4 -160 -11 -163 -15 -9 -14 16 -50 29 -42 19 12 151 10
160 -1 4 -7 10 -6 17 4 9 13 11 13 20 0 6 -10 10 -11 10 -2 0 9 19 11 73 8 39
-2 78 1 85 7 9 7 12 4 12 -9 0 -14 3 -15 8 -6 5 7 16 10 25 6 10 -3 17 -1 17
5 0 6 5 11 11 11 5 0 7 -4 4 -10 -3 -5 0 -10 9 -10 8 0 17 6 19 13 4 10 6 10
6 0 1 -7 6 -13 12 -13 5 0 7 5 4 11 -4 6 9 10 37 10 23 1 101 3 172 6 99 3
131 1 137 -9 7 -10 9 -8 9 6 0 15 3 16 15 6 10 -9 15 -9 15 -1 0 6 14 11 30
11 17 0 30 -5 30 -12 0 -9 4 -8 11 2 8 11 12 12 16 3 2 -7 9 -13 14 -13 6 0 7
5 4 10 -9 14 8 13 23 -2 9 -9 12 -9 12 4 0 11 7 14 28 10 15 -3 30 -10 34 -16
5 -7 8 -4 8 7 0 23 12 22 28 -3 11 -19 9 -20 -30 -22 -24 -1 -59 -3 -78 -4
-19 -1 -120 -5 -225 -8 -104 -4 -203 -9 -220 -11 -16 -2 -109 -7 -205 -10
-264 -8 -362 -15 -383 -27 -42 -22 2 -31 143 -29 97 1 140 -1 135 -8 -3 -6 -2
-11 4 -11 5 0 12 6 15 13 5 10 7 10 12 0 8 -19 24 -16 24 5 0 15 2 15 11 2 8
-11 12 -12 16 -2 2 6 17 12 33 12 16 0 31 -6 33 -12 4 -10 6 -10 6 0 1 6 8 12
17 12 8 0 12 -4 9 -10 -3 -5 1 -10 10 -10 9 0 13 5 10 10 -3 6 -1 10 4 10 6 0
11 -6 11 -12 0 -9 4 -8 11 2 8 11 12 12 16 3 7 -18 26 -16 19 2 -3 9 0 15 9
15 8 0 15 -8 15 -17 0 -15 1 -15 14 2 13 18 13 18 25 -1 8 -13 11 -14 8 -3 -5
14 10 17 111 22 65 2 118 1 120 -4 2 -5 34 -8 70 -7 l67 1 -65 7 c-52 5 -57 7
-25 9 22 1 52 4 68 6 18 2 27 -1 27 -11 0 -8 5 -14 11 -14 6 0 9 7 5 15 -3 9
0 15 9 15 7 0 16 -8 18 -17 4 -17 5 -17 6 0 1 12 10 17 32 17 17 0 28 -4 24
-10 -4 -6 12 -10 39 -10 26 0 46 -5 46 -11 0 -6 -21 -10 -52 -9 -29 1 -55 1
-58 0 -3 -2 -42 -4 -86 -5 -45 -2 -106 -6 -135 -9 -30 -3 -133 -8 -229 -11
-96 -3 -206 -7 -245 -10 -38 -2 -131 -7 -205 -10 -74 -4 -138 -9 -142 -11 -16
-10 -7 -34 15 -39 12 -3 50 -4 85 -2 50 4 64 1 72 -12 8 -14 9 -14 10 2 0 20
16 23 23 5 4 -10 6 -10 6 0 1 14 31 17 31 2 0 -5 5 -10 11 -10 5 0 7 5 4 10
-3 6 1 10 10 10 9 0 13 -4 10 -10 -3 -5 -1 -10 4 -10 6 0 11 8 11 18 1 16 2
16 14 -1 13 -17 14 -17 18 -1 3 17 4 17 21 0 15 -15 17 -15 17 -2 0 13 14 16
85 16 50 0 85 -4 85 -10 0 -5 4 -10 10 -10 5 0 7 8 4 18 -5 16 -5 16 9 0 17
-22 27 -23 27 -3 0 18 46 21 54 3 5 -10 7 -10 12 0 3 7 25 12 55 12 31 0 48
-4 44 -10 -3 -5 1 -10 10 -10 9 0 13 5 10 10 -4 6 5 10 19 10 14 0 26 -4 26
-10 0 -5 4 -10 10 -10 5 0 7 7 4 15 -4 9 0 15 10 15 9 0 16 -7 16 -16 0 -8 5
-12 10 -9 6 4 8 11 5 16 -4 5 0 9 7 9 8 0 14 -9 15 -20 1 -17 -5 -20 -35 -21
-20 0 -48 -2 -62 -4 -14 -1 -106 -6 -205 -9 -99 -4 -209 -9 -245 -11 -36 -3
-119 -7 -184 -10 -66 -3 -123 -8 -127 -11 -5 -2 -4 -15 1 -28 5 -13 6 -27 3
-30 -4 -3 1 -6 11 -6 9 0 14 5 11 10 -4 6 6 10 24 10 16 0 32 -6 34 -12 3 -8
6 -6 6 5 1 17 21 25 21 8 0 -5 14 -9 30 -9 17 1 30 5 30 10 0 16 82 9 96 -9
12 -16 13 -16 14 -2 0 15 10 16 75 12 52 -4 75 -2 75 6 0 6 5 11 11 11 5 0 7
-4 4 -10 -3 -5 1 -10 10 -10 9 0 13 5 10 10 -3 6 1 10 10 10 9 0 13 -4 10 -10
-3 -5 -1 -10 4 -10 6 0 11 5 11 10 0 17 18 11 23 -7 4 -17 5 -17 6 0 1 19 16
23 27 6 4 -8 9 -7 15 2 8 12 11 11 19 -1 9 -13 11 -13 20 0 8 13 11 13 19 1 7
-11 10 -10 18 4 9 16 10 16 16 0 4 -9 11 -13 17 -10 6 4 8 11 5 16 -4 5 -1 9
4 9 6 0 11 -4 11 -10 0 -5 5 -10 11 -10 5 0 7 5 4 10 -9 14 9 12 23 -2 10 -10
15 -10 22 2 5 8 10 10 10 4 0 -18 60 -13 60 5 0 14 1 14 10 1 12 -19 63 -22
56 -3 -7 18 90 18 97 1 4 -10 8 -10 15 0 7 11 11 10 16 -4 3 -9 5 -18 4 -19
-2 -2 -79 -6 -173 -9 -93 -4 -183 -8 -200 -10 -16 -2 -115 -7 -220 -11 -104
-4 -203 -8 -220 -10 -16 -2 -69 -5 -117 -6 -64 -1 -91 -6 -100 -16 -10 -12 -9
-18 5 -28 9 -7 17 -17 17 -24 0 -6 7 -11 16 -11 13 0 14 3 5 14 -11 13 3 15
94 18 87 2 109 0 116 -12 7 -13 8 -12 9 3 0 9 5 17 10 17 6 0 10 -4 10 -10 0
-5 5 -10 11 -10 5 0 7 5 4 10 -4 6 22 10 70 10 48 0 74 -4 70 -10 -3 -6 -1
-10 4 -10 6 0 11 5 11 10 0 6 5 10 11 10 5 0 7 -5 4 -11 -5 -7 3 -9 21 -7 17
2 28 8 26 16 -3 18 25 15 32 -4 11 -28 7 -30 -51 -30 -101 0 -454 -21 -459
-27 -6 -8 10 -77 18 -77 6 0 8 7 4 15 -3 9 0 15 9 15 8 0 15 -6 15 -13 0 -9
10 -12 30 -9 17 2 27 9 23 15 -4 6 3 8 20 3 16 -4 27 -1 30 7 3 7 6 5 6 -5 1
-21 21 -25 21 -4 0 18 155 23 165 5 6 -8 10 -8 15 2 7 10 12 10 23 1 12 -10
16 -9 21 4 6 16 8 15 21 -2 13 -17 14 -17 15 -1 0 18 20 25 20 7 0 -5 5 -10
11 -10 5 0 7 5 4 10 -3 6 -2 10 4 10 5 0 12 -6 14 -12 4 -10 8 -9 17 2 9 11
13 12 17 3 2 -7 11 -13 19 -13 9 0 12 5 9 10 -3 6 -2 10 4 10 5 0 12 -6 14
-12 4 -10 8 -9 17 2 9 11 13 12 17 3 7 -19 23 -16 23 5 1 16 1 16 14 0 14 -18
27 -24 25 -10 -4 21 3 24 16 6 13 -17 14 -17 15 -1 0 22 16 22 24 1 10 -27 44
-23 -375 -44 -119 -6 -236 -11 -260 -11 -71 0 -99 -8 -99 -30 0 -12 7 -19 20
-19 11 0 20 -7 20 -15 0 -9 9 -15 25 -15 14 0 25 4 25 9 0 5 14 11 30 13 32 5
42 -7 13 -16 -10 -2 -4 -4 12 -3 18 1 29 7 28 15 -2 8 12 12 47 12 28 0 50 -4
50 -10 0 -5 11 -10 25 -10 17 0 25 6 25 18 1 16 1 16 14 -1 7 -9 19 -17 26
-17 10 0 10 3 0 15 -7 8 -9 15 -5 15 4 0 13 -7 20 -17 7 -9 17 -13 25 -8 10 6
9 9 -1 16 -9 6 -2 9 21 8 28 0 31 -2 15 -8 -14 -6 1 -10 48 -12 38 -2 71 -1
73 3 3 4 -19 9 -48 11 l-53 3 58 2 c32 1 57 -2 57 -8 0 -5 4 -10 10 -10 5 0 7
7 4 15 -4 9 0 15 10 15 9 0 13 -6 10 -14 -8 -21 128 -17 137 4 6 13 8 12 14
-3 4 -10 5 -20 2 -23 -3 -4 -70 -8 -149 -10 -79 -2 -174 -6 -213 -10 -38 -3
-115 -8 -170 -10 -118 -4 -191 -11 -204 -18 -10 -6 -3 -46 8 -44 20 2 30 -4
25 -17 -4 -10 0 -15 11 -15 11 0 15 5 11 15 -3 9 0 15 9 15 8 0 15 -7 15 -16
0 -8 5 -12 10 -9 6 4 8 11 5 16 -4 5 1 9 9 9 9 0 16 -4 16 -10 0 -5 13 -10 30
-10 22 0 28 4 24 15 -4 8 -1 15 5 15 6 0 11 -4 11 -9 0 -5 3 -16 6 -25 5 -14
-4 -16 -67 -16 -41 0 -84 -3 -96 -6 -28 -8 -31 -44 -4 -51 11 -3 22 -17 26
-31 6 -25 8 -26 19 -9 16 21 26 22 26 2 0 -13 78 -15 641 -15 607 0 641 1 634
18 -5 9 -21 57 -37 107 -16 50 -35 106 -42 125 -25 66 -38 105 -50 150 -7 25
-18 56 -25 67 -6 12 -11 30 -11 41 0 11 -7 25 -15 32 -8 7 -15 27 -15 45 0 18
-7 38 -15 45 -8 7 -15 23 -15 37 0 13 -5 34 -12 46 -6 12 -13 35 -15 51 -2 16
-9 37 -16 45 -7 9 -14 30 -16 46 -1 17 -6 33 -10 37 -6 7 -127 19 -133 13z
m152 -230 c-9 -10 -9 -15 -1 -15 6 0 11 -4 11 -9 0 -5 -31 -9 -69 -10 -61 -1
-69 1 -74 19 -3 13 0 20 9 20 8 0 14 -7 14 -15 0 -8 5 -15 11 -15 6 0 9 7 6
14 -5 12 6 16 46 19 29 2 54 4 56 5 2 1 -2 -5 -9 -13z m-198 -14 c7 11 11 11
15 2 2 -7 9 -13 14 -13 6 0 8 4 4 9 -3 5 -1 12 4 15 10 6 25 -23 16 -32 -2 -3
-32 -6 -65 -8 -53 -3 -60 -1 -60 16 0 23 41 32 54 11 7 -11 10 -11 18 0z m129
-95 c1 5 1 12 0 17 0 4 4 7 9 7 6 0 10 -7 10 -15 0 -11 7 -14 25 -9 15 4 25 2
25 -5 0 -6 -17 -11 -40 -11 -22 0 -43 -1 -47 -2 -5 -2 -9 8 -11 22 -2 24 -2
24 13 6 8 -11 16 -16 16 -10z m-191 10 c0 -3 -4 -8 -10 -11 -5 -3 -10 -1 -10
4 0 6 5 11 10 11 6 0 10 -2 10 -4z m295 -16 c-3 -5 -10 -10 -16 -10 -5 0 -9 5
-9 10 0 6 7 10 16 10 8 0 12 -4 9 -10z m-161 -86 c11 -28 38 -25 -320 -41
-127 -5 -131 -5 -137 16 -3 14 0 21 10 21 8 0 11 -4 8 -10 -3 -5 1 -10 10 -10
9 0 13 5 10 10 -3 6 1 10 9 10 9 0 15 -5 14 -12 -3 -10 11 -12 72 -9 11 1 20
8 20 16 0 8 5 15 11 15 5 0 7 -4 4 -10 -3 -5 -2 -10 4 -10 5 0 12 6 14 13 4 9
8 8 17 -3 9 -11 13 -12 17 -2 2 6 17 12 31 11 l27 -1 -25 -8 c-14 -5 -18 -9
-10 -10 25 -4 45 1 53 13 6 9 10 9 14 0 2 -7 9 -13 14 -13 6 0 7 5 4 10 -3 6
0 10 9 10 8 0 16 -6 18 -12 3 -9 9 -8 22 5 22 22 72 22 80 1z m73 10 c-3 -3
-12 -4 -19 -1 -8 3 -5 6 6 6 11 1 17 -2 13 -5z m33 -5 c0 -6 9 -9 20 -6 11 3
20 0 20 -6 0 -7 -18 -12 -45 -12 -25 0 -45 3 -45 7 0 5 9 8 21 8 11 0 17 5 14
10 -3 6 -1 10 4 10 6 0 11 -5 11 -11z m-440 -9 c0 -5 -12 -10 -27 -9 l-28 1
25 8 c14 4 26 8 28 9 1 1 2 -3 2 -9z m525 0 c3 -5 -1 -10 -9 -10 -9 0 -16 5
-16 10 0 6 4 10 9 10 6 0 13 -4 16 -10z m-700 -10 c3 -5 -1 -10 -9 -10 -9 0
-16 5 -16 10 0 6 4 10 9 10 6 0 13 -4 16 -10z m555 0 c0 -5 -4 -10 -10 -10 -5
0 -10 5 -10 10 0 6 5 10 10 10 6 0 10 -4 10 -10z m31 -90 c5 0 9 8 9 18 1 16
1 16 10 0 8 -13 21 -15 70 -11 39 3 60 1 60 -6 0 -6 -22 -11 -52 -11 -29 -1
-110 -3 -180 -7 -125 -5 -128 -5 -128 16 0 25 19 29 21 4 1 -17 2 -17 6 0 2 9
11 17 19 17 8 0 12 -4 9 -10 -4 -6 13 -10 44 -10 34 0 51 4 52 13 0 10 2 10 6
0 7 -19 33 -16 34 5 1 16 2 16 6 0 2 -10 9 -18 14 -18z m-288 -10 c4 0 5 5 1
11 -4 7 -1 10 7 7 8 -3 15 -11 17 -20 2 -11 -6 -15 -28 -16 -24 0 -30 3 -30
21 0 16 3 18 12 9 7 -7 16 -12 21 -12z m64 -17 c-3 -3 -11 -2 -17 2 -9 6 -9
10 1 16 14 8 27 -7 16 -18z m-750 1 c-3 -3 -12 -4 -19 -1 -8 3 -5 6 6 6 11 1
17 -2 13 -5z m883 -70 c0 -8 5 -14 10 -14 6 0 10 4 10 9 0 4 20 8 45 8 25 0
45 -4 45 -8 0 -5 -6 -10 -12 -10 -7 -1 -24 -3 -38 -4 -14 -2 -71 -5 -127 -9
-87 -5 -103 -3 -103 9 0 18 12 19 28 3 9 -9 12 -7 12 10 0 12 5 22 11 22 5 0
7 -4 4 -10 -3 -5 1 -10 10 -10 9 0 13 5 10 10 -3 6 -1 10 4 10 6 0 11 -4 11
-10 0 -5 16 -10 35 -10 28 0 33 3 28 17 -4 11 -3 14 5 9 7 -4 12 -14 12 -22z
m-33 10 c-3 -3 -12 -4 -19 -1 -8 3 -5 6 6 6 11 1 17 -2 13 -5z m-230 -10 c-3
-3 -12 -4 -19 -1 -8 3 -5 6 6 6 11 1 17 -2 13 -5z m77 -10 c4 -9 4 -19 2 -21
-8 -8 -26 8 -26 23 0 19 16 18 24 -2z m416 6 c0 -5 -22 -10 -50 -10 -27 0 -50
4 -50 8 0 4 23 9 50 10 28 1 50 -2 50 -8z m40 6 c0 -11 -19 -15 -25 -6 -3 5 1
10 9 10 9 0 16 -2 16 -4z m-945 -16 c3 -5 -1 -10 -10 -10 -9 0 -13 5 -10 10 3
6 8 10 10 10 2 0 7 -4 10 -10z m-228 -16 c-3 -3 -12 -4 -19 -1 -8 3 -5 6 6 6
11 1 17 -2 13 -5z m928 -54 c3 -5 1 -10 -4 -10 -6 0 -11 5 -11 10 0 6 2 10 4
10 3 0 8 -4 11 -10z m78 -7 c-5 -13 -2 -15 15 -11 12 4 25 2 28 -3 3 -5 -10
-9 -28 -9 -27 0 -34 4 -34 20 0 11 6 20 13 20 7 0 10 -7 6 -17z m-156 1 c-3
-3 -12 -4 -19 -1 -8 3 -5 6 6 6 11 1 17 -2 13 -5z m-297 -14 c0 -5 -5 -10 -11
-10 -5 0 -7 5 -4 10 3 6 8 10 11 10 2 0 4 -4 4 -10z m40 -4 c0 -10 9 -13 28
-11 40 5 40 7 7 15 l-30 8 31 1 c19 1 34 -5 37 -13 4 -9 14 -12 26 -9 12 3 21
1 21 -6 0 -6 -8 -11 -17 -12 -10 0 -48 -2 -86 -3 -37 -2 -70 1 -73 5 -3 5 5 9
16 9 16 0 20 5 16 15 -3 9 0 15 9 15 8 0 15 -6 15 -14z m-230 -10 c0 -10 9
-13 28 -11 15 2 37 4 50 4 13 1 20 5 17 11 -3 6 1 10 9 10 9 0 15 -6 14 -12
-2 -8 6 -12 20 -10 12 2 22 -2 22 -7 0 -6 -17 -12 -37 -12 -21 -1 -79 -3 -130
-4 -50 -2 -116 -6 -146 -9 -52 -5 -55 -4 -60 19 -4 23 -1 25 29 25 23 0 34 -5
34 -14 0 -10 9 -13 28 -11 15 2 46 4 69 4 33 1 41 4 37 16 -4 8 -1 15 5 15 6
0 11 -6 11 -14z m37 8 c-3 -3 -12 -4 -19 -1 -8 3 -5 6 6 6 11 1 17 -2 13 -5z
m40 0 c-3 -3 -12 -4 -19 -1 -8 3 -5 6 6 6 11 1 17 -2 13 -5z m463 -4 c0 -5
-15 -10 -34 -10 -19 0 -41 -3 -50 -6 -9 -3 -16 -1 -16 4 0 11 26 18 73 21 15
0 27 -3 27 -9z m66 2 c-10 -10 -45 -12 -50 -3 -3 4 8 8 25 9 17 0 28 -2 25 -6z
m-719 -8 c-3 -3 -12 -4 -19 -1 -8 3 -5 6 6 6 11 1 17 -2 13 -5z m539 -2 c-7
-12 -66 -13 -66 -1 0 5 16 9 36 9 19 0 33 -4 30 -8z m403 -74 c12 -15 11 -18
-3 -18 -10 0 -16 8 -16 22 0 12 1 19 3 17 1 -2 9 -12 16 -21z m-462 -4 c-3 -3
-12 -4 -19 -1 -8 3 -5 6 6 6 11 1 17 -2 13 -5z m378 -4 c3 -5 1 -10 -4 -10 -6
0 -11 5 -11 10 0 6 2 10 4 10 3 0 8 -4 11 -10z m50 0 c3 -5 -1 -10 -9 -10 -9
0 -16 5 -16 10 0 6 4 10 9 10 6 0 13 -4 16 -10z m-658 -6 c-3 -3 -12 -4 -19
-1 -8 3 -5 6 6 6 11 1 17 -2 13 -5z m40 0 c-3 -3 -12 -4 -19 -1 -8 3 -5 6 6 6
11 1 17 -2 13 -5z m43 -11 c8 -13 13 -14 16 -5 6 13 24 7 24 -9 0 -5 -22 -9
-50 -9 -28 0 -50 5 -50 10 0 6 6 10 13 9 6 -1 19 -1 27 0 13 1 13 2 0 11 -9 6
-10 10 -3 10 7 0 17 -8 23 -17z m240 -4 c0 -4 -7 -6 -15 -3 -8 4 -15 10 -15
15 0 4 7 6 15 3 8 -4 15 -10 15 -15z m140 10 c0 -5 -6 -9 -12 -10 -7 0 -28 -2
-45 -3 -37 -4 -46 11 -10 16 46 6 67 6 67 -3z m45 1 c3 -5 -1 -10 -10 -10 -9
0 -13 5 -10 10 3 6 8 10 10 10 2 0 7 -4 10 -10z m35 0 c0 -5 -4 -10 -10 -10
-5 0 -10 5 -10 10 0 6 5 10 10 10 6 0 10 -4 10 -10z m-385 -10 c3 -5 1 -10 -4
-10 -6 0 -11 5 -11 10 0 6 2 10 4 10 3 0 8 -4 11 -10z m40 0 c3 -5 -1 -10 -9
-10 -9 0 -16 5 -16 10 0 6 4 10 9 10 6 0 13 -4 16 -10z m40 0 c3 -5 -1 -10 -9
-10 -9 0 -16 5 -16 10 0 6 4 10 9 10 6 0 13 -4 16 -10z m45 0 c0 -5 -7 -10
-15 -10 -8 0 -15 5 -15 10 0 6 7 10 15 10 8 0 15 -4 15 -10z m70 0 c0 -5 -4
-10 -10 -10 -5 0 -10 5 -10 10 0 6 5 10 10 10 6 0 10 -4 10 -10z m-386 -21
c-3 -5 -10 -7 -15 -3 -5 3 -7 10 -3 15 3 5 10 7 15 3 5 -3 7 -10 3 -15z m44 3
c2 -7 -3 -12 -12 -12 -9 0 -16 7 -16 16 0 17 22 14 28 -4z m-428 -12 c0 -5 -4
-10 -9 -10 -6 0 -13 5 -16 10 -3 6 1 10 9 10 9 0 16 -4 16 -10z m35 0 c3 -5 1
-10 -4 -10 -6 0 -11 5 -11 10 0 6 2 10 4 10 3 0 8 -4 11 -10z m35 0 c0 -5 -5
-10 -11 -10 -5 0 -7 5 -4 10 3 6 8 10 11 10 2 0 4 -4 4 -10z"/>
<path d="M6240 660 c0 -5 5 -10 10 -10 6 0 10 5 10 10 0 6 -4 10 -10 10 -5 0
-10 -4 -10 -10z"/>
<path d="M6120 469 c0 -5 5 -7 10 -4 6 3 10 8 10 11 0 2 -4 4 -10 4 -5 0 -10
-5 -10 -11z"/>
<path d="M6155 470 c3 -5 8 -10 11 -10 2 0 4 5 4 10 0 6 -5 10 -11 10 -5 0 -7
-4 -4 -10z"/>
<path d="M5440 140 c0 -5 5 -10 10 -10 6 0 10 5 10 10 0 6 -4 10 -10 10 -5 0
-10 -4 -10 -10z"/>
<path d="M2430 889 c0 -5 5 -7 10 -4 6 3 10 8 10 11 0 2 -4 4 -10 4 -5 0 -10
-5 -10 -11z"/>
<path d="M4995 854 c-8 -20 -15 -40 -15 -45 0 -5 -11 -48 -25 -95 -24 -84 -31
-123 -19 -111 3 3 10 20 14 39 15 58 49 182 59 216 13 43 5 41 -14 -4z"/>
<path d="M4060 856 c0 -9 5 -16 10 -16 6 0 10 4 10 9 0 6 -4 13 -10 16 -5 3
-10 -1 -10 -9z"/>
<path d="M4140 855 c0 -8 5 -15 10 -15 6 0 10 7 10 15 0 8 -4 15 -10 15 -5 0
-10 -7 -10 -15z"/>
<path d="M2682 840 c0 -14 2 -19 5 -12 2 6 2 18 0 25 -3 6 -5 1 -5 -13z"/>
<path d="M3790 844 c0 -8 5 -12 10 -9 6 4 8 11 5 16 -9 14 -15 11 -15 -7z"/>
<path d="M3836 845 c4 -8 10 -12 15 -9 11 6 2 24 -11 24 -5 0 -7 -7 -4 -15z"/>
<path d="M3880 850 c0 -5 5 -10 10 -10 6 0 10 5 10 10 0 6 -4 10 -10 10 -5 0
-10 -4 -10 -10z"/>
<path d="M3920 850 c0 -5 5 -10 10 -10 6 0 10 5 10 10 0 6 -4 10 -10 10 -5 0
-10 -4 -10 -10z"/>
<path d="M3970 850 c0 -5 5 -10 10 -10 6 0 10 5 10 10 0 6 -4 10 -10 10 -5 0
-10 -4 -10 -10z"/>
<path d="M4010 850 c0 -5 5 -10 10 -10 6 0 10 5 10 10 0 6 -4 10 -10 10 -5 0
-10 -4 -10 -10z"/>
<path d="M4100 850 c0 -5 5 -10 10 -10 6 0 10 5 10 10 0 6 -4 10 -10 10 -5 0
-10 -4 -10 -10z"/>
<path d="M2360 840 c0 -5 5 -10 11 -10 5 0 7 5 4 10 -3 6 -8 10 -11 10 -2 0
-4 -4 -4 -10z"/>
<path d="M3700 840 c0 -5 5 -10 10 -10 6 0 10 5 10 10 0 6 -4 10 -10 10 -5 0
-10 -4 -10 -10z"/>
<path d="M3750 840 c0 -5 5 -10 11 -10 5 0 7 5 4 10 -3 6 -8 10 -11 10 -2 0
-4 -4 -4 -10z"/>
<path d="M4104 809 c-3 -6 -1 -16 5 -22 8 -8 11 -5 11 11 0 24 -5 28 -16 11z"/>
<path d="M4150 800 c0 -11 5 -20 10 -20 6 0 10 9 10 20 0 11 -4 20 -10 20 -5
0 -10 -9 -10 -20z"/>
<path d="M5030 805 c0 -8 -4 -15 -8 -15 -4 0 -14 -21 -21 -47 -7 -27 -22 -75
-32 -107 -11 -33 -19 -66 -19 -74 0 -33 15 3 46 110 18 62 37 114 43 116 14 5
14 32 1 32 -5 0 -10 -7 -10 -15z"/>
<path d="M2213 795 c-3 -9 -3 -18 -1 -21 3 -3 8 4 11 16 6 23 -1 27 -10 5z"/>
<path d="M3570 786 c0 -9 5 -16 10 -16 6 0 10 4 10 9 0 6 -4 13 -10 16 -5 3
-10 -1 -10 -9z"/>
<path d="M3616 785 c-3 -8 -1 -15 4 -15 6 0 10 7 10 15 0 8 -2 15 -4 15 -2 0
-6 -7 -10 -15z"/>
<path d="M3795 790 c-3 -5 -1 -10 4 -10 6 0 11 5 11 10 0 6 -2 10 -4 10 -3 0
-8 -4 -11 -10z"/>
<path d="M2670 751 c0 -25 6 -27 13 -6 4 8 2 17 -3 20 -6 4 -10 -3 -10 -14z"/>
<path d="M2423 753 c9 -2 25 -2 35 0 9 3 1 5 -18 5 -19 0 -27 -2 -17 -5z"/>
<path d="M3970 735 c0 -9 5 -15 11 -13 6 2 11 8 11 13 0 5 -5 11 -11 13 -6 2
-11 -4 -11 -13z"/>
<path d="M4026 741 c-4 -7 -5 -15 -2 -18 9 -9 19 4 14 18 -4 11 -6 11 -12 0z"/>
<path d="M3795 729 c-9 -14 -2 -20 14 -10 8 6 9 11 3 15 -6 3 -14 1 -17 -5z"/>
<path d="M3840 730 c0 -5 5 -10 11 -10 5 0 7 5 4 10 -3 6 -8 10 -11 10 -2 0
-4 -4 -4 -10z"/>
<path d="M4060 730 c0 -5 5 -10 10 -10 6 0 10 5 10 10 0 6 -4 10 -10 10 -5 0
-10 -4 -10 -10z"/>
<path d="M5036 713 c-21 -43 -78 -240 -74 -260 3 -17 78 220 78 246 0 7 5 9
10 6 6 -3 10 3 10 14 0 28 -7 26 -24 -6z"/>
<path d="M2408 705 c-3 -14 -1 -25 3 -25 5 0 9 11 9 25 0 14 -2 25 -4 25 -2 0
-6 -11 -8 -25z"/>
<path d="M5498 723 c7 -3 16 -2 19 1 4 3 -2 6 -13 5 -11 0 -14 -3 -6 -6z"/>
<path d="M2751 643 c0 -12 -4 -30 -7 -40 -5 -14 -4 -15 5 -7 7 6 11 24 8 40
-3 21 -4 23 -6 7z"/>
<path d="M2784 639 c-3 -6 -1 -16 5 -22 8 -8 11 -5 11 11 0 24 -5 28 -16 11z"/>
<path d="M3935 640 c-3 -5 -1 -10 4 -10 6 0 11 5 11 10 0 6 -2 10 -4 10 -3 0
-8 -4 -11 -10z"/>
<path d="M3985 640 c-3 -5 -1 -10 4 -10 6 0 11 5 11 10 0 6 -2 10 -4 10 -3 0
-8 -4 -11 -10z"/>
<path d="M5051 624 c-24 -52 -81 -238 -80 -264 0 -14 23 40 50 120 46 135 62
212 30 144z"/>
<path d="M5808 643 c6 -2 18 -2 25 0 6 3 1 5 -13 5 -14 0 -19 -2 -12 -5z"/>
<path d="M2300 607 c0 -13 3 -17 8 -11 4 6 14 13 22 16 10 3 8 6 -8 10 -18 5
-22 2 -22 -15z"/>
<path d="M2411 600 c1 -17 3 -19 6 -7 2 9 11 17 19 17 8 0 14 4 14 8 0 4 -9 8
-20 8 -15 0 -20 -7 -19 -26z"/>
<path d="M4230 600 c0 -5 5 -10 10 -10 6 0 10 5 10 10 0 6 -4 10 -10 10 -5 0
-10 -4 -10 -10z"/>
<path d="M3941 584 c0 -11 3 -14 6 -6 3 7 2 16 -1 19 -3 4 -6 -2 -5 -13z"/>
<path d="M3980 585 c0 -8 5 -15 10 -15 6 0 10 7 10 15 0 8 -4 15 -10 15 -5 0
-10 -7 -10 -15z"/>
<path d="M4120 590 c0 -5 5 -10 11 -10 5 0 7 5 4 10 -3 6 -8 10 -11 10 -2 0
-4 -4 -4 -10z"/>
<path d="M3800 574 c0 -8 5 -12 10 -9 6 4 8 11 5 16 -9 14 -15 11 -15 -7z"/>
<path d="M1483 544 c-1 -20 -6 -40 -13 -44 -8 -5 -7 -11 4 -23 9 -8 16 -20 16
-25 0 -5 17 -14 38 -20 35 -11 118 -82 95 -82 -6 0 -16 6 -22 14 -7 8 -27 18
-44 22 -18 3 -36 10 -42 14 -5 4 -29 11 -52 15 -35 5 -43 4 -43 -8 0 -19 31
-31 40 -17 5 8 9 6 13 -4 4 -9 13 -16 22 -16 26 0 81 -37 71 -48 -2 -1 -23 5
-46 14 -41 17 -43 17 -57 -2 -8 -10 -12 -27 -10 -36 3 -10 -2 -23 -10 -30 -13
-10 -13 -14 3 -25 10 -7 28 -13 41 -13 14 0 41 -17 66 -41 29 -29 34 -37 16
-26 -37 22 -143 57 -174 57 -16 0 -25 -6 -25 -15 0 -10 10 -15 28 -15 15 0 33
-5 39 -11 6 -6 17 -11 24 -13 32 -5 59 -18 59 -28 0 -6 -7 -7 -17 -3 -40 16
-76 24 -85 18 -6 -3 -7 -18 -4 -34 3 -17 1 -29 -7 -33 -8 -3 -7 -5 2 -5 11 -1
10 -5 -4 -15 -19 -13 -17 -15 18 -21 20 -4 48 -16 61 -26 23 -18 41 -19 227
-17 154 2 203 6 207 16 2 7 -1 11 -8 10 -7 -2 -17 5 -23 14 -9 13 -8 20 2 30
9 8 12 9 7 1 -7 -14 10 -28 18 -14 3 5 8 24 11 43 6 34 5 35 -30 36 -30 1 -35
-2 -35 -21 0 -18 2 -19 10 -7 8 12 10 12 10 1 0 -11 3 -11 15 -1 12 10 15 10
15 -4 0 -12 -9 -16 -35 -16 -29 0 -36 5 -51 36 -35 73 -202 290 -235 306 -15
6 -25 17 -23 23 3 6 -4 22 -16 35 -11 13 -20 27 -20 31 0 5 -7 6 -15 3 -10 -4
-15 0 -15 12 0 37 -16 44 -17 8z m117 -314 c0 -11 -4 -20 -10 -20 -5 0 -10 9
-10 20 0 11 5 20 10 20 6 0 10 -9 10 -20z m-120 -180 c8 -5 11 -10 5 -10 -5 0
-17 5 -25 10 -8 5 -10 10 -5 10 6 0 17 -5 25 -10z m80 -7 c-1 -18 -18 -35 -24
-24 -4 6 -4 15 -1 21 7 12 25 13 25 3z"/>
<path d="M2390 570 c0 -6 7 -10 15 -10 8 0 15 2 15 4 0 2 -7 6 -15 10 -8 3
-15 1 -15 -4z"/>
<path d="M2740 556 c0 -14 5 -26 10 -26 6 0 10 9 10 19 0 11 -4 23 -10 26 -6
4 -10 -5 -10 -19z"/>
<path d="M2782 550 c0 -19 2 -27 5 -17 2 9 2 25 0 35 -3 9 -5 1 -5 -18z"/>
<path d="M4205 560 c-3 -5 -1 -10 4 -10 6 0 11 5 11 10 0 6 -2 10 -4 10 -3 0
-8 -4 -11 -10z"/>
<path d="M6080 566 c0 -2 7 -7 16 -10 8 -3 12 -2 9 4 -6 10 -25 14 -25 6z"/>
<path d="M1409 555 c-3 -2 -21 -5 -42 -7 -52 -3 -46 -23 8 -24 37 -1 45 2 45
18 0 18 -3 22 -11 13z"/>
<path d="M4240 545 c0 -8 4 -15 10 -15 5 0 7 7 4 15 -4 8 -8 15 -10 15 -2 0
-4 -7 -4 -15z"/>
<path d="M1150 532 c0 -10 19 -12 74 -10 41 2 70 6 64 9 -6 4 -3 9 8 11 10 3
-18 4 -63 4 -61 -1 -83 -4 -83 -14z"/>
<path d="M4127 535 c-4 -8 -2 -17 3 -20 6 -4 10 3 10 14 0 25 -6 27 -13 6z"/>
<path d="M1010 530 c0 -5 5 -10 10 -10 6 0 10 5 10 10 0 6 -4 10 -10 10 -5 0
-10 -4 -10 -10z"/>
<path d="M1050 530 c-12 -8 -9 -10 12 -10 15 0 30 5 33 10 8 13 -25 13 -45 0z"/>
<path d="M2385 530 c4 -6 11 -8 16 -5 14 9 11 15 -7 15 -8 0 -12 -5 -9 -10z"/>
<path d="M3800 526 c0 -9 5 -16 10 -16 6 0 10 4 10 9 0 6 -4 13 -10 16 -5 3
-10 -1 -10 -9z"/>
<path d="M3896 531 c-4 -7 -5 -15 -2 -18 9 -9 19 4 14 18 -4 11 -6 11 -12 0z"/>
<path d="M3940 525 c0 -8 4 -15 10 -15 5 0 7 7 4 15 -4 8 -8 15 -10 15 -2 0
-4 -7 -4 -15z"/>
<path d="M3991 524 c0 -11 3 -14 6 -6 3 7 2 16 -1 19 -3 4 -6 -2 -5 -13z"/>
<path d="M4030 531 c0 -6 5 -13 10 -16 6 -3 10 1 10 9 0 9 -4 16 -10 16 -5 0
-10 -4 -10 -9z"/>
<path d="M4080 530 c0 -5 5 -10 10 -10 6 0 10 5 10 10 0 6 -4 10 -10 10 -5 0
-10 -4 -10 -10z"/>
<path d="M4941 524 c0 -11 3 -14 6 -6 3 7 2 16 -1 19 -3 4 -6 -2 -5 -13z"/>
<path d="M5062 523 c-15 -28 -82 -241 -82 -259 0 -10 2 -15 6 -12 11 12 84
232 84 255 0 14 4 21 10 18 6 -3 10 -1 10 4 0 17 -18 13 -28 -6z"/>
<path d="M5358 533 c7 -3 16 -2 19 1 4 3 -2 6 -13 5 -11 0 -14 -3 -6 -6z"/>
<path d="M5215 520 c3 -5 8 -10 11 -10 2 0 4 5 4 10 0 6 -5 10 -11 10 -5 0 -7
-4 -4 -10z"/>
<path d="M4180 506 c0 -9 5 -16 10 -16 6 0 10 4 10 9 0 6 -4 13 -10 16 -5 3
-10 -1 -10 -9z"/>
<path d="M2720 400 c-11 -106 -7 -150 11 -117 5 9 5 26 -1 41 -6 16 -6 26 0
26 5 0 15 -18 21 -40 7 -21 15 -37 19 -35 9 6 0 58 -11 65 -12 8 -23 90 -12
90 10 0 5 68 -7 75 -4 2 -13 -45 -20 -105z"/>
<path d="M4240 491 c0 -12 5 -21 10 -21 6 0 10 6 10 14 0 8 -4 18 -10 21 -5 3
-10 -3 -10 -14z"/>
<path d="M495 480 c-3 -5 1 -10 9 -10 9 0 16 5 16 10 0 6 -4 10 -9 10 -6 0
-13 -4 -16 -10z"/>
<path d="M2771 461 c-1 -27 2 -32 11 -23 8 8 8 17 0 34 -10 22 -11 21 -11 -11z"/>
<path d="M4080 476 c0 -9 5 -16 10 -16 6 0 10 4 10 9 0 6 -4 13 -10 16 -5 3
-10 -1 -10 -9z"/>
<path d="M386 471 c-3 -5 1 -11 9 -15 8 -3 15 -1 15 4 0 13 -18 22 -24 11z"/>
<path d="M1395 470 c3 -5 11 -10 16 -10 6 0 7 5 4 10 -3 6 -11 10 -16 10 -6 0
-7 -4 -4 -10z"/>
<path d="M2380 470 c0 -5 5 -10 11 -10 5 0 7 5 4 10 -3 6 -8 10 -11 10 -2 0
-4 -4 -4 -10z"/>
<path d="M3940 465 c0 -8 4 -15 10 -15 5 0 7 7 4 15 -4 8 -8 15 -10 15 -2 0
-4 -7 -4 -15z"/>
<path d="M1440 460 c8 -5 22 -10 30 -10 13 0 13 1 0 10 -8 5 -22 10 -30 10
-13 0 -13 -1 0 -10z"/>
<path d="M4210 455 c0 -8 4 -15 10 -15 5 0 7 7 4 15 -4 8 -8 15 -10 15 -2 0
-4 -7 -4 -15z"/>
<path d="M5082 443 c-35 -65 -110 -319 -91 -307 5 3 9 13 9 23 0 9 4 21 8 26
19 21 96 264 87 273 -2 2 -8 -5 -13 -15z"/>
<path d="M5498 443 c7 -3 16 -2 19 1 4 3 -2 6 -13 5 -11 0 -14 -3 -6 -6z"/>
<path d="M5530 439 c0 -5 5 -7 10 -4 6 3 10 8 10 11 0 2 -4 4 -10 4 -5 0 -10
-5 -10 -11z"/>
<path d="M2201 424 c0 -11 3 -14 6 -6 3 7 2 16 -1 19 -3 4 -6 -2 -5 -13z"/>
<path d="M2248 405 c-6 -43 -3 -54 10 -39 5 5 5 25 2 44 l-6 35 -6 -40z"/>
<path d="M2290 430 c0 -5 7 -10 15 -10 8 0 15 5 15 10 0 6 -7 10 -15 10 -8 0
-15 -4 -15 -10z"/>
<path d="M5270 429 c0 -5 5 -7 10 -4 6 3 10 8 10 11 0 2 -4 4 -10 4 -5 0 -10
-5 -10 -11z"/>
<path d="M1367 423 c-13 -12 -7 -23 12 -23 10 0 21 7 25 15 5 15 -24 22 -37 8z"/>
<path d="M3940 405 c0 -8 5 -15 10 -15 6 0 10 7 10 15 0 8 -4 15 -10 15 -5 0
-10 -7 -10 -15z"/>
<path d="M4043 405 c0 -8 4 -12 9 -9 5 3 6 10 3 15 -9 13 -12 11 -12 -6z"/>
<path d="M4130 411 c0 -6 5 -13 10 -16 6 -3 10 1 10 9 0 9 -4 16 -10 16 -5 0
-10 -4 -10 -9z"/>
<path d="M2305 400 c-3 -5 -1 -10 4 -10 6 0 11 5 11 10 0 6 -2 10 -4 10 -3 0
-8 -4 -11 -10z"/>
<path d="M2760 391 c0 -11 5 -23 10 -26 6 -4 10 5 10 19 0 14 -4 26 -10 26 -5
0 -10 -9 -10 -19z"/>
<path d="M3570 395 c0 -8 4 -15 10 -15 5 0 7 7 4 15 -4 8 -8 15 -10 15 -2 0
-4 -7 -4 -15z"/>
<path d="M3615 401 c-3 -5 -2 -12 3 -15 5 -3 9 1 9 9 0 17 -3 19 -12 6z"/>
<path d="M3660 395 c0 -8 5 -15 10 -15 6 0 10 7 10 15 0 8 -4 15 -10 15 -5 0
-10 -7 -10 -15z"/>
<path d="M3806 395 c4 -8 8 -15 10 -15 2 0 4 7 4 15 0 8 -4 15 -10 15 -5 0 -7
-7 -4 -15z"/>
<path d="M4192 390 c0 -14 2 -19 5 -12 2 6 2 18 0 25 -3 6 -5 1 -5 -13z"/>
<path d="M2021 384 c0 -11 3 -14 6 -6 3 7 2 16 -1 19 -3 4 -6 -2 -5 -13z"/>
<path d="M1140 380 c0 -5 5 -10 11 -10 5 0 7 5 4 10 -3 6 -8 10 -11 10 -2 0
-4 -4 -4 -10z"/>
<path d="M2070 370 c0 -5 5 -10 10 -10 6 0 10 5 10 10 0 6 -4 10 -10 10 -5 0
-10 -4 -10 -10z"/>
<path d="M2135 371 c-3 -5 -1 -12 5 -16 5 -3 10 1 10 9 0 18 -6 21 -15 7z"/>
<path d="M4250 365 c0 -8 5 -15 10 -15 6 0 10 7 10 15 0 8 -4 15 -10 15 -5 0
-10 -7 -10 -15z"/>
<path d="M1352 358 c-15 -15 -16 -78 -2 -78 17 0 24 31 9 41 -10 6 -10 9 -1 9
6 0 12 6 12 14 0 8 6 17 13 19 8 4 7 6 -3 6 -9 1 -21 -4 -28 -11z"/>
<path d="M5093 334 c-20 -39 -75 -202 -88 -259 -13 -60 13 -8 55 110 23 66 47
130 52 142 19 40 2 47 -19 7z"/>
<path d="M4040 346 c0 -9 5 -16 10 -16 6 0 10 4 10 9 0 6 -4 13 -10 16 -5 3
-10 -1 -10 -9z"/>
<path d="M4090 344 c0 -8 5 -12 10 -9 6 4 8 11 5 16 -9 14 -15 11 -15 -7z"/>
<path d="M4130 351 c0 -6 5 -13 10 -16 6 -3 10 1 10 9 0 9 -4 16 -10 16 -5 0
-10 -4 -10 -9z"/>
<path d="M3671 334 c0 -11 3 -14 6 -6 3 7 2 16 -1 19 -3 4 -6 -2 -5 -13z"/>
<path d="M3850 341 c0 -6 5 -13 10 -16 6 -3 10 1 10 9 0 9 -4 16 -10 16 -5 0
-10 -4 -10 -9z"/>
<path d="M1406 325 c-9 -26 -7 -32 5 -12 6 10 9 21 6 23 -2 3 -7 -2 -11 -11z"/>
<path d="M2250 322 c0 -11 -7 -22 -15 -26 -30 -11 -16 -32 24 -34 31 -2 39 1
44 18 4 15 0 20 -16 20 -20 0 -20 0 -1 14 11 8 15 18 10 23 -5 4 -11 2 -13 -5
-4 -10 -8 -10 -19 -1 -11 9 -14 7 -14 -9z"/>
<path d="M3520 324 c0 -8 5 -12 10 -9 6 4 8 11 5 16 -9 14 -15 11 -15 -7z"/>
<path d="M3621 324 c0 -11 3 -14 6 -6 3 7 2 16 -1 19 -3 4 -6 -2 -5 -13z"/>
<path d="M2025 310 c-3 -11 -11 -20 -16 -20 -5 0 -9 -4 -9 -10 0 -5 17 -8 38
-7 32 2 37 5 40 30 3 23 0 27 -22 27 -16 0 -27 -7 -31 -20z"/>
<path d="M4250 305 c0 -8 5 -15 10 -15 6 0 10 7 10 15 0 8 -4 15 -10 15 -5 0
-10 -7 -10 -15z"/>
<path d="M2133 284 c-17 -18 -16 -20 7 -20 21 0 24 5 12 22 -5 9 -10 8 -19 -2z"/>
<path d="M1398 283 c7 -3 16 -2 19 1 4 3 -2 6 -13 5 -11 0 -14 -3 -6 -6z"/>
<path d="M3850 280 c0 -5 5 -10 11 -10 5 0 7 5 4 10 -3 6 -8 10 -11 10 -2 0
-4 -4 -4 -10z"/>
<path d="M3900 281 c0 -6 5 -13 10 -16 6 -3 10 1 10 9 0 9 -4 16 -10 16 -5 0
-10 -4 -10 -9z"/>
<path d="M3950 274 c0 -8 5 -12 10 -9 6 3 10 10 10 16 0 5 -4 9 -10 9 -5 0
-10 -7 -10 -16z"/>
<path d="M4000 274 c0 -8 5 -12 10 -9 6 4 8 11 5 16 -9 14 -15 11 -15 -7z"/>
<path d="M4140 280 c0 -5 5 -10 10 -10 6 0 10 5 10 10 0 6 -4 10 -10 10 -5 0
-10 -4 -10 -10z"/>
<path d="M3666 265 c4 -8 8 -15 10 -15 2 0 4 7 4 15 0 8 -4 15 -10 15 -5 0 -7
-7 -4 -15z"/>
<path d="M5112 243 c-32 -61 -95 -233 -88 -241 11 -11 24 12 56 98 17 46 38
99 46 116 9 18 14 41 12 51 -3 13 -10 7 -26 -24z"/>
<path d="M2770 252 c0 -6 -7 -9 -16 -5 -13 5 -14 0 -9 -31 5 -26 3 -42 -8 -54
-13 -15 -12 -20 4 -47 l19 -30 -1 35 c0 49 7 105 16 119 4 7 4 15 1 18 -3 4
-6 1 -6 -5z"/>
<path d="M4260 246 c0 -9 5 -16 10 -16 6 0 10 4 10 9 0 6 -4 13 -10 16 -5 3
-10 -1 -10 -9z"/>
<path d="M2110 236 c-5 -5 -10 -26 -10 -45 -1 -20 -7 -65 -15 -101 -20 -90
-20 -90 19 -90 37 0 69 26 44 35 -8 3 -19 5 -24 4 -21 -4 -35 2 -29 11 4 6 18
9 33 8 22 -3 27 2 34 32 4 19 5 45 3 58 -3 12 -1 22 3 22 5 0 9 17 9 38 0 36
-2 39 -28 39 -16 0 -33 -5 -39 -11z"/>
<path d="M2220 229 c7 -12 8 -19 2 -15 -6 3 -15 -28 -22 -75 -11 -68 -11 -82
1 -90 11 -7 10 -9 -4 -9 -12 0 -17 -6 -15 -17 6 -33 87 -24 88 10 0 4 -11 7
-25 7 -14 0 -25 5 -25 11 0 6 9 8 20 4 25 -8 35 16 45 105 9 88 11 85 -35 88
-39 3 -41 2 -30 -19z m30 -59 c0 -11 -4 -20 -9 -20 -5 0 -7 9 -4 20 3 11 7 20
9 20 2 0 4 -9 4 -20z"/>
<path d="M2705 239 c-3 -9 -1 -27 4 -42 8 -19 6 -28 -5 -37 -17 -15 -19 -60
-2 -60 6 0 4 -7 -5 -18 -22 -24 -23 -79 -2 -79 15 0 18 14 19 110 0 26 4 47 8
47 11 0 10 62 -2 80 -8 13 -10 12 -15 -1z"/>
<path d="M5380 240 c0 -5 5 -10 10 -10 6 0 10 5 10 10 0 6 -4 10 -10 10 -5 0
-10 -4 -10 -10z"/>
<path d="M1775 230 c3 -5 11 -10 16 -10 6 0 7 5 4 10 -3 6 -11 10 -16 10 -6 0
-7 -4 -4 -10z"/>
<path d="M1993 219 c3 -10 1 -19 -4 -19 -5 0 -9 -9 -9 -20 0 -17 7 -20 40 -20
38 0 39 1 30 24 -7 19 -5 26 7 30 23 9 7 20 -34 23 -30 2 -34 -1 -30 -18z"/>
<path d="M3961 224 c0 -11 3 -14 6 -6 3 7 2 16 -1 19 -3 4 -6 -2 -5 -13z"/>
<path d="M4000 226 c0 -8 5 -18 10 -21 6 -3 10 3 10 14 0 12 -4 21 -10 21 -5
0 -10 -6 -10 -14z"/>
<path d="M4050 220 c0 -19 3 -21 12 -12 9 9 9 15 0 24 -9 9 -12 7 -12 -12z"/>
<path d="M4090 225 c0 -8 5 -15 10 -15 6 0 10 7 10 15 0 8 -4 15 -10 15 -5 0
-10 -7 -10 -15z"/>
<path d="M4140 225 c0 -8 5 -15 10 -15 6 0 10 7 10 15 0 8 -4 15 -10 15 -5 0
-10 -7 -10 -15z"/>
<path d="M1275 220 c-3 -5 -1 -10 4 -10 6 0 11 5 11 10 0 6 -2 10 -4 10 -3 0
-8 -4 -11 -10z"/>
<path d="M1310 215 c0 -8 9 -15 20 -15 11 0 20 7 20 15 0 8 -9 15 -20 15 -11
0 -20 -7 -20 -15z"/>
<path d="M3760 214 c0 -8 5 -12 10 -9 6 4 8 11 5 16 -9 14 -15 11 -15 -7z"/>
<path d="M3810 214 c0 -8 5 -12 10 -9 6 4 8 11 5 16 -9 14 -15 11 -15 -7z"/>
<path d="M3520 205 c0 -8 5 -15 10 -15 6 0 10 7 10 15 0 8 -4 15 -10 15 -5 0
-10 -7 -10 -15z"/>
<path d="M3850 210 c0 -5 5 -10 10 -10 6 0 10 5 10 10 0 6 -4 10 -10 10 -5 0
-10 -4 -10 -10z"/>
<path d="M3905 210 c3 -5 8 -10 11 -10 2 0 4 5 4 10 0 6 -5 10 -11 10 -5 0 -7
-4 -4 -10z"/>
<path d="M1931 194 c0 -11 3 -14 6 -6 3 7 2 16 -1 19 -3 4 -6 -2 -5 -13z"/>
<path d="M883 185 c0 -12 8 -15 31 -13 17 2 31 8 31 13 0 6 -14 11 -31 13 -23
2 -31 -1 -31 -13z"/>
<path d="M4271 184 c0 -11 3 -14 6 -6 3 7 2 16 -1 19 -3 4 -6 -2 -5 -13z"/>
<path d="M480 181 c0 -15 16 -22 34 -15 25 9 19 24 -9 24 -14 0 -25 -4 -25 -9z"/>
<path d="M1314 164 c3 -9 2 -12 -5 -9 -6 4 -8 -3 -4 -22 5 -21 4 -24 -4 -13
-9 13 -11 13 -11 -2 0 -22 26 -24 34 -2 10 26 7 64 -5 64 -6 0 -8 -7 -5 -16z"/>
<path d="M4100 160 c0 -19 3 -21 12 -12 9 9 9 15 0 24 -9 9 -12 7 -12 -12z"/>
<path d="M4153 165 c0 -8 4 -15 9 -15 4 0 8 4 8 9 0 6 -4 12 -8 15 -5 3 -9 -1
-9 -9z"/>
<path d="M5106 100 c-40 -88 -43 -100 -22 -100 9 0 24 24 37 60 12 33 26 63
30 66 12 7 12 54 0 54 -4 0 -25 -36 -45 -80z"/>
<path d="M1364 158 c-4 -6 -3 -8 4 -4 5 3 13 0 15 -6 3 -8 6 -6 6 5 1 19 -14
23 -25 5z"/>
<path d="M3956 161 c-4 -7 -5 -15 -2 -18 9 -9 19 4 14 18 -4 11 -6 11 -12 0z"/>
<path d="M4000 155 c0 -8 5 -15 10 -15 6 0 10 7 10 15 0 8 -4 15 -10 15 -5 0
-10 -7 -10 -15z"/>
<path d="M4056 155 c-3 -8 -1 -15 4 -15 6 0 10 7 10 15 0 8 -2 15 -4 15 -2 0
-6 -7 -10 -15z"/>
<path d="M3665 151 c-3 -5 -1 -12 5 -16 5 -3 10 1 10 9 0 18 -6 21 -15 7z"/>
<path d="M3716 145 c-3 -8 -1 -15 4 -15 6 0 10 7 10 15 0 8 -2 15 -4 15 -2 0
-6 -7 -10 -15z"/>
<path d="M3765 150 c-3 -5 -1 -10 4 -10 6 0 11 5 11 10 0 6 -2 10 -4 10 -3 0
-8 -4 -11 -10z"/>
<path d="M888 125 c-6 -28 6 -34 16 -9 8 22 7 34 -3 34 -5 0 -11 -11 -13 -25z"/>
<path d="M480 131 c0 -5 -3 -17 -7 -27 -4 -11 -3 -15 4 -11 14 9 24 47 12 47
-5 0 -9 -4 -9 -9z"/>
<path d="M1353 128 c4 -10 2 -18 -3 -18 -6 0 -10 -5 -10 -12 0 -8 6 -6 17 5
14 14 15 19 4 29 -11 11 -13 10 -8 -4z"/>
<path d="M1969 115 c-2 -16 0 -38 6 -48 8 -14 6 -22 -10 -33 -17 -13 -18 -16
-5 -24 24 -16 70 -12 70 5 0 14 -12 20 -33 16 -5 -1 -7 4 -5 11 3 7 15 12 26
10 14 -2 22 2 22 11 0 8 3 29 6 46 6 29 5 31 -25 31 -25 0 -31 -4 -32 -22 -1
-22 -1 -22 -9 2 -7 25 -7 25 -11 -5z m51 -5 c0 -5 -2 -10 -4 -10 -3 0 -8 5
-11 10 -3 6 -1 10 4 10 6 0 11 -4 11 -10z"/>
<path d="M4270 119 c0 -11 5 -17 10 -14 6 3 10 13 10 21 0 8 -4 14 -10 14 -5
0 -10 -9 -10 -21z"/>
<path d="M3860 91 c0 -12 5 -21 10 -21 6 0 10 6 10 14 0 8 -4 18 -10 21 -5 3
-10 -3 -10 -14z"/>
<path d="M3910 89 c0 -11 4 -18 10 -14 5 3 7 12 3 20 -7 21 -13 19 -13 -6z"/>
<path d="M3962 90 c0 -14 2 -19 5 -12 2 6 2 18 0 25 -3 6 -5 1 -5 -13z"/>
<path d="M4010 95 c0 -8 4 -15 10 -15 5 0 7 7 4 15 -4 8 -8 15 -10 15 -2 0 -4
-7 -4 -15z"/>
<path d="M4050 95 c0 -8 5 -15 10 -15 6 0 10 7 10 15 0 8 -4 15 -10 15 -5 0
-10 -7 -10 -15z"/>
<path d="M4156 95 c4 -8 8 -15 10 -15 2 0 4 7 4 15 0 8 -4 15 -10 15 -5 0 -7
-7 -4 -15z"/>
<path d="M3810 85 c0 -8 5 -15 10 -15 6 0 10 7 10 15 0 8 -4 15 -10 15 -5 0
-10 -7 -10 -15z"/>
<path d="M4212 80 c0 -14 2 -19 5 -12 2 6 2 18 0 25 -3 6 -5 1 -5 -13z"/>
<path d="M3615 80 c-3 -5 -1 -10 4 -10 6 0 11 5 11 10 0 6 -2 10 -4 10 -3 0
-8 -4 -11 -10z"/>
<path d="M909 75 c-1 -3 -2 -9 -3 -14 0 -6 -11 -19 -23 -31 -13 -11 -23 -22
-23 -24 0 -1 22 -3 49 -5 l50 -2 -9 30 c-5 17 -11 35 -15 41 -6 10 -24 14 -26
5z"/>
<path d="M2730 48 c0 -20 5 -40 10 -43 6 -3 10 5 10 19 0 13 2 30 3 38 2 7 2
9 -1 4 -2 -4 -8 -2 -13 5 -6 9 -9 2 -9 -23z"/>
<path d="M5149 60 c-25 -40 -30 -60 -14 -60 19 0 37 35 33 63 -3 21 -3 21 -19
-3z"/>
<path d="M4015 37 c-4 -10 -5 -21 -1 -24 10 -10 18 4 13 24 -4 17 -4 17 -12 0z"/>
<path d="M4060 30 c0 -19 3 -21 12 -12 9 9 9 15 0 24 -9 9 -12 7 -12 -12z"/>
<path d="M4112 30 c0 -14 2 -19 5 -12 2 6 2 18 0 25 -3 6 -5 1 -5 -13z"/>
<path d="M4150 36 c0 -17 14 -29 23 -20 8 8 -3 34 -14 34 -5 0 -9 -6 -9 -14z"/>
<path d="M576 24 c-4 -9 -4 -19 -2 -21 8 -8 26 8 26 23 0 19 -16 18 -24 -2z"/>
<path d="M787 20 c-3 -13 0 -20 9 -20 8 0 14 9 14 20 0 11 -4 20 -9 20 -5 0
-11 -9 -14 -20z"/>
<path d="M1210 25 c-10 -12 -10 -15 3 -15 19 0 31 16 18 24 -5 3 -14 -1 -21
-9z"/>
<path d="M1260 21 c0 -20 5 -21 87 -21 93 0 103 13 21 25 -33 5 -48 4 -48 -4
0 -6 -5 -11 -11 -11 -5 0 -7 4 -4 10 3 6 2 10 -4 10 -5 0 -16 3 -25 6 -12 4
-16 0 -16 -15z"/>
<path d="M3760 21 c0 -12 5 -21 10 -21 6 0 10 6 10 14 0 8 -4 18 -10 21 -5 3
-10 -3 -10 -14z"/>
<path d="M3810 20 c0 -11 5 -20 10 -20 6 0 10 9 10 20 0 11 -4 20 -10 20 -5 0
-10 -9 -10 -20z"/>
<path d="M3860 20 c0 -11 5 -20 10 -20 6 0 10 9 10 20 0 11 -4 20 -10 20 -5 0
-10 -9 -10 -20z"/>
<path d="M3910 25 c0 -8 5 -15 10 -15 6 0 10 7 10 15 0 8 -4 15 -10 15 -5 0
-10 -7 -10 -15z"/>
<path d="M3960 25 c0 -8 5 -15 10 -15 6 0 10 7 10 15 0 8 -4 15 -10 15 -5 0
-10 -7 -10 -15z"/>
<path d="M370 15 c0 -8 2 -15 4 -15 2 0 6 7 10 15 3 8 1 15 -4 15 -6 0 -10 -7
-10 -15z"/>
<path d="M3615 21 c-3 -5 -1 -12 5 -16 5 -3 10 1 10 9 0 18 -6 21 -15 7z"/>
<path d="M3671 14 c0 -11 3 -14 6 -6 3 7 2 16 -1 19 -3 4 -6 -2 -5 -13z"/>
<path d="M3710 21 c0 -6 5 -13 10 -16 6 -3 10 1 10 9 0 9 -4 16 -10 16 -5 0
-10 -4 -10 -9z"/>
<path d="M1075 10 c-3 -5 -1 -10 4 -10 6 0 11 5 11 10 0 6 -2 10 -4 10 -3 0
-8 -4 -11 -10z"/>
</g>
</svg>
