<?xml version="1.0" standalone="no"?>
<!DOCTYPE svg PUBLIC "-//W3C//DTD SVG 20010904//EN"
 "http://www.w3.org/TR/2001/REC-SVG-20010904/DTD/svg10.dtd">
<svg version="1.0" xmlns="http://www.w3.org/2000/svg"
 width="768.000000pt" height="384.000000pt" viewBox="0 0 768.000000 384.000000"
 preserveAspectRatio="xMidYMid meet">

<g transform="translate(0.000000,384.000000) scale(0.100000,-0.100000)"
fill="#000000" stroke="none">
<path d="M0 1920 l0 -1920 1391 0 c927 0 1388 3 1384 10 -3 6 -17 7 -30 4 -12
-3 -26 -1 -29 5 -11 17 151 13 199 -4 46 -17 150 -20 140 -5 -3 6 1 10 9 10 9
0 16 -4 16 -10 0 -7 574 -10 1703 -9 936 1 1691 4 1677 8 l-25 7 30 6 c18 4
42 1 59 -8 16 -8 36 -14 45 -13 9 1 5 4 -9 8 -19 6 -9 9 45 16 66 7 68 8 40
19 -29 11 -29 11 25 16 30 3 71 3 91 2 32 -3 35 -6 31 -28 -2 -14 0 -24 7 -24
6 0 10 6 9 13 -2 7 10 13 32 14 l35 3 -30 -14 c-17 -8 -23 -15 -15 -16 47 -6
657 -4 653 2 -2 5 8 3 23 -2 17 -7 30 -7 33 -2 4 6 27 6 56 2 31 -5 52 -4 56
2 4 6 11 8 17 4 6 -3 10 20 11 60 l1 65 -177 -2 c-98 -1 -203 -5 -233 -10 -30
-5 -433 -11 -895 -14 -462 -3 -858 -7 -880 -9 -48 -5 -418 -7 -460 -2 -16 1
-70 4 -119 4 -141 3 -91 15 72 18 81 2 174 4 207 4 39 1 53 4 41 9 -30 12 -3
23 57 24 29 0 44 2 35 4 -34 8 -18 20 35 27 78 9 129 7 122 -4 -7 -11 14 -13
105 -12 76 0 98 2 154 14 33 7 50 7 55 0 8 -14 204 -16 254 -4 23 6 39 6 43 0
3 -5 12 -4 22 4 12 10 16 10 19 1 5 -15 43 -18 43 -3 0 18 18 11 25 -10 3 -11
13 -20 21 -20 8 0 13 4 10 9 -3 5 1 15 10 22 14 11 18 11 28 -3 18 -25 89 -33
138 -17 33 10 37 14 22 20 -13 5 -2 8 29 8 26 1 47 -3 47 -9 0 -5 7 -10 15
-10 8 0 15 3 15 8 0 4 111 7 248 7 156 0 264 4 292 12 25 6 36 12 26 12 -35 2
-9 12 40 16 93 9 101 12 102 50 l1 33 -115 41 c-63 23 -120 41 -125 41 -5 0
-17 4 -27 10 -17 9 -160 56 -217 70 -16 5 -75 24 -130 45 -55 20 -122 42 -150
50 -27 8 -97 27 -155 44 -58 16 -148 41 -200 56 -87 24 -198 61 -260 88 -14 6
-34 12 -44 14 -11 2 -25 8 -32 14 -9 7 -19 7 -35 -2 -19 -10 -25 -9 -35 6 -21
28 -65 46 -97 39 -20 -4 -32 -1 -41 11 -10 14 -159 64 -193 65 -7 0 -29 -18
-49 -40 -30 -33 -41 -39 -63 -33 -14 3 -33 11 -41 17 -8 7 -28 18 -44 26 -16
8 -31 23 -34 33 -2 9 -11 17 -18 17 -8 0 -14 4 -14 9 0 5 -9 11 -20 14 -20 5
-28 27 -10 27 22 0 8 22 -20 31 -30 11 -35 21 -31 72 2 28 2 28 -22 12 -25
-16 -25 -16 -32 14 -4 18 -13 31 -21 31 -10 0 -14 8 -12 23 4 29 27 28 142 -7
91 -27 243 -53 253 -42 3 3 -3 8 -13 12 -24 7 -45 17 -114 55 -30 16 -60 29
-67 29 -7 0 -42 14 -78 31 -64 30 -80 51 -50 63 15 5 35 2 165 -29 30 -8 88
-17 128 -20 63 -6 72 -5 72 10 0 9 -4 13 -10 10 -5 -3 -10 -2 -10 3 0 5 -25
20 -55 32 -30 12 -53 26 -50 30 5 8 -103 60 -124 60 -23 0 -101 54 -101 71 0
3 13 12 30 19 32 13 73 6 206 -36 130 -41 171 -63 189 -100 16 -35 12 -56 -20
-94 -7 -8 -18 -42 -24 -74 -6 -33 -18 -67 -26 -76 -9 -10 -14 -34 -13 -63 1
-61 17 -70 126 -71 75 -1 86 -3 103 -24 16 -20 24 -22 63 -17 45 7 49 5 93
-49 10 -11 25 -14 62 -9 59 7 108 -8 264 -78 98 -44 412 -150 622 -209 44 -12
100 -29 125 -36 45 -13 224 -54 330 -75 30 -6 62 -15 71 -20 9 -4 19 -5 23 -2
11 11 56 15 56 5 0 -5 -13 -12 -30 -15 -28 -6 -29 -8 -18 -32 6 -14 18 -25 27
-26 46 -2 279 2 296 5 11 3 32 5 48 5 22 1 27 6 27 26 0 13 -8 29 -17 34 -17
10 -17 10 0 11 16 0 17 87 17 1685 l0 1685 -1616 0 c-1423 0 -1617 -2 -1630
-15 -20 -20 -32 -19 -37 3 -3 9 -5 -2 -6 -25 -1 -31 -5 -43 -16 -43 -11 0 -15
11 -15 40 0 33 -3 40 -20 40 -17 0 -20 -7 -20 -40 0 -36 -3 -40 -25 -40 -14 0
-29 -8 -35 -20 -7 -12 -21 -20 -37 -20 -26 0 -26 1 -7 15 14 11 15 14 4 15
-12 0 -13 2 -1 9 21 13 -4 81 -30 81 -10 0 -19 -4 -19 -10 0 -5 -19 -10 -43
-10 -24 0 -47 -3 -51 -7 -4 -4 -26 -13 -48 -20 -40 -11 -42 -11 -71 20 -19 20
-32 27 -34 20 -5 -15 -83 -18 -83 -3 0 7 -647 10 -1920 10 l-1920 0 0 -1920z
m4160 1870 c0 -5 -7 -10 -15 -10 -8 0 -15 5 -15 10 0 6 7 10 15 10 8 0 15 -4
15 -10z m30 -66 c0 -2 -7 -4 -15 -4 -8 0 -15 4 -15 10 0 5 7 7 15 4 8 -4 15
-8 15 -10z m33 -31 c-13 -2 -33 -2 -45 0 -13 2 -3 4 22 4 25 0 35 -2 23 -4z
m37 -17 c0 -3 -4 -8 -10 -11 -5 -3 -10 -1 -10 4 0 6 5 11 10 11 6 0 10 -2 10
-4z m-1841 -1210 c47 -9 100 -26 120 -37 32 -19 39 -20 100 -8 97 19 205 18
227 -2 19 -16 70 -27 151 -33 25 -1 58 -13 83 -30 34 -22 40 -31 34 -49 -9
-29 -39 -72 -87 -125 -31 -35 -38 -49 -32 -69 8 -34 52 -70 100 -82 36 -9 160
-84 190 -114 35 -37 67 -90 79 -133 18 -61 35 -206 45 -378 5 -74 17 -168 29
-216 12 -47 27 -123 33 -170 7 -47 20 -116 30 -155 10 -38 19 -89 19 -113 0
-54 10 -73 72 -135 46 -46 88 -119 88 -153 0 -8 -21 -25 -47 -36 -71 -32 -214
-28 -252 7 -10 8 -25 13 -35 9 -19 -7 -22 11 -3 20 6 3 2 3 -10 0 -13 -3 -23
-1 -23 4 0 9 -64 52 -77 52 -4 0 3 -9 15 -20 12 -12 22 -23 22 -25 0 -9 -37 9
-75 37 -34 25 -33 23 10 -17 43 -39 46 -44 20 -33 -16 7 -38 20 -48 30 -23 24
-30 23 -17 -2 6 -11 14 -20 19 -20 16 0 71 -121 71 -156 0 -28 -8 -43 -36 -70
-33 -33 -39 -35 -97 -33 -34 1 -75 6 -92 11 -44 13 -90 19 -178 22 -42 2 -83
9 -91 15 -7 6 -22 9 -32 5 -16 -5 -16 -4 -4 5 13 9 13 11 0 12 -33 2 -86 -3
-95 -10 -5 -5 -20 -11 -32 -13 -16 -4 -20 -2 -16 8 3 8 0 14 -6 14 -6 0 -11
-4 -11 -10 0 -5 -4 -10 -10 -10 -5 0 -6 8 -3 17 6 16 5 16 -10 4 -14 -11 -17
-11 -17 0 0 10 -3 10 -12 1 -7 -7 -16 -8 -23 -2 -7 6 -24 6 -45 0 -21 -6 -39
-6 -51 0 -10 6 -30 15 -44 20 -23 9 -26 8 -22 -4 5 -12 1 -13 -19 -6 -33 13
-34 13 -27 -7 5 -13 3 -15 -13 -8 -38 15 -64 18 -64 5 0 -9 -3 -10 -13 -1 -8
6 -17 8 -20 4 -4 -3 -7 -2 -7 4 0 5 -8 10 -17 10 -21 0 -45 -22 -35 -32 6 -6
-9 -4 -73 12 -17 4 -18 2 -5 -7 12 -9 8 -11 -17 -7 -18 2 -33 0 -33 -5 0 -13
-40 0 -74 24 -26 19 -28 19 -23 3 6 -13 3 -16 -10 -11 -9 4 -20 1 -25 -6 -5
-9 -8 -7 -8 7 0 16 -2 17 -10 5 -7 -12 -12 -12 -22 -2 -17 17 -31 15 -25 -3 5
-11 1 -12 -19 -5 -18 7 -23 7 -18 -1 4 -6 -1 -10 -12 -8 -11 1 -39 -3 -64 -11
-147 -42 -172 -50 -191 -61 -32 -16 -32 -6 -3 40 38 57 102 88 152 73 41 -13
67 -3 78 30 4 13 11 26 16 29 5 3 -3 18 -17 33 -15 16 -24 34 -21 42 3 7 0 14
-5 16 -5 2 -11 19 -12 39 -1 19 -9 46 -18 60 -25 39 -30 69 -11 70 11 0 12 2
5 6 -15 6 -17 43 -3 43 6 0 10 -7 10 -16 0 -8 4 -13 10 -9 5 3 7 12 3 20 -4
11 -1 13 11 9 19 -7 21 7 4 24 -9 9 -9 12 0 12 7 0 12 -4 12 -10 0 -5 5 -10
10 -10 6 0 10 7 10 15 0 13 4 12 22 -5 28 -26 36 -25 50 5 6 14 19 25 30 25
10 0 18 4 18 8 0 4 -16 6 -35 4 -29 -4 -34 -1 -29 12 3 9 1 16 -5 16 -6 0 -14
-12 -17 -26 -4 -16 -10 -22 -16 -16 -6 6 -6 18 2 33 8 17 3 14 -20 -11 l-32
-35 16 32 c22 43 20 51 -4 20 -11 -14 -20 -30 -20 -37 0 -6 -5 -8 -10 -5 -6 3
-14 -4 -19 -17 -14 -39 -19 45 -17 284 l3 217 -25 6 c-26 6 -41 -6 -43 -35 0
-10 -2 -11 -6 -2 -8 21 -35 14 -28 -8 4 -11 2 -20 -4 -20 -6 0 -11 -7 -11 -16
0 -10 -6 -13 -18 -10 -15 5 -18 0 -17 -27 0 -17 -6 -42 -14 -54 -7 -13 -11
-30 -7 -38 3 -10 2 -13 -5 -10 -6 4 -7 -3 -3 -19 4 -16 2 -26 -5 -26 -6 0 -8
-7 -5 -15 4 -9 0 -15 -8 -15 -8 0 -22 -8 -32 -18 -22 -25 -109 -45 -176 -40
-61 4 -115 27 -155 64 -24 22 -28 23 -42 9 -8 -9 -18 -13 -22 -9 -3 4 0 9 7
11 6 3 12 11 12 19 0 8 5 14 10 14 17 0 -23 49 -40 50 -10 1 -11 3 -2 7 6 2
12 12 12 20 0 11 7 14 24 9 30 -7 56 2 56 20 0 8 5 14 11 14 6 0 8 -9 4 -20
-5 -14 -2 -20 10 -20 12 0 14 6 9 26 l-7 26 28 -28 c27 -26 28 -27 41 -9 8 10
14 13 14 7 0 -8 23 -12 74 -12 68 0 74 2 80 22 13 52 10 55 -46 46 -29 -5 -66
-8 -82 -8 -16 0 -33 -5 -38 -12 -6 -10 -8 -10 -8 0 0 22 -20 13 -21 -10 -1
-16 -3 -18 -6 -7 -4 18 -50 32 -59 18 -7 -11 -84 -3 -98 11 -7 7 -7 17 3 32
12 19 11 23 -3 34 -13 9 -14 13 -4 16 7 3 18 -2 23 -9 11 -15 49 -7 39 8 -3 5
0 9 5 9 6 0 11 -4 11 -10 0 -5 20 -10 45 -10 35 0 43 3 39 15 -4 9 0 15 10 15
9 0 16 7 16 15 0 8 5 15 10 15 14 0 12 -12 -7 -40 -16 -22 -16 -23 1 -17 10 4
58 7 107 7 l89 0 0 36 0 36 -77 -8 c-43 -4 -89 -8 -103 -9 -14 -1 -31 -3 -38
-4 -7 0 -10 -6 -7 -11 3 -5 1 -10 -4 -10 -6 0 -11 7 -11 15 0 19 -14 19 -34
-1 -9 -8 -16 -11 -16 -5 0 16 -26 13 -44 -4 -19 -20 -27 -19 -19 2 5 13 2 15
-16 10 -22 -5 -22 -5 -6 19 10 15 13 33 9 46 -4 14 -2 18 5 14 7 -4 11 1 11
12 0 11 7 25 15 32 8 7 12 16 9 21 -3 5 2 9 10 9 9 0 16 5 16 11 0 6 7 17 15
25 8 9 15 11 15 5 0 -6 5 -11 10 -11 6 0 8 11 6 25 -3 17 0 25 10 25 8 0 14 7
14 15 0 8 5 15 11 15 7 0 5 -10 -5 -25 -23 -35 -20 -45 9 -32 14 7 25 17 25
22 0 6 9 17 20 25 11 8 20 20 20 27 0 19 -10 16 -31 -9 -16 -17 -19 -18 -19
-5 0 18 -25 23 -34 8 -3 -5 -20 -12 -38 -15 -32 -6 -138 -91 -138 -110 0 -5
-8 -16 -18 -25 -22 -20 -42 -65 -42 -94 0 -12 -9 -28 -20 -35 -11 -7 -20 -8
-20 -3 0 20 -38 -2 -43 -25 -5 -29 12 -45 41 -37 26 6 37 -15 28 -52 -5 -18
-12 -24 -28 -22 -17 2 -23 -5 -29 -30 -6 -32 -6 -33 30 -33 38 0 71 -26 71
-56 0 -60 130 -187 207 -201 15 -2 79 -8 142 -11 107 -7 114 -8 98 -24 -9 -9
-17 -21 -17 -26 0 -6 -6 -13 -12 -15 -8 -3 -6 -6 5 -6 9 -1 17 -6 17 -12 0 -6
-8 -9 -19 -6 -36 9 -72 -34 -38 -46 6 -2 9 -8 5 -12 -4 -4 -15 -2 -24 6 -15
12 -16 11 -10 -9 7 -21 5 -22 -21 -17 -15 3 -22 2 -15 -1 22 -11 13 -26 -13
-20 -15 4 -25 2 -25 -4 0 -6 5 -8 10 -5 5 3 10 -1 10 -10 0 -12 -4 -14 -19 -5
-27 14 -34 13 -27 -5 7 -18 -5 -20 -23 -2 -10 10 -12 9 -9 -5 1 -9 -1 -18 -6
-20 -5 -2 -10 7 -11 19 -1 13 -5 26 -10 30 -4 5 -4 -2 -1 -14 6 -17 3 -23 -8
-23 -9 0 -16 5 -16 10 0 6 -5 10 -11 10 -8 0 -7 -5 1 -15 17 -20 5 -32 -15
-15 -12 10 -19 10 -27 2 -19 -19 -30 -14 -23 11 5 16 4 18 -4 8 -8 -13 -13
-13 -38 -1 -15 8 -31 16 -36 18 -4 2 -4 -5 0 -15 6 -16 5 -16 -10 -4 -9 7 -17
10 -17 6 0 -4 -8 -1 -17 6 -15 12 -16 12 -10 -5 5 -12 3 -23 -5 -28 -10 -6
-10 -8 0 -8 6 0 12 -5 12 -11 0 -7 -10 -9 -25 -5 -14 4 -25 2 -25 -4 0 -5 5
-10 10 -10 17 0 11 -18 -8 -22 -13 -3 -9 -8 16 -22 19 -9 31 -20 29 -23 -3 -3
-12 -1 -19 3 -18 12 -38 14 -38 4 0 -4 7 -10 15 -14 8 -3 15 -10 15 -16 0 -6
-7 -6 -20 2 -26 16 -39 2 -14 -17 22 -17 15 -19 -20 -5 -14 5 -26 6 -26 1 0
-5 7 -12 16 -15 8 -3 12 -10 9 -16 -4 -6 -11 -8 -16 -5 -5 4 -9 -1 -9 -9 0 -9
-6 -16 -12 -16 -7 -1 -2 -7 11 -14 l24 -14 -21 -6 c-12 -4 -22 -12 -22 -17 0
-5 -5 -9 -11 -9 -6 0 -8 9 -4 23 6 21 5 21 -9 4 -10 -13 -21 -17 -35 -12 -22
7 -29 -9 -8 -19 6 -3 -5 -4 -25 -1 -20 3 -39 1 -43 -5 -9 -14 -25 -13 -21 3 1
6 1 9 -1 5 -3 -5 -11 -8 -18 -8 -7 0 -15 -4 -17 -8 -4 -13 -68 -23 -68 -12 0
5 -7 7 -15 4 -8 -4 -15 -2 -15 4 0 5 -9 12 -21 15 -15 4 -19 2 -15 -9 3 -8 -1
-14 -10 -14 -8 0 -13 4 -9 9 3 5 -8 16 -24 24 -27 13 -30 13 -34 -2 -3 -11 -8
-6 -18 17 -9 22 -19 32 -30 29 -9 -3 -16 2 -17 12 -5 38 -1 76 8 85 7 7 10 -2
10 -23 0 -43 15 -32 18 14 2 23 -1 34 -8 30 -5 -3 -10 1 -10 10 0 8 7 18 16
22 13 5 13 7 2 14 -11 7 -11 9 1 9 7 0 11 6 8 15 -4 8 -2 17 2 20 5 3 12 32
16 65 4 33 11 60 15 60 5 0 8 21 7 48 -2 37 1 46 13 44 13 -2 13 -1 0 10 -11
9 -16 32 -17 68 -1 30 -6 93 -13 140 -15 117 1 494 25 565 39 115 126 260 202
333 39 38 92 72 111 72 7 0 33 9 58 20 36 17 43 24 36 38 -14 29 -6 91 15 110
16 14 19 27 15 69 -4 50 -5 53 -28 47 -16 -4 -24 -2 -24 7 0 11 -3 11 -10 -1
-8 -12 -17 -8 -51 28 -22 23 -44 40 -49 37 -5 -3 -12 0 -15 5 -20 33 123 117
213 126 61 7 61 7 79 -24 18 -32 26 -38 76 -52 23 -7 30 -5 43 16 28 41 89 27
106 -26 4 -11 9 -7 18 12 7 15 21 30 32 34 24 7 111 -22 132 -44 14 -17 14
-23 -5 -73 -23 -60 -51 -109 -86 -152 -26 -32 -30 -72 -9 -80 7 -3 32 -3 54 0
61 8 104 -3 142 -38 18 -17 53 -40 77 -50 64 -27 108 -82 155 -191 22 -54 44
-98 47 -98 3 0 40 57 81 126 75 126 146 203 211 231 21 9 26 17 22 37 -3 14
-9 26 -13 26 -5 0 -16 7 -24 15 -12 13 -13 20 -4 34 9 15 8 22 -4 34 -8 8 -27
50 -43 94 -16 43 -39 91 -52 107 -13 16 -23 36 -21 44 3 17 90 52 203 82 82
22 187 21 314 -4z m-1659 -337 c0 -6 -4 -7 -10 -4 -5 3 -10 11 -10 16 0 6 5 7
10 4 6 -3 10 -11 10 -16z m288 -723 c-7 -8 -15 -12 -17 -11 -5 6 10 25 20 25
5 0 4 -6 -3 -14z m-68 -137 c0 -11 -4 -18 -10 -14 -5 3 -7 12 -3 20 7 21 13
19 13 -6z m160 -49 c0 -13 -6 -20 -17 -19 -11 0 -13 3 -5 6 6 2 12 11 12 19 0
8 2 14 5 14 3 0 5 -9 5 -20z m-150 -130 c0 -5 -2 -10 -4 -10 -3 0 -8 5 -11 10
-3 6 -1 10 4 10 6 0 11 -4 11 -10z m27 -12 c-3 -8 -6 -5 -6 6 -1 11 2 17 5 13
3 -3 4 -12 1 -19z m-37 -57 c0 -5 8 -12 18 -14 13 -4 12 -5 -4 -6 -12 0 -24 6
-28 14 -3 8 -1 15 4 15 6 0 10 -4 10 -9z m44 -46 c-4 -8 -8 -15 -10 -15 -2 0
-4 7 -4 15 0 8 4 15 10 15 5 0 7 -7 4 -15z m71 -85 c3 -5 1 -10 -4 -10 -6 0
-11 5 -11 10 0 6 2 10 4 10 3 0 8 -4 11 -10z m3945 -28 c61 -16 153 -30 237
-35 23 -1 25 -66 3 -110 -15 -29 -20 -57 -18 -87 l3 -44 61 -11 c76 -14 197
-89 211 -132 9 -27 8 -115 -2 -141 -8 -22 -87 -49 -162 -56 -39 -4 -84 -9
-100 -12 -15 -3 -75 -3 -133 1 l-105 7 46 23 c25 13 52 31 60 41 13 16 11 17
-31 11 -25 -3 -56 -9 -70 -13 -24 -7 -24 -7 -7 13 17 19 15 20 -110 37 -71 9
-153 22 -183 28 -30 7 -74 11 -98 9 -38 -2 -79 12 -154 54 -36 20 -11 60 65
103 59 33 122 48 248 58 73 5 91 3 120 -12 l34 -19 -102 -5 c-101 -5 -120 -10
-109 -28 23 -38 466 -49 466 -12 0 5 -22 9 -50 9 -27 -1 -56 3 -63 10 -8 6
-18 7 -22 3 -5 -4 -5 -2 -2 5 4 6 -7 23 -25 37 -18 14 -42 34 -53 44 -11 11
-36 25 -55 32 -47 18 -98 52 -105 68 -9 24 6 34 39 27 101 -22 157 -29 201
-25 l50 5 -74 43 c-41 23 -85 45 -97 48 -13 3 -29 16 -37 28 -14 20 -13 21 17
20 18 -1 65 -11 106 -22z m-3840 -42 c0 -5 -2 -10 -4 -10 -3 0 -8 5 -11 10 -3
6 -1 10 4 10 6 0 11 -4 11 -10z m590 -105 c0 -8 -4 -15 -10 -15 -5 0 -10 7
-10 15 0 8 5 15 10 15 6 0 10 -7 10 -15z m-430 -55 c0 -5 -7 -10 -15 -10 -8 0
-15 5 -15 10 0 6 7 10 15 10 8 0 15 -4 15 -10z m-420 -130 c0 -5 -5 -10 -11
-10 -5 0 -7 5 -4 10 3 6 8 10 11 10 2 0 4 -4 4 -10z m150 -20 c0 -5 -2 -10 -4
-10 -3 0 -8 5 -11 10 -3 6 -1 10 4 10 6 0 11 -4 11 -10z m110 0 c0 -5 -2 -10
-4 -10 -3 0 -8 5 -11 10 -3 6 -1 10 4 10 6 0 11 -4 11 -10z m5220 -14 c0 -11
-19 -15 -25 -6 -3 5 1 10 9 10 9 0 16 -2 16 -4z m-5500 -26 c0 -5 -4 -10 -10
-10 -5 0 -10 5 -10 10 0 6 5 10 10 10 6 0 10 -4 10 -10z m6626 0 c9 0 12 -5 9
-10 -7 -11 -115 -10 -115 2 0 8 58 16 78 11 8 -1 20 -3 28 -3z m-1956 -21 c0
-5 -7 -9 -15 -9 -15 0 -20 12 -9 23 8 8 24 -1 24 -14z m178 -1 c-3 -21 -8 -23
-63 -21 -33 1 -64 2 -70 3 -23 2 33 25 75 31 25 3 49 7 53 8 5 0 7 -9 5 -21z
m86 7 c15 -8 44 -15 62 -15 19 0 34 -4 34 -9 0 -5 8 -12 18 -14 15 -4 15 -5 0
-6 -9 0 -20 4 -23 9 -8 13 -45 13 -45 1 0 -5 6 -11 13 -14 6 -2 -1 -4 -17 -4
-17 0 -36 6 -44 13 -7 8 -22 14 -32 14 -21 0 -34 15 -25 30 9 14 25 12 59 -5z
m774 5 c7 0 11 -4 8 -9 -4 -5 0 -12 6 -15 7 -3 -4 -3 -25 0 -20 4 -43 2 -50
-4 -8 -6 -20 -6 -37 1 -28 11 -92 9 -100 -3 -7 -12 -90 -17 -87 -5 1 6 12 9
25 7 12 -1 22 2 22 8 0 5 -16 10 -36 10 -24 0 -33 4 -28 11 5 8 48 10 148 5
78 -3 147 -6 154 -6z m-2590 -7 c-26 -2 -71 -2 -100 0 -29 2 -8 3 47 3 55 0
79 -1 53 -3z m2272 3 c0 -2 3 -11 6 -20 5 -13 -1 -16 -34 -16 -45 0 -67 26
-29 33 33 6 57 8 57 3z m-2920 -26 c0 -5 -2 -10 -4 -10 -3 0 -8 5 -11 10 -3 6
-1 10 4 10 6 0 11 -4 11 -10z m2777 -6 c-3 -3 -12 -4 -19 -1 -8 3 -5 6 6 6 11
1 17 -2 13 -5z m340 0 c-3 -3 -12 -4 -19 -1 -8 3 -5 6 6 6 11 1 17 -2 13 -5z
m-5587 -34 c0 -5 -5 -10 -11 -10 -5 0 -7 5 -4 10 3 6 8 10 11 10 2 0 4 -4 4
-10z m5993 -26 c25 -8 52 -22 59 -31 11 -14 8 -15 -27 -9 -22 3 -197 8 -389
12 -192 3 -359 10 -370 14 -25 10 -55 9 334 16 156 3 287 7 289 10 9 9 59 3
104 -12z m-918 -2 c77 -14 8 -20 -172 -14 -41 1 -73 6 -73 12 0 12 183 13 245
2z m-2315 -17 c0 -24 -35 -37 -64 -23 -44 19 -31 38 26 38 27 0 38 -4 38 -15z
m-1515 -65 c3 -5 1 -10 -4 -10 -6 0 -11 5 -11 10 0 6 2 10 4 10 3 0 8 -4 11
-10z m1473 -13 c3 -15 -6 -17 -65 -16 -49 1 -61 3 -43 9 14 4 37 8 53 9 15 1
27 6 27 12 0 17 25 4 28 -14z m-1378 3 c12 -7 10 -9 -8 -7 -12 0 -22 5 -22 9
0 11 12 10 30 -2z m3265 -20 c-3 -5 -16 -10 -28 -10 -18 0 -19 -2 -7 -10 11
-7 1 -9 -35 -8 -27 0 -40 3 -27 5 12 2 35 11 50 19 31 16 56 18 47 4z m535 0
c0 -5 -19 -10 -42 -10 -32 0 -39 3 -28 10 20 13 70 13 70 0z m320 0 c-36 -11
-50 -11 -50 0 0 6 17 10 38 9 33 -1 34 -2 12 -9z m108 3 c-10 -2 -28 -2 -40 0
-13 2 -5 4 17 4 22 1 32 -1 23 -4z m382 -33 c11 -7 3 -10 -28 -10 -26 0 -41 4
-37 10 8 13 45 13 65 0z m-932 -27 c-10 -2 -26 -2 -35 0 -10 3 -2 5 17 5 19 0
27 -2 18 -5z m-871 -39 c-3 -3 -12 -4 -19 -1 -8 3 -5 6 6 6 11 1 17 -2 13 -5z
m76 -1 c-7 -2 -19 -2 -25 0 -7 3 -2 5 12 5 14 0 19 -2 13 -5z m-1837 -46 c4
-4 -27 -7 -70 -7 -51 0 -75 4 -71 10 7 12 130 9 141 -3z m90 -5 c-16 -2 -32 0
-37 5 -5 5 7 7 29 4 34 -5 35 -6 8 -9z m1074 8 c0 -9 -41 -15 -100 -13 -64 1
-225 15 -229 19 -2 2 71 4 162 4 105 0 167 -4 167 -10z m247 3 c-7 -7 -55 -14
-97 -14 -94 -1 -140 3 -140 11 0 6 49 10 122 10 67 0 118 -3 115 -7z m-954
-18 c12 2 47 1 77 -4 50 -8 46 -9 -52 -10 -90 -1 -106 1 -102 13 4 11 12 13
31 5 13 -5 34 -7 46 -4z m-509 -20 c8 -8 50 -15 120 -18 61 -2 112 -9 119 -16
8 -8 0 -11 -33 -13 -25 -1 -56 -1 -70 0 -14 1 -104 6 -200 11 -96 6 -192 13
-213 16 -45 8 -40 26 6 19 17 -2 61 -1 97 4 96 13 159 12 174 -3z m106 5 c0
-5 -4 -10 -10 -10 -5 0 -10 5 -10 10 0 6 5 10 10 10 6 0 10 -4 10 -10z m144 0
c-24 -9 -100 -8 -110 3 -4 4 24 7 62 6 48 0 63 -3 48 -9z m134 3 c-15 -2 -42
-2 -60 0 -18 2 -6 4 27 4 33 0 48 -2 33 -4z m395 0 c-7 -2 -21 -2 -30 0 -10 3
-4 5 12 5 17 0 24 -2 18 -5z m94 1 c-3 -3 -12 -4 -19 -1 -8 3 -5 6 6 6 11 1
17 -2 13 -5z m3192 -20 c-13 -16 -89 -19 -89 -5 0 5 -12 12 -27 14 -23 3 -21
4 9 6 20 0 40 -3 43 -9 9 -15 25 -12 25 4 0 9 8 12 25 8 20 -3 23 -7 14 -18z
m111 16 c0 -5 -4 -10 -10 -10 -5 0 -10 5 -10 10 0 6 5 10 10 10 6 0 10 -4 10
-10z m-4510 -10 c13 -9 13 -10 0 -10 -8 0 -22 5 -30 10 -13 9 -13 10 0 10 8 0
22 -5 30 -10z m4744 0 c-12 -12 -157 -20 -199 -12 l-30 6 30 7 c50 10 209 9
199 -1z m-779 -10 c-3 -5 -14 -10 -23 -10 -15 0 -15 2 -2 10 20 13 33 13 25 0z
m-432 -7 c-7 -2 -21 -2 -30 0 -10 3 -4 5 12 5 17 0 24 -2 18 -5z m607 -7 c0
-3 -4 -8 -10 -11 -5 -3 -10 -1 -10 4 0 6 5 11 10 11 6 0 10 -2 10 -4z"/>
<path d="M2514 2132 c-1 -37 0 -38 32 -39 21 -1 34 4 34 11 0 11 -50 66 -61
66 -2 0 -5 -17 -5 -38z"/>
<path d="M2125 2110 c-8 -13 15 -13 35 0 12 8 11 10 -7 10 -12 0 -25 -4 -28
-10z"/>
<path d="M1273 1526 c3 -6 10 -10 17 -8 7 2 17 -2 21 -9 5 -9 11 -8 23 4 23
23 20 26 -24 25 -26 0 -39 -4 -37 -12z"/>
<path d="M2356 1519 c-10 -10 -23 -16 -27 -13 -5 3 -9 0 -9 -7 0 -9 -3 -10
-10 -3 -12 12 -80 -5 -80 -18 0 -5 -7 -8 -14 -8 -18 0 -66 -61 -66 -83 0 -9
-4 -19 -10 -22 -15 -9 -12 -101 5 -140 18 -45 70 -92 109 -101 17 -3 37 -11
44 -16 8 -7 17 -6 28 2 12 11 15 11 12 -1 -2 -8 5 -14 14 -14 31 0 38 -20 44
-131 3 -60 6 -126 7 -146 3 -42 -4 -45 -54 -24 -44 18 -66 43 -87 98 -9 25
-19 46 -22 48 -3 1 -29 -1 -59 -5 l-53 -7 5 -39 c11 -86 88 -160 185 -179 31
-6 66 -13 77 -15 16 -3 21 -13 21 -45 2 -49 2 -50 36 -43 23 4 26 10 25 42 -1
45 8 61 36 61 30 0 118 43 141 68 15 18 16 24 6 37 -7 9 -8 15 -2 15 6 0 12
-6 15 -12 7 -20 19 -2 22 32 1 17 5 33 9 37 3 3 -1 15 -11 25 -9 10 -13 21 -9
25 4 4 11 1 16 -7 5 -8 12 -11 16 -7 4 4 -5 18 -19 31 -29 27 -33 36 -17 36 6
0 10 -7 10 -15 0 -15 12 -20 23 -9 7 7 -12 28 -33 37 -10 3 -7 6 8 6 20 1 33
21 13 21 -5 0 -13 9 -16 20 -4 11 -11 18 -16 15 -5 -4 -9 1 -9 10 0 8 -10 20
-22 25 -13 5 -18 9 -13 9 21 2 -51 32 -111 47 l-62 16 -7 99 c-5 66 -11 99
-19 97 -6 -2 -11 2 -11 7 0 6 4 9 9 7 5 -2 6 15 3 38 -4 30 -2 40 9 40 8 0 14
7 14 15 0 8 5 15 11 15 6 0 8 -7 5 -16 -3 -9 -3 -21 1 -27 4 -7 9 -3 14 9 7
18 8 18 14 -3 4 -13 12 -20 21 -16 8 3 14 -1 14 -11 0 -9 7 -16 16 -16 9 0 14
-6 12 -12 -3 -7 0 -26 7 -41 11 -26 13 -27 28 -13 17 18 32 22 22 6 -3 -5 0
-10 8 -10 8 0 18 7 21 16 3 8 11 12 17 9 6 -4 5 2 -3 14 -7 12 -19 21 -27 21
-11 0 -10 3 3 13 17 12 14 14 -23 13 -22 -1 -41 2 -41 7 0 4 4 7 9 7 11 0 24
31 16 39 -3 3 -10 -1 -16 -9 -7 -12 -10 -11 -15 7 -4 13 -10 21 -14 18 -5 -3
-11 -1 -15 5 -9 14 -21 12 -39 -6 -14 -13 -16 -13 -16 -1 0 9 6 18 13 20 6 3
2 6 -10 6 -13 1 -23 -2 -23 -7 0 -4 -9 -13 -20 -20 -18 -11 -20 -10 -20 9 0
11 5 17 10 14 6 -3 10 -1 10 4 0 17 -13 13 -42 -13 -14 -14 -29 -22 -32 -19
-11 11 -6 23 9 23 8 0 15 4 15 9 0 18 -15 18 -34 0z m51 -61 c-3 -7 -5 -2 -5
12 0 14 2 19 5 13 2 -7 2 -19 0 -25z m117 24 c2 -4 1 -14 -3 -21 -6 -9 -10 -7
-14 8 -5 20 7 29 17 13z m-172 -24 c-5 -21 -4 -22 12 -9 22 18 31 8 16 -18 -8
-16 -8 -21 1 -21 6 0 8 -7 5 -15 -3 -8 -9 -22 -12 -30 -4 -10 0 -15 12 -15 14
0 16 -2 6 -9 -9 -5 -13 -28 -12 -67 2 -87 2 -91 -17 -90 -25 2 -85 35 -105 59
-20 23 -24 97 -7 128 14 27 46 59 60 59 5 0 7 5 4 10 -3 6 1 10 9 10 9 0 16 7
16 15 0 8 4 15 9 15 5 0 7 -10 3 -22z m202 -13 c-4 -8 -8 -15 -10 -15 -2 0 -4
7 -4 15 0 8 4 15 10 15 5 0 7 -7 4 -15z m-134 -26 c0 -5 -4 -9 -10 -9 -5 0
-10 7 -10 16 0 8 5 12 10 9 6 -3 10 -10 10 -16z m190 -9 c0 -5 -5 -10 -11 -10
-5 0 -7 5 -4 10 3 6 8 10 11 10 2 0 4 -4 4 -10z m-20 -30 c0 -5 -4 -10 -10
-10 -5 0 -10 5 -10 10 0 6 5 10 10 10 6 0 10 -4 10 -10z m50 0 c0 -5 -4 -10
-9 -10 -6 0 -13 5 -16 10 -3 6 1 10 9 10 9 0 16 -4 16 -10z m-70 -310 c0 -5
-2 -10 -4 -10 -3 0 -8 5 -11 10 -3 6 -1 10 4 10 6 0 11 -4 11 -10z m-17 -21
c7 -5 22 -18 35 -28 16 -13 23 -32 26 -64 2 -25 6 -50 10 -55 3 -6 3 -12 -1
-14 -5 -1 -21 -20 -36 -40 -15 -21 -35 -38 -43 -38 -7 0 -14 -6 -14 -12 0 -8
-13 -13 -29 -13 -20 0 -29 5 -29 15 0 45 -13 238 -18 253 -5 17 -2 18 41 13
26 -4 52 -11 58 -17z m107 -49 c0 -5 -2 -10 -4 -10 -3 0 -8 5 -11 10 -3 6 -1
10 4 10 6 0 11 -4 11 -10z m30 -150 c0 -5 -2 -10 -4 -10 -3 0 -8 5 -11 10 -3
6 -1 10 4 10 6 0 11 -4 11 -10z"/>
<path d="M1374 1497 c2 -25 11 -43 25 -53 23 -16 21 -19 24 39 1 25 -10 47
-23 47 -4 0 -6 -9 -3 -20 7 -27 -6 -25 -17 3 -7 18 -8 15 -6 -16z m31 -27 c3
-5 1 -10 -4 -10 -6 0 -11 5 -11 10 0 6 2 10 4 10 3 0 8 -4 11 -10z"/>
<path d="M1232 1495 c-27 -30 -28 -36 -4 -28 22 9 42 29 42 42 0 18 -15 12
-38 -14z"/>
<path d="M3107 1497 c-15 -19 -21 -39 -18 -59 0 -5 -4 -8 -10 -8 -5 0 -8 -4
-5 -9 4 -5 1 -11 -6 -13 -15 -5 -21 -165 -6 -174 7 -4 6 -9 -3 -15 -10 -6 -6
-9 14 -9 18 0 27 -5 27 -16 0 -8 5 -12 10 -9 6 4 8 11 5 16 -4 5 11 8 32 8 30
-2 32 -3 11 -6 -16 -2 -28 -8 -28 -13 0 -5 7 -7 15 -4 8 4 15 2 15 -4 0 -5 19
-10 42 -10 31 -1 38 2 28 9 -12 8 -10 9 7 7 21 -3 25 1 22 20 -1 4 -2 14 -3
22 -2 22 -126 28 -126 5 0 -9 -9 -15 -22 -15 -19 0 -20 2 -8 10 10 6 11 10 3
10 -18 0 -16 28 2 46 8 9 15 24 15 35 0 11 7 27 15 35 8 9 15 26 15 39 0 13 6
26 13 28 8 4 7 6 -3 6 -13 1 -13 2 0 11 12 8 13 13 2 30 -10 16 -10 20 2 20 8
0 17 -6 19 -12 3 -8 6 -8 6 -2 1 6 -9 19 -20 30 -17 15 -23 16 -27 5 -3 -8 -7
-9 -11 -3 -4 7 -13 2 -24 -11z m0 -99 c-3 -8 -6 -5 -6 6 -1 11 2 17 5 13 3 -3
4 -12 1 -19z m33 -8 c0 -5 -5 -10 -11 -10 -5 0 -7 5 -4 10 3 6 8 10 11 10 2 0
4 -4 4 -10z m-43 -96 c-3 -3 -12 -4 -19 -1 -8 3 -5 6 6 6 11 1 17 -2 13 -5z
m63 -64 c0 -5 -4 -10 -10 -10 -5 0 -10 5 -10 10 0 6 5 10 10 10 6 0 10 -4 10
-10z m70 -20 c0 -5 -5 -10 -11 -10 -5 0 -7 5 -4 10 3 6 8 10 11 10 2 0 4 -4 4
-10z"/>
<path d="M1280 1485 c-10 -13 -9 -15 9 -15 11 0 21 4 21 9 0 18 -18 21 -30 6z"/>
<path d="M1330 1485 c-10 -13 -9 -15 9 -15 12 0 21 6 21 15 0 8 -4 15 -9 15
-5 0 -14 -7 -21 -15z"/>
<path d="M2605 1450 c-3 -5 -1 -10 4 -10 6 0 11 5 11 10 0 6 -2 10 -4 10 -3 0
-8 -4 -11 -10z"/>
<path d="M3075 1190 c-3 -5 -1 -10 4 -10 6 0 11 5 11 10 0 6 -2 10 -4 10 -3 0
-8 -4 -11 -10z"/>
<path d="M1505 1160 c3 -5 8 -10 11 -10 2 0 4 5 4 10 0 6 -5 10 -11 10 -5 0
-7 -4 -4 -10z"/>
<path d="M3066 1083 c-3 -3 -6 -19 -6 -35 0 -29 1 -29 48 -24 26 2 74 5 108 5
l61 1 -5 30 c-4 29 -5 30 -63 30 -33 0 -59 -4 -59 -10 0 -5 -6 -8 -12 -6 -35
11 -66 15 -72 9z"/>
<path d="M3061 933 c1 -16 5 -41 9 -58 7 -24 8 -18 7 28 0 31 -4 57 -9 57 -4
0 -7 -12 -7 -27z"/>
<path d="M1856 725 c-3 -9 0 -15 9 -15 9 0 12 6 9 15 -4 8 -7 15 -9 15 -2 0
-5 -7 -9 -15z"/>
<path d="M466 705 c4 -8 8 -15 10 -15 2 0 4 7 4 15 0 8 -4 15 -10 15 -5 0 -7
-7 -4 -15z"/>
<path d="M1858 680 c12 -11 24 -20 27 -20 3 0 0 9 -7 20 -7 11 -19 20 -27 20
-11 0 -9 -6 7 -20z"/>
<path d="M1730 680 c0 -5 5 -10 10 -10 6 0 10 5 10 10 0 6 -4 10 -10 10 -5 0
-10 -4 -10 -10z"/>
<path d="M1910 670 c0 -5 5 -10 10 -10 6 0 10 5 10 10 0 6 -4 10 -10 10 -5 0
-10 -4 -10 -10z"/>
<path d="M1840 655 c7 -8 17 -15 22 -15 5 0 3 7 -6 15 -8 8 -18 15 -22 15 -3
0 -1 -7 6 -15z"/>
<path d="M1938 643 c7 -3 16 -2 19 1 4 3 -2 6 -13 5 -11 0 -14 -3 -6 -6z"/>
<path d="M1915 620 c3 -5 8 -10 11 -10 2 0 4 5 4 10 0 6 -5 10 -11 10 -5 0 -7
-4 -4 -10z"/>
<path d="M3300 516 c19 -18 39 -32 43 -29 7 4 -59 63 -72 63 -3 0 10 -15 29
-34z"/>
<path d="M828 443 c7 -3 16 -2 19 1 4 3 -2 6 -13 5 -11 0 -14 -3 -6 -6z"/>
<path d="M4556 515 c7 -17 14 -19 114 -40 76 -16 380 -33 369 -21 -4 4 -53 9
-110 12 -140 8 -292 30 -328 49 -38 19 -52 19 -45 0z"/>
<path d="M5078 453 c6 -2 18 -2 25 0 6 3 1 5 -13 5 -14 0 -19 -2 -12 -5z"/>
<path d="M5386 181 c-15 -6 -16 -10 -7 -16 7 -4 16 -3 20 3 3 5 15 12 26 15
l20 5 -20 0 c-11 0 -29 -3 -39 -7z"/>
</g>
</svg>
